<?xml version="1.0" encoding="UTF-8" standalone="no"?>
<!DOCTYPE svg PUBLIC "-//W3C//DTD SVG 1.1//EN"
 "http://www.w3.org/Graphics/SVG/1.1/DTD/svg11.dtd">
<!-- Generated by graphviz version 8.0.5 (20230430.1635)
 -->
<!-- Title: src/BarrelRadiatorArray.cpp Pages: 1 -->
<svg width="1354pt" height="483pt"
 viewBox="0.00 0.00 1354.43 482.75" xmlns="http://www.w3.org/2000/svg" xmlns:xlink="http://www.w3.org/1999/xlink">
<g id="graph0" class="graph" transform="scale(1 1) rotate(0) translate(4 478.75)">
<title>src/BarrelRadiatorArray.cpp</title>
<!-- Node1 -->
<g id="Node000001" class="node">
<title>Node1</title>
<g id="a_Node000001"><a xlink:title=" ">
<polygon fill="#999999" stroke="#666666" points="1136.63,-474.75 987.88,-474.75 987.88,-454 1136.63,-454 1136.63,-474.75"/>
<text text-anchor="middle" x="1062.25" y="-461.25" font-family="Helvetica,sans-Serif" font-size="10.00">src/BarrelRadiatorArray.cpp</text>
</a>
</g>
</g>
<!-- Node2 -->
<g id="Node000002" class="node">
<title>Node2</title>
<g id="a_Node000002"><a xlink:title=" ">
<polygon fill="#e0e0e0" stroke="#999999" points="341.63,-134.25 294.88,-134.25 294.88,-113.5 341.63,-113.5 341.63,-134.25"/>
<text text-anchor="middle" x="318.25" y="-120.75" font-family="Helvetica,sans-Serif" font-size="10.00">vector</text>
</a>
</g>
</g>
<!-- Node1&#45;&gt;Node2 -->
<g id="edge1_Node000001_Node000002" class="edge">
<title>Node1&#45;&gt;Node2</title>
<g id="a_edge1_Node000001_Node000002"><a xlink:title=" ">
<path fill="none" stroke="#63b8ff" d="M987.67,-462.54C812.32,-460.04 377.96,-450.64 236.25,-418 149.22,-397.95 77.25,-384.43 77.25,-295.12 77.25,-295.12 77.25,-295.12 77.25,-236.38 77.25,-146.38 217.38,-128.8 283.94,-125.53"/>
<polygon fill="#63b8ff" stroke="#63b8ff" points="283.86,-128.99 293.71,-125.09 283.57,-122 283.86,-128.99"/>
</a>
</g>
</g>
<!-- Node3 -->
<g id="Node000003" class="node">
<title>Node3</title>
<g id="a_Node000003"><a xlink:title=" ">
<polygon fill="#e0e0e0" stroke="#999999" points="93.25,-418 29.25,-418 29.25,-397.25 93.25,-397.25 93.25,-418"/>
<text text-anchor="middle" x="61.25" y="-404.5" font-family="Helvetica,sans-Serif" font-size="10.00">stdexcept</text>
</a>
</g>
</g>
<!-- Node1&#45;&gt;Node3 -->
<g id="edge2_Node000001_Node000003" class="edge">
<title>Node1&#45;&gt;Node3</title>
<g id="a_edge2_Node000001_Node000003"><a xlink:title=" ">
<path fill="none" stroke="#63b8ff" d="M987.62,-463.72C826.31,-463.6 433.37,-458.73 107.25,-418 106.12,-417.86 104.98,-417.7 103.82,-417.54"/>
<polygon fill="#63b8ff" stroke="#63b8ff" points="104.76,-413.98 94.32,-415.81 103.62,-420.89 104.76,-413.98"/>
</a>
</g>
</g>
<!-- Node4 -->
<g id="Node000004" class="node">
<title>Node4</title>
<g id="a_Node000004"><a xlink:title=" ">
<polygon fill="#e0e0e0" stroke="#999999" points="1105.13,-134.25 1061.38,-134.25 1061.38,-113.5 1105.13,-113.5 1105.13,-134.25"/>
<text text-anchor="middle" x="1083.25" y="-120.75" font-family="Helvetica,sans-Serif" font-size="10.00">string</text>
</a>
</g>
</g>
<!-- Node1&#45;&gt;Node4 -->
<g id="edge3_Node000001_Node000004" class="edge">
<title>Node1&#45;&gt;Node4</title>
<g id="a_edge3_Node000001_Node000004"><a xlink:title=" ">
<path fill="none" stroke="#63b8ff" d="M1136.81,-454.02C1180.57,-446.83 1229.85,-435.18 1243.25,-418 1317.73,-322.55 1164.23,-187.77 1105.14,-141.34"/>
<polygon fill="#63b8ff" stroke="#63b8ff" points="1107.56,-138.02 1097.51,-134.67 1103.28,-143.56 1107.56,-138.02"/>
</a>
</g>
</g>
<!-- Node5 -->
<g id="Node000005" class="node">
<title>Node5</title>
<g id="a_Node000005"><a xlink:title=" ">
<polygon fill="#e0e0e0" stroke="#999999" points="705.38,-20.75 591.13,-20.75 591.13,0 705.38,0 705.38,-20.75"/>
<text text-anchor="middle" x="648.25" y="-7.25" font-family="Helvetica,sans-Serif" font-size="10.00">Math/Vector3Dfwd.h</text>
</a>
</g>
</g>
<!-- Node1&#45;&gt;Node5 -->
<g id="edge4_Node000001_Node000005" class="edge">
<title>Node1&#45;&gt;Node5</title>
<g id="a_edge4_Node000001_Node000005"><a xlink:title=" ">
<path fill="none" stroke="#63b8ff" d="M987.55,-462.5C755.15,-459.45 58.15,-447.85 20.25,-418 -3.76,-399.08 1.25,-382.45 1.25,-351.88 1.25,-351.88 1.25,-351.88 1.25,-179.62 1.25,-60.95 414.16,-24.51 580.26,-14.65"/>
<polygon fill="#63b8ff" stroke="#63b8ff" points="580.06,-18.11 589.84,-14.04 579.65,-11.12 580.06,-18.11"/>
</a>
</g>
</g>
<!-- Node6 -->
<g id="Node000006" class="node">
<title>Node6</title>
<g id="a_Node000006"><a xlink:href="BarrelRadiatorArray_8h.html" target="_top" xlink:title=" ">
<polygon fill="white" stroke="#666666" points="365.38,-418 245.13,-418 245.13,-397.25 365.38,-397.25 365.38,-418"/>
<text text-anchor="middle" x="305.25" y="-404.5" font-family="Helvetica,sans-Serif" font-size="10.00">BarrelRadiatorArray.h</text>
</a>
</g>
</g>
<!-- Node1&#45;&gt;Node6 -->
<g id="edge5_Node000001_Node000006" class="edge">
<title>Node1&#45;&gt;Node6</title>
<g id="a_edge5_Node000001_Node000006"><a xlink:title=" ">
<path fill="none" stroke="#63b8ff" d="M987.6,-457.98C841.55,-447.41 519.82,-424.14 376.53,-413.78"/>
<polygon fill="#63b8ff" stroke="#63b8ff" points="376.93,-410.23 366.7,-413 376.42,-417.21 376.93,-410.23"/>
</a>
</g>
</g>
<!-- Node10 -->
<g id="Node000010" class="node">
<title>Node10</title>
<g id="a_Node000010"><a xlink:href="RadiatorCell_8h.html" target="_top" xlink:title=" ">
<polygon fill="white" stroke="#666666" points="689.75,-304.5 604.75,-304.5 604.75,-283.75 689.75,-283.75 689.75,-304.5"/>
<text text-anchor="middle" x="647.25" y="-291" font-family="Helvetica,sans-Serif" font-size="10.00">RadiatorCell.h</text>
</a>
</g>
</g>
<!-- Node1&#45;&gt;Node10 -->
<g id="edge52_Node000001_Node000010" class="edge">
<title>Node1&#45;&gt;Node10</title>
<g id="a_edge52_Node000001_Node000010"><a xlink:title=" ">
<path fill="none" stroke="#63b8ff" d="M1038.15,-453.6C967.81,-425.08 762.66,-341.91 681.18,-308.88"/>
<polygon fill="#63b8ff" stroke="#63b8ff" points="683.01,-305.44 672.43,-304.93 680.38,-311.93 683.01,-305.44"/>
</a>
</g>
</g>
<!-- Node19 -->
<g id="Node000019" class="node">
<title>Node19</title>
<g id="a_Node000019"><a xlink:href="Particle_8h.html" target="_top" xlink:title=" ">
<polygon fill="white" stroke="#666666" points="883.75,-134.25 822.75,-134.25 822.75,-113.5 883.75,-113.5 883.75,-134.25"/>
<text text-anchor="middle" x="853.25" y="-120.75" font-family="Helvetica,sans-Serif" font-size="10.00">Particle.h</text>
</a>
</g>
</g>
<!-- Node1&#45;&gt;Node19 -->
<g id="edge66_Node000001_Node000019" class="edge">
<title>Node1&#45;&gt;Node19</title>
<g id="a_edge66_Node000001_Node000019"><a xlink:title=" ">
<path fill="none" stroke="#63b8ff" d="M1064.48,-453.77C1073.22,-413.45 1101.16,-255.96 1026.25,-170.25 1009.12,-150.65 940.22,-137.26 894.71,-130.35"/>
<polygon fill="#63b8ff" stroke="#63b8ff" points="895.37,-126.77 884.97,-128.78 894.36,-133.69 895.37,-126.77"/>
</a>
</g>
</g>
<!-- Node20 -->
<g id="Node000020" class="node">
<title>Node20</title>
<g id="a_Node000020"><a xlink:href="ARCVector_8h.html" target="_top" xlink:title=" ">
<polygon fill="white" stroke="#666666" points="972.88,-77.5 897.63,-77.5 897.63,-56.75 972.88,-56.75 972.88,-77.5"/>
<text text-anchor="middle" x="935.25" y="-64" font-family="Helvetica,sans-Serif" font-size="10.00">ARCVector.h</text>
</a>
</g>
</g>
<!-- Node1&#45;&gt;Node20 -->
<g id="edge68_Node000001_Node000020" class="edge">
<title>Node1&#45;&gt;Node20</title>
<g id="a_edge68_Node000001_Node000020"><a xlink:title=" ">
<path fill="none" stroke="#63b8ff" d="M1132.79,-453.54C1176.76,-445.97 1227.84,-434.07 1243.25,-418 1337.67,-319.58 1378.98,-208.63 1281.25,-113.5 1240.02,-73.36 1069.45,-67.81 984.21,-67.61"/>
<polygon fill="#63b8ff" stroke="#63b8ff" points="984.26,-64.11 974.26,-67.62 984.26,-71.11 984.26,-64.11"/>
</a>
</g>
</g>
<!-- Node23 -->
<g id="Node000023" class="node">
<title>Node23</title>
<g id="a_Node000023"><a xlink:href="HalfRadiatorCell_8h.html" target="_top" xlink:title=" ">
<polygon fill="white" stroke="#666666" points="1233.88,-418 1128.63,-418 1128.63,-397.25 1233.88,-397.25 1233.88,-418"/>
<text text-anchor="middle" x="1181.25" y="-404.5" font-family="Helvetica,sans-Serif" font-size="10.00">HalfRadiatorCell.h</text>
</a>
</g>
</g>
<!-- Node1&#45;&gt;Node23 -->
<g id="edge53_Node000001_Node000023" class="edge">
<title>Node1&#45;&gt;Node23</title>
<g id="a_edge53_Node000001_Node000023"><a xlink:title=" ">
<path fill="none" stroke="#63b8ff" d="M1083.53,-453.59C1102.14,-445.02 1129.41,-432.48 1150.42,-422.81"/>
<polygon fill="#63b8ff" stroke="#63b8ff" points="1151.54,-425.69 1159.16,-418.33 1148.62,-419.33 1151.54,-425.69"/>
</a>
</g>
</g>
<!-- Node24 -->
<g id="Node000024" class="node">
<title>Node24</title>
<g id="a_Node000024"><a xlink:href="BarrelRadiatorCell_8h.html" target="_top" xlink:title=" ">
<polygon fill="white" stroke="#666666" points="1204.38,-361.25 1090.13,-361.25 1090.13,-340.5 1204.38,-340.5 1204.38,-361.25"/>
<text text-anchor="middle" x="1147.25" y="-347.75" font-family="Helvetica,sans-Serif" font-size="10.00">BarrelRadiatorCell.h</text>
</a>
</g>
</g>
<!-- Node1&#45;&gt;Node24 -->
<g id="edge67_Node000001_Node000024" class="edge">
<title>Node1&#45;&gt;Node24</title>
<g id="a_edge67_Node000001_Node000024"><a xlink:title=" ">
<path fill="none" stroke="#63b8ff" d="M1069.5,-453.87C1083.61,-435.36 1114.97,-394.22 1133.26,-370.23"/>
<polygon fill="#63b8ff" stroke="#63b8ff" points="1136.5,-372.75 1139.78,-362.68 1130.94,-368.51 1136.5,-372.75"/>
</a>
</g>
</g>
<!-- Node25 -->
<g id="Node000025" class="node">
<title>Node25</title>
<g id="a_Node000025"><a xlink:href="Settings_8h.html" target="_top" xlink:title=" ">
<polygon fill="white" stroke="#666666" points="1251.63,-191 1186.88,-191 1186.88,-170.25 1251.63,-170.25 1251.63,-191"/>
<text text-anchor="middle" x="1219.25" y="-177.5" font-family="Helvetica,sans-Serif" font-size="10.00">Settings.h</text>
</a>
</g>
</g>
<!-- Node1&#45;&gt;Node25 -->
<g id="edge62_Node000001_Node000025" class="edge">
<title>Node1&#45;&gt;Node25</title>
<g id="a_edge62_Node000001_Node000025"><a xlink:title=" ">
<path fill="none" stroke="#63b8ff" d="M1137.07,-460.21C1203.02,-455.67 1291.98,-444.64 1314.25,-418 1369.03,-352.48 1347.46,-293 1293.25,-227 1282.53,-213.94 1267,-203.62 1252.94,-196.14"/>
<polygon fill="#63b8ff" stroke="#63b8ff" points="1255.02,-192.77 1244.51,-191.42 1251.89,-199.02 1255.02,-192.77"/>
</a>
</g>
</g>
<!-- Node6&#45;&gt;Node2 -->
<g id="edge6_Node000006_Node000002" class="edge">
<title>Node6&#45;&gt;Node2</title>
<g id="a_edge6_Node000006_Node000002"><a xlink:title=" ">
<path fill="none" stroke="#63b8ff" d="M267.29,-396.79C222.27,-382.58 153.25,-351.58 153.25,-295.12 153.25,-295.12 153.25,-295.12 153.25,-236.38 153.25,-204.73 237.63,-161.32 285.71,-139.16"/>
<polygon fill="#63b8ff" stroke="#63b8ff" points="287,-141.96 294.66,-134.64 284.11,-135.59 287,-141.96"/>
</a>
</g>
</g>
<!-- Node6&#45;&gt;Node4 -->
<g id="edge9_Node000006_Node000004" class="edge">
<title>Node6&#45;&gt;Node4</title>
<g id="a_edge9_Node000006_Node000004"><a xlink:title=" ">
<path fill="none" stroke="#63b8ff" d="M361.25,-396.77C411.36,-387.85 486.81,-374.16 552.25,-361.25 672.13,-337.6 705.52,-343.68 821.25,-304.5 876.76,-285.71 889.24,-276.57 940.25,-247.75 980.13,-225.23 991.87,-221.24 1026.25,-191 1042.72,-176.52 1058.77,-157.3 1069.62,-143.31"/>
<polygon fill="#63b8ff" stroke="#63b8ff" points="1072.99,-145.67 1076.25,-135.59 1067.41,-141.44 1072.99,-145.67"/>
</a>
</g>
</g>
<!-- Node6&#45;&gt;Node5 -->
<g id="edge11_Node000006_Node000005" class="edge">
<title>Node6&#45;&gt;Node5</title>
<g id="a_edge11_Node000006_Node000005"><a xlink:title=" ">
<path fill="none" stroke="#63b8ff" d="M244.88,-397.1C189.24,-384.49 115.25,-356.22 115.25,-295.12 115.25,-295.12 115.25,-295.12 115.25,-236.38 115.25,-134.69 448.67,-53.1 588.1,-23.43"/>
<polygon fill="#63b8ff" stroke="#63b8ff" points="588.53,-26.71 597.59,-21.22 587.08,-19.86 588.53,-26.71"/>
</a>
</g>
</g>
<!-- Node7 -->
<g id="Node000007" class="node">
<title>Node7</title>
<g id="a_Node000007"><a xlink:title=" ">
<polygon fill="#e0e0e0" stroke="#999999" points="416.88,-134.25 359.63,-134.25 359.63,-113.5 416.88,-113.5 416.88,-134.25"/>
<text text-anchor="middle" x="388.25" y="-120.75" font-family="Helvetica,sans-Serif" font-size="10.00">memory</text>
</a>
</g>
</g>
<!-- Node6&#45;&gt;Node7 -->
<g id="edge7_Node000006_Node000007" class="edge">
<title>Node6&#45;&gt;Node7</title>
<g id="a_edge7_Node000006_Node000007"><a xlink:title=" ">
<path fill="none" stroke="#63b8ff" d="M286.16,-396.77C273.4,-389.03 257.64,-376.93 250.25,-361.25 246.32,-352.91 247.67,-349.35 250.25,-340.5 274.42,-257.92 340.95,-176.93 371.96,-142.35"/>
<polygon fill="#63b8ff" stroke="#63b8ff" points="373.88,-145.33 378.03,-135.58 368.71,-140.62 373.88,-145.33"/>
</a>
</g>
</g>
<!-- Node8 -->
<g id="Node000008" class="node">
<title>Node8</title>
<g id="a_Node000008"><a xlink:title=" ">
<polygon fill="#e0e0e0" stroke="#999999" points="270.5,-20.75 226,-20.75 226,0 270.5,0 270.5,-20.75"/>
<text text-anchor="middle" x="248.25" y="-7.25" font-family="Helvetica,sans-Serif" font-size="10.00">utility</text>
</a>
</g>
</g>
<!-- Node6&#45;&gt;Node8 -->
<g id="edge8_Node000006_Node000008" class="edge">
<title>Node6&#45;&gt;Node8</title>
<g id="a_edge8_Node000006_Node000008"><a xlink:title=" ">
<path fill="none" stroke="#63b8ff" d="M244.9,-406.64C166.41,-403.13 39.25,-383.76 39.25,-295.12 39.25,-295.12 39.25,-295.12 39.25,-122.88 39.25,-44.06 156.39,-20.76 215.28,-14.03"/>
<polygon fill="#63b8ff" stroke="#63b8ff" points="215.3,-17.44 224.89,-12.92 214.58,-10.48 215.3,-17.44"/>
</a>
</g>
</g>
<!-- Node9 -->
<g id="Node000009" class="node">
<title>Node9</title>
<g id="a_Node000009"><a xlink:title=" ">
<polygon fill="#e0e0e0" stroke="#999999" points="1017.5,-191 955,-191 955,-170.25 1017.5,-170.25 1017.5,-191"/>
<text text-anchor="middle" x="986.25" y="-177.5" font-family="Helvetica,sans-Serif" font-size="10.00">TObject.h</text>
</a>
</g>
</g>
<!-- Node6&#45;&gt;Node9 -->
<g id="edge10_Node000006_Node000009" class="edge">
<title>Node6&#45;&gt;Node9</title>
<g id="a_edge10_Node000006_Node000009"><a xlink:title=" ">
<path fill="none" stroke="#63b8ff" d="M346.47,-396.8C384.01,-387.79 440.93,-373.94 490.25,-361.25 677.93,-312.94 740.54,-339.46 911.25,-247.75 934.52,-235.25 956.62,-214.25 970.73,-199.27"/>
<polygon fill="#63b8ff" stroke="#63b8ff" points="972.89,-202 977.05,-192.26 967.72,-197.28 972.89,-202"/>
</a>
</g>
</g>
<!-- Node6&#45;&gt;Node10 -->
<g id="edge12_Node000006_Node000010" class="edge">
<title>Node6&#45;&gt;Node10</title>
<g id="a_edge12_Node000006_Node000010"><a xlink:title=" ">
<path fill="none" stroke="#63b8ff" d="M335.31,-396.83C397.01,-376.71 538.01,-330.74 607.31,-308.15"/>
<polygon fill="#63b8ff" stroke="#63b8ff" points="607.97,-311.29 616.39,-304.86 605.8,-304.63 607.97,-311.29"/>
</a>
</g>
</g>
<!-- Node22 -->
<g id="Node000022" class="node">
<title>Node22</title>
<g id="a_Node000022"><a xlink:href="RadiatorArray_8h.html" target="_top" xlink:title=" ">
<polygon fill="white" stroke="#666666" points="350.75,-361.25 259.75,-361.25 259.75,-340.5 350.75,-340.5 350.75,-361.25"/>
<text text-anchor="middle" x="305.25" y="-347.75" font-family="Helvetica,sans-Serif" font-size="10.00">RadiatorArray.h</text>
</a>
</g>
</g>
<!-- Node6&#45;&gt;Node22 -->
<g id="edge48_Node000006_Node000022" class="edge">
<title>Node6&#45;&gt;Node22</title>
<g id="a_edge48_Node000006_Node000022"><a xlink:title=" ">
<path fill="none" stroke="#63b8ff" d="M305.25,-396.84C305.25,-390.06 305.25,-380.8 305.25,-372.44"/>
<polygon fill="#63b8ff" stroke="#63b8ff" points="308.76,-372.58 305.25,-362.58 301.76,-372.58 308.76,-372.58"/>
</a>
</g>
</g>
<!-- Node10&#45;&gt;Node2 -->
<g id="edge14_Node000010_Node000002" class="edge">
<title>Node10&#45;&gt;Node2</title>
<g id="a_edge14_Node000010_Node000002"><a xlink:title=" ">
<path fill="none" stroke="#63b8ff" d="M604.28,-288.8C564.57,-283.44 504.85,-271.89 458.25,-247.75 405.88,-220.62 357.08,-169.78 333.34,-142.78"/>
<polygon fill="#63b8ff" stroke="#63b8ff" points="335.46,-140.89 326.28,-135.61 330.16,-145.47 335.46,-140.89"/>
</a>
</g>
</g>
<!-- Node10&#45;&gt;Node4 -->
<g id="edge13_Node000010_Node000004" class="edge">
<title>Node10&#45;&gt;Node4</title>
<g id="a_edge13_Node000010_Node000004"><a xlink:title=" ">
<path fill="none" stroke="#63b8ff" d="M690.22,-293.89C740.73,-292.87 825.4,-285.05 886.25,-247.75 923.4,-224.99 910.7,-195.42 946.25,-170.25 977.81,-147.92 1021.09,-136.02 1050.5,-130.1"/>
<polygon fill="#63b8ff" stroke="#63b8ff" points="1050.87,-133.4 1060.04,-128.11 1049.57,-126.52 1050.87,-133.4"/>
</a>
</g>
</g>
<!-- Node10&#45;&gt;Node5 -->
<g id="edge18_Node000010_Node000005" class="edge">
<title>Node10&#45;&gt;Node5</title>
<g id="a_edge18_Node000010_Node000005"><a xlink:title=" ">
<path fill="none" stroke="#63b8ff" d="M604.27,-288.8C575.11,-283.66 537.72,-272.4 514.25,-247.75 493.17,-225.61 495.25,-212.2 495.25,-181.62 495.25,-181.62 495.25,-181.62 495.25,-122.88 495.25,-70.39 554.79,-39.99 599.59,-24.56"/>
<polygon fill="#63b8ff" stroke="#63b8ff" points="600.63,-27.57 609.04,-21.13 598.45,-20.92 600.63,-27.57"/>
</a>
</g>
</g>
<!-- Node10&#45;&gt;Node7 -->
<g id="edge16_Node000010_Node000007" class="edge">
<title>Node10&#45;&gt;Node7</title>
<g id="a_edge16_Node000010_Node000007"><a xlink:title=" ">
<path fill="none" stroke="#63b8ff" d="M604.27,-290.07C568.32,-285.61 517.28,-274.66 481.25,-247.75 448.79,-223.5 458.35,-202.06 433.25,-170.25 425.42,-160.32 415.64,-150.24 407.2,-142.1"/>
<polygon fill="#63b8ff" stroke="#63b8ff" points="410.01,-140 400.33,-135.7 405.22,-145.1 410.01,-140"/>
</a>
</g>
</g>
<!-- Node10&#45;&gt;Node8 -->
<g id="edge15_Node000010_Node000008" class="edge">
<title>Node10&#45;&gt;Node8</title>
<g id="a_edge15_Node000010_Node000008"><a xlink:title=" ">
<path fill="none" stroke="#63b8ff" d="M604.64,-290.59C558.28,-286.46 482.93,-275.7 424.25,-247.75 352.56,-213.6 330.52,-200.18 286.25,-134.25 264.77,-102.24 254.98,-57.52 250.88,-31.79"/>
<polygon fill="#63b8ff" stroke="#63b8ff" points="254.24,-31.52 249.34,-22.12 247.31,-32.52 254.24,-31.52"/>
</a>
</g>
</g>
<!-- Node11 -->
<g id="Node000011" class="node">
<title>Node11</title>
<g id="a_Node000011"><a xlink:title=" ">
<polygon fill="#e0e0e0" stroke="#999999" points="579.13,-247.75 523.38,-247.75 523.38,-227 579.13,-227 579.13,-247.75"/>
<text text-anchor="middle" x="551.25" y="-234.25" font-family="Helvetica,sans-Serif" font-size="10.00">TMath.h</text>
</a>
</g>
</g>
<!-- Node10&#45;&gt;Node11 -->
<g id="edge17_Node000010_Node000011" class="edge">
<title>Node10&#45;&gt;Node11</title>
<g id="a_edge17_Node000010_Node000011"><a xlink:title=" ">
<path fill="none" stroke="#63b8ff" d="M630.09,-283.34C615.48,-275.01 594.27,-262.91 577.53,-253.36"/>
<polygon fill="#63b8ff" stroke="#63b8ff" points="579.69,-249.99 569.27,-248.08 576.22,-256.07 579.69,-249.99"/>
</a>
</g>
</g>
<!-- Node12 -->
<g id="Node000012" class="node">
<title>Node12</title>
<g id="a_Node000012"><a xlink:title=" ">
<polygon fill="#e0e0e0" stroke="#999999" points="1333,-20.75 1225.5,-20.75 1225.5,0 1333,0 1333,-20.75"/>
<text text-anchor="middle" x="1279.25" y="-7.25" font-family="Helvetica,sans-Serif" font-size="10.00">Math/Rotation3D.h</text>
</a>
</g>
</g>
<!-- Node10&#45;&gt;Node12 -->
<g id="edge19_Node000010_Node000012" class="edge">
<title>Node10&#45;&gt;Node12</title>
<g id="a_edge19_Node000010_Node000012"><a xlink:title=" ">
<path fill="none" stroke="#63b8ff" d="M690.18,-292.45C816.38,-289.5 1182.21,-273.85 1260.25,-191 1301.39,-147.33 1291.66,-68.63 1284.11,-31.63"/>
<polygon fill="#63b8ff" stroke="#63b8ff" points="1287.38,-31.19 1281.8,-22.18 1280.54,-32.7 1287.38,-31.19"/>
</a>
</g>
</g>
<!-- Node13 -->
<g id="Node000013" class="node">
<title>Node13</title>
<g id="a_Node000013"><a xlink:title=" ">
<polygon fill="#e0e0e0" stroke="#999999" points="697.63,-247.75 596.88,-247.75 596.88,-227 697.63,-227 697.63,-247.75"/>
<text text-anchor="middle" x="647.25" y="-234.25" font-family="Helvetica,sans-Serif" font-size="10.00">Math/RotationZ.h</text>
</a>
</g>
</g>
<!-- Node10&#45;&gt;Node13 -->
<g id="edge20_Node000010_Node000013" class="edge">
<title>Node10&#45;&gt;Node13</title>
<g id="a_edge20_Node000010_Node000013"><a xlink:title=" ">
<path fill="none" stroke="#63b8ff" d="M647.25,-283.34C647.25,-276.56 647.25,-267.3 647.25,-258.94"/>
<polygon fill="#63b8ff" stroke="#63b8ff" points="650.76,-259.08 647.25,-249.08 643.76,-259.08 650.76,-259.08"/>
</a>
</g>
</g>
<!-- Node14 -->
<g id="Node000014" class="node">
<title>Node14</title>
<g id="a_Node000014"><a xlink:href="SiPM_8h.html" target="_top" xlink:title=" ">
<polygon fill="white" stroke="#666666" points="764.75,-247.75 715.75,-247.75 715.75,-227 764.75,-227 764.75,-247.75"/>
<text text-anchor="middle" x="740.25" y="-234.25" font-family="Helvetica,sans-Serif" font-size="10.00">SiPM.h</text>
</a>
</g>
</g>
<!-- Node10&#45;&gt;Node14 -->
<g id="edge21_Node000010_Node000014" class="edge">
<title>Node10&#45;&gt;Node14</title>
<g id="a_edge21_Node000010_Node000014"><a xlink:title=" ">
<path fill="none" stroke="#63b8ff" d="M663.88,-283.34C677.9,-275.08 698.2,-263.13 714.35,-253.63"/>
<polygon fill="#63b8ff" stroke="#63b8ff" points="715.93,-256.17 722.77,-248.08 712.38,-250.14 715.93,-256.17"/>
</a>
</g>
</g>
<!-- Node16 -->
<g id="Node000016" class="node">
<title>Node16</title>
<g id="a_Node000016"><a xlink:href="Photon_8h.html" target="_top" xlink:title=" ">
<polygon fill="white" stroke="#666666" points="823.63,-191 764.88,-191 764.88,-170.25 823.63,-170.25 823.63,-191"/>
<text text-anchor="middle" x="794.25" y="-177.5" font-family="Helvetica,sans-Serif" font-size="10.00">Photon.h</text>
</a>
</g>
</g>
<!-- Node10&#45;&gt;Node16 -->
<g id="edge46_Node000010_Node000016" class="edge">
<title>Node10&#45;&gt;Node16</title>
<g id="a_edge46_Node000010_Node000016"><a xlink:title=" ">
<path fill="none" stroke="#63b8ff" d="M690.2,-287.52C717.39,-281.83 751.41,-270.45 773.25,-247.75 785.13,-235.41 790.29,-216.38 792.54,-201.9"/>
<polygon fill="#63b8ff" stroke="#63b8ff" points="796.12,-202.39 793.82,-192.05 789.17,-201.57 796.12,-202.39"/>
</a>
</g>
</g>
<!-- Node10&#45;&gt;Node20 -->
<g id="edge47_Node000010_Node000020" class="edge">
<title>Node10&#45;&gt;Node20</title>
<g id="a_edge47_Node000010_Node000020"><a xlink:title=" ">
<path fill="none" stroke="#63b8ff" d="M690.21,-285.26C720.7,-278.43 761.81,-266.6 794.25,-247.75 858.01,-210.7 876.37,-196.9 915.25,-134.25 923.96,-120.22 929.09,-102.16 931.97,-88.46"/>
<polygon fill="#63b8ff" stroke="#63b8ff" points="935.57,-89.22 933.95,-78.75 928.69,-87.94 935.57,-89.22"/>
</a>
</g>
</g>
<!-- Node14&#45;&gt;Node2 -->
<g id="edge22_Node000014_Node000002" class="edge">
<title>Node14&#45;&gt;Node2</title>
<g id="a_edge22_Node000014_Node000002"><a xlink:title=" ">
<path fill="none" stroke="#63b8ff" d="M715.41,-229.38C712.33,-228.56 709.22,-227.75 706.25,-227 635.98,-209.37 617.43,-209.04 547.25,-191 462.28,-169.16 439.42,-160.33 352.37,-134.87"/>
<polygon fill="#63b8ff" stroke="#63b8ff" points="353.6,-131.29 343.02,-131.85 351.64,-138.01 353.6,-131.29"/>
</a>
</g>
</g>
<!-- Node14&#45;&gt;Node4 -->
<g id="edge23_Node000014_Node000004" class="edge">
<title>Node14&#45;&gt;Node4</title>
<g id="a_edge23_Node000014_Node000004"><a xlink:title=" ">
<path fill="none" stroke="#63b8ff" d="M763.48,-226.61C796.43,-212.96 858.8,-187.87 913.25,-170.25 960.46,-154.97 1016.2,-140.82 1050.64,-132.51"/>
<polygon fill="#63b8ff" stroke="#63b8ff" points="1051.12,-135.75 1060.03,-130.02 1049.49,-128.94 1051.12,-135.75"/>
</a>
</g>
</g>
<!-- Node14&#45;&gt;Node5 -->
<g id="edge27_Node000014_Node000005" class="edge">
<title>Node14&#45;&gt;Node5</title>
<g id="a_edge27_Node000014_Node000005"><a xlink:title=" ">
<path fill="none" stroke="#63b8ff" d="M737.91,-226.54C734.51,-213.25 727.47,-189.05 717.25,-170.25 707.57,-152.44 699.89,-151.5 689.25,-134.25 674.59,-110.48 671.21,-103.96 662.25,-77.5 657.19,-62.52 653.57,-44.99 651.29,-31.74"/>
<polygon fill="#63b8ff" stroke="#63b8ff" points="654.6,-31.3 649.56,-21.98 647.69,-32.41 654.6,-31.3"/>
</a>
</g>
</g>
<!-- Node14&#45;&gt;Node7 -->
<g id="edge24_Node000014_Node000007" class="edge">
<title>Node14&#45;&gt;Node7</title>
<g id="a_edge24_Node000014_Node000007"><a xlink:title=" ">
<path fill="none" stroke="#63b8ff" d="M715.38,-229.36C679.04,-219.03 613.26,-199.97 590.25,-191 570.48,-183.29 567.09,-177.8 547.25,-170.25 507.36,-155.06 460.17,-142.21 427.62,-134.1"/>
<polygon fill="#63b8ff" stroke="#63b8ff" points="428.72,-130.52 418.17,-131.54 427.05,-137.32 428.72,-130.52"/>
</a>
</g>
</g>
<!-- Node14&#45;&gt;Node9 -->
<g id="edge25_Node000014_Node000009" class="edge">
<title>Node14&#45;&gt;Node9</title>
<g id="a_edge25_Node000014_Node000009"><a xlink:title=" ">
<path fill="none" stroke="#63b8ff" d="M765.2,-230.82C807.28,-221.46 892.81,-202.42 944.27,-190.97"/>
<polygon fill="#63b8ff" stroke="#63b8ff" points="944.7,-194.24 953.7,-188.65 943.18,-187.4 944.7,-194.24"/>
</a>
</g>
</g>
<!-- Node15 -->
<g id="Node000015" class="node">
<title>Node15</title>
<g id="a_Node000015"><a xlink:title=" ">
<polygon fill="#e0e0e0" stroke="#999999" points="708.75,-191 599.75,-191 599.75,-170.25 708.75,-170.25 708.75,-191"/>
<text text-anchor="middle" x="654.25" y="-177.5" font-family="Helvetica,sans-Serif" font-size="10.00">Math/Interpolator.h</text>
</a>
</g>
</g>
<!-- Node14&#45;&gt;Node15 -->
<g id="edge26_Node000014_Node000015" class="edge">
<title>Node14&#45;&gt;Node15</title>
<g id="a_edge26_Node000014_Node000015"><a xlink:title=" ">
<path fill="none" stroke="#63b8ff" d="M724.88,-226.59C712.04,-218.41 693.5,-206.61 678.64,-197.15"/>
<polygon fill="#63b8ff" stroke="#63b8ff" points="680.81,-193.75 670.5,-191.33 677.05,-199.65 680.81,-193.75"/>
</a>
</g>
</g>
<!-- Node14&#45;&gt;Node16 -->
<g id="edge28_Node000014_Node000016" class="edge">
<title>Node14&#45;&gt;Node16</title>
<g id="a_edge28_Node000014_Node000016"><a xlink:title=" ">
<path fill="none" stroke="#63b8ff" d="M749.91,-226.59C757.43,-218.96 768.08,-208.17 777.05,-199.07"/>
<polygon fill="#63b8ff" stroke="#63b8ff" points="779.15,-201.91 783.68,-192.33 774.17,-196.99 779.15,-201.91"/>
</a>
</g>
</g>
<!-- Node16&#45;&gt;Node2 -->
<g id="edge30_Node000016_Node000002" class="edge">
<title>Node16&#45;&gt;Node2</title>
<g id="a_edge30_Node000016_Node000002"><a xlink:title=" ">
<path fill="none" stroke="#63b8ff" d="M764.66,-175.86C750.35,-174.08 732.92,-171.97 717.25,-170.25 557.84,-152.73 513.07,-164.88 352.64,-134.41"/>
<polygon fill="#63b8ff" stroke="#63b8ff" points="353.38,-130.79 342.9,-132.34 352.06,-137.67 353.38,-130.79"/>
</a>
</g>
</g>
<!-- Node16&#45;&gt;Node4 -->
<g id="edge32_Node000016_Node000004" class="edge">
<title>Node16&#45;&gt;Node4</title>
<g id="a_edge32_Node000016_Node000004"><a xlink:title=" ">
<path fill="none" stroke="#63b8ff" d="M823.84,-173.04C828.33,-172.08 832.91,-171.12 837.25,-170.25 913.36,-154.94 1003.13,-138.89 1050.37,-130.59"/>
<polygon fill="#63b8ff" stroke="#63b8ff" points="1050.91,-133.88 1060.16,-128.7 1049.7,-126.98 1050.91,-133.88"/>
</a>
</g>
</g>
<!-- Node16&#45;&gt;Node5 -->
<g id="edge34_Node000016_Node000005" class="edge">
<title>Node16&#45;&gt;Node5</title>
<g id="a_edge34_Node000016_Node000005"><a xlink:title=" ">
<path fill="none" stroke="#63b8ff" d="M764.71,-170.26C745.72,-162.98 721.62,-151.24 705.25,-134.25 690.21,-118.64 667.28,-61.79 655.61,-31.19"/>
<polygon fill="#63b8ff" stroke="#63b8ff" points="658.66,-30.36 651.86,-22.23 652.11,-32.82 658.66,-30.36"/>
</a>
</g>
</g>
<!-- Node16&#45;&gt;Node7 -->
<g id="edge29_Node000016_Node000007" class="edge">
<title>Node16&#45;&gt;Node7</title>
<g id="a_edge29_Node000016_Node000007"><a xlink:title=" ">
<path fill="none" stroke="#63b8ff" d="M764.6,-175.99C680.87,-165.73 447.67,-137.06 431.25,-134.25 430.13,-134.06 428.98,-133.85 427.83,-133.64"/>
<polygon fill="#63b8ff" stroke="#63b8ff" points="428.82,-130.07 418.33,-131.59 427.47,-136.94 428.82,-130.07"/>
</a>
</g>
</g>
<!-- Node16&#45;&gt;Node8 -->
<g id="edge31_Node000016_Node000008" class="edge">
<title>Node16&#45;&gt;Node8</title>
<g id="a_edge31_Node000016_Node000008"><a xlink:title=" ">
<path fill="none" stroke="#63b8ff" d="M764.51,-170.46C670.44,-141.47 379.81,-51.91 281.3,-21.56"/>
<polygon fill="#63b8ff" stroke="#63b8ff" points="282.38,-17.92 271.79,-18.32 280.31,-24.61 282.38,-17.92"/>
</a>
</g>
</g>
<!-- Node17 -->
<g id="Node000017" class="node">
<title>Node17</title>
<g id="a_Node000017"><a xlink:title=" ">
<polygon fill="#e0e0e0" stroke="#999999" points="765.88,-134.25 714.63,-134.25 714.63,-113.5 765.88,-113.5 765.88,-134.25"/>
<text text-anchor="middle" x="740.25" y="-120.75" font-family="Helvetica,sans-Serif" font-size="10.00">TLine.h</text>
</a>
</g>
</g>
<!-- Node16&#45;&gt;Node17 -->
<g id="edge33_Node000016_Node000017" class="edge">
<title>Node16&#45;&gt;Node17</title>
<g id="a_edge33_Node000016_Node000017"><a xlink:title=" ">
<path fill="none" stroke="#63b8ff" d="M784.6,-169.84C777.08,-162.21 766.43,-151.42 757.46,-142.32"/>
<polygon fill="#63b8ff" stroke="#63b8ff" points="760.34,-140.24 750.83,-135.58 755.36,-145.16 760.34,-140.24"/>
</a>
</g>
</g>
<!-- Node18 -->
<g id="Node000018" class="node">
<title>Node18</title>
<g id="a_Node000018"><a xlink:title=" ">
<polygon fill="#e0e0e0" stroke="#999999" points="902.5,-20.75 738,-20.75 738,0 902.5,0 902.5,-20.75"/>
<text text-anchor="middle" x="820.25" y="-7.25" font-family="Helvetica,sans-Serif" font-size="10.00">Math/DisplacementVector3D.h</text>
</a>
</g>
</g>
<!-- Node16&#45;&gt;Node18 -->
<g id="edge35_Node000016_Node000018" class="edge">
<title>Node16&#45;&gt;Node18</title>
<g id="a_edge35_Node000016_Node000018"><a xlink:title=" ">
<path fill="none" stroke="#63b8ff" d="M795.73,-170.1C799.82,-143.62 811.4,-68.68 817.06,-32.05"/>
<polygon fill="#63b8ff" stroke="#63b8ff" points="820.67,-32.63 818.73,-22.22 813.75,-31.57 820.67,-32.63"/>
</a>
</g>
</g>
<!-- Node16&#45;&gt;Node19 -->
<g id="edge36_Node000016_Node000019" class="edge">
<title>Node16&#45;&gt;Node19</title>
<g id="a_edge36_Node000016_Node000019"><a xlink:title=" ">
<path fill="none" stroke="#63b8ff" d="M804.8,-169.84C813.11,-162.13 824.89,-151.2 834.76,-142.04"/>
<polygon fill="#63b8ff" stroke="#63b8ff" points="836.85,-144.95 841.8,-135.58 832.09,-139.82 836.85,-144.95"/>
</a>
</g>
</g>
<!-- Node16&#45;&gt;Node20 -->
<g id="edge45_Node000016_Node000020" class="edge">
<title>Node16&#45;&gt;Node20</title>
<g id="a_edge45_Node000016_Node000020"><a xlink:title=" ">
<path fill="none" stroke="#63b8ff" d="M823.72,-170.86C844.57,-163.57 872.27,-151.56 892.25,-134.25 907.25,-121.26 919.04,-101.8 926.45,-87.35"/>
<polygon fill="#63b8ff" stroke="#63b8ff" points="929.83,-89.4 931.06,-78.88 923.54,-86.34 929.83,-89.4"/>
</a>
</g>
</g>
<!-- Node19&#45;&gt;Node5 -->
<g id="edge37_Node000019_Node000005" class="edge">
<title>Node19&#45;&gt;Node5</title>
<g id="a_edge37_Node000019_Node000005"><a xlink:title=" ">
<path fill="none" stroke="#63b8ff" d="M835.42,-113.18C799.53,-93.65 718.36,-49.51 675.68,-26.29"/>
<polygon fill="#63b8ff" stroke="#63b8ff" points="677.65,-22.84 667.19,-21.13 674.31,-28.98 677.65,-22.84"/>
</a>
</g>
</g>
<!-- Node19&#45;&gt;Node18 -->
<g id="edge38_Node000019_Node000018" class="edge">
<title>Node19&#45;&gt;Node18</title>
<g id="a_edge38_Node000019_Node000018"><a xlink:title=" ">
<path fill="none" stroke="#63b8ff" d="M850.44,-113.37C845.11,-95.36 833.43,-55.89 826.26,-31.68"/>
<polygon fill="#63b8ff" stroke="#63b8ff" points="829.35,-30.77 823.16,-22.18 822.64,-32.76 829.35,-30.77"/>
</a>
</g>
</g>
<!-- Node19&#45;&gt;Node20 -->
<g id="edge39_Node000019_Node000020" class="edge">
<title>Node19&#45;&gt;Node20</title>
<g id="a_edge39_Node000019_Node000020"><a xlink:title=" ">
<path fill="none" stroke="#63b8ff" d="M867.91,-113.09C880.04,-104.99 897.5,-93.33 911.6,-83.92"/>
<polygon fill="#63b8ff" stroke="#63b8ff" points="913.35,-86.29 919.72,-77.83 909.46,-80.47 913.35,-86.29"/>
</a>
</g>
</g>
<!-- Node20&#45;&gt;Node5 -->
<g id="edge42_Node000020_Node000005" class="edge">
<title>Node20&#45;&gt;Node5</title>
<g id="a_edge42_Node000020_Node000005"><a xlink:title=" ">
<path fill="none" stroke="#63b8ff" d="M897.14,-58.85C849.51,-49.77 767.36,-34.1 710.54,-23.26"/>
<polygon fill="#63b8ff" stroke="#63b8ff" points="711.36,-19.66 700.88,-21.22 710.05,-26.54 711.36,-19.66"/>
</a>
</g>
</g>
<!-- Node20&#45;&gt;Node8 -->
<g id="edge40_Node000020_Node000008" class="edge">
<title>Node20&#45;&gt;Node8</title>
<g id="a_edge40_Node000020_Node000008"><a xlink:title=" ">
<path fill="none" stroke="#63b8ff" d="M897.34,-63.1C775.78,-53.42 397,-23.23 281.82,-14.05"/>
<polygon fill="#63b8ff" stroke="#63b8ff" points="282.15,-10.49 271.9,-13.18 281.59,-17.46 282.15,-10.49"/>
</a>
</g>
</g>
<!-- Node20&#45;&gt;Node12 -->
<g id="edge44_Node000020_Node000012" class="edge">
<title>Node20&#45;&gt;Node12</title>
<g id="a_edge44_Node000020_Node000012"><a xlink:title=" ">
<path fill="none" stroke="#63b8ff" d="M973.05,-60.11C1031.16,-50.86 1143.16,-33.04 1214.4,-21.7"/>
<polygon fill="#63b8ff" stroke="#63b8ff" points="1214.71,-25.03 1224.04,-20 1213.61,-18.12 1214.71,-25.03"/>
</a>
</g>
</g>
<!-- Node20&#45;&gt;Node18 -->
<g id="edge43_Node000020_Node000018" class="edge">
<title>Node20&#45;&gt;Node18</title>
<g id="a_edge43_Node000020_Node000018"><a xlink:title=" ">
<path fill="none" stroke="#63b8ff" d="M914.7,-56.34C896.79,-47.81 870.59,-35.34 850.33,-25.69"/>
<polygon fill="#63b8ff" stroke="#63b8ff" points="852.17,-22.22 841.64,-21.08 849.16,-28.54 852.17,-22.22"/>
</a>
</g>
</g>
<!-- Node21 -->
<g id="Node000021" class="node">
<title>Node21</title>
<g id="a_Node000021"><a xlink:title=" ">
<polygon fill="#e0e0e0" stroke="#999999" points="976.13,-20.75 920.38,-20.75 920.38,0 976.13,0 976.13,-20.75"/>
<text text-anchor="middle" x="948.25" y="-7.25" font-family="Helvetica,sans-Serif" font-size="10.00">optional</text>
</a>
</g>
</g>
<!-- Node20&#45;&gt;Node21 -->
<g id="edge41_Node000020_Node000021" class="edge">
<title>Node20&#45;&gt;Node21</title>
<g id="a_edge41_Node000020_Node000021"><a xlink:title=" ">
<path fill="none" stroke="#63b8ff" d="M937.58,-56.34C939.21,-49.49 941.44,-40.09 943.44,-31.65"/>
<polygon fill="#63b8ff" stroke="#63b8ff" points="947.05,-32.62 945.95,-22.08 940.24,-31 947.05,-32.62"/>
</a>
</g>
</g>
<!-- Node22&#45;&gt;Node2 -->
<g id="edge49_Node000022_Node000002" class="edge">
<title>Node22&#45;&gt;Node2</title>
<g id="a_edge49_Node000022_Node000002"><a xlink:title=" ">
<path fill="none" stroke="#63b8ff" d="M297.47,-340.02C276.39,-312.06 221.88,-230.41 253.25,-170.25 260.08,-157.15 272.61,-147.07 284.86,-139.76"/>
<polygon fill="#63b8ff" stroke="#63b8ff" points="286.4,-142.36 293.5,-134.5 283.05,-136.22 286.4,-142.36"/>
</a>
</g>
</g>
<!-- Node22&#45;&gt;Node7 -->
<g id="edge50_Node000022_Node000007" class="edge">
<title>Node22&#45;&gt;Node7</title>
<g id="a_edge50_Node000022_Node000007"><a xlink:title=" ">
<path fill="none" stroke="#63b8ff" d="M308.82,-340.21C321.38,-306.17 363.71,-191.4 380.91,-144.8"/>
<polygon fill="#63b8ff" stroke="#63b8ff" points="384.52,-146.1 384.7,-135.51 377.96,-143.68 384.52,-146.1"/>
</a>
</g>
</g>
<!-- Node22&#45;&gt;Node10 -->
<g id="edge51_Node000022_Node000010" class="edge">
<title>Node22&#45;&gt;Node10</title>
<g id="a_edge51_Node000022_Node000010"><a xlink:title=" ">
<path fill="none" stroke="#63b8ff" d="M351.02,-342.55C413.96,-332.47 526.98,-314.38 593.75,-303.69"/>
<polygon fill="#63b8ff" stroke="#63b8ff" points="594.13,-307.01 603.45,-301.98 593.02,-300.1 594.13,-307.01"/>
</a>
</g>
</g>
<!-- Node23&#45;&gt;Node24 -->
<g id="edge54_Node000023_Node000024" class="edge">
<title>Node23&#45;&gt;Node24</title>
<g id="a_edge54_Node000023_Node000024"><a xlink:title=" ">
<path fill="none" stroke="#63b8ff" d="M1175.18,-396.84C1170.68,-389.6 1164.42,-379.51 1158.96,-370.72"/>
<polygon fill="#63b8ff" stroke="#63b8ff" points="1161.53,-369.23 1153.28,-362.58 1155.58,-372.92 1161.53,-369.23"/>
</a>
</g>
</g>
<!-- Node24&#45;&gt;Node2 -->
<g id="edge55_Node000024_Node000002" class="edge">
<title>Node24&#45;&gt;Node2</title>
<g id="a_edge55_Node000024_Node000002"><a xlink:title=" ">
<path fill="none" stroke="#63b8ff" d="M1089.82,-349.84C953.99,-349.11 616.55,-343.31 511.25,-304.5 431.48,-275.09 414.23,-254.12 357.25,-191 344.59,-176.97 333.98,-158.18 327.05,-144.22"/>
<polygon fill="#63b8ff" stroke="#63b8ff" points="329.94,-143.17 322.48,-135.65 323.63,-146.18 329.94,-143.17"/>
</a>
</g>
</g>
<!-- Node24&#45;&gt;Node4 -->
<g id="edge57_Node000024_Node000004" class="edge">
<title>Node24&#45;&gt;Node4</title>
<g id="a_edge57_Node000024_Node000004"><a xlink:title=" ">
<path fill="none" stroke="#63b8ff" d="M1144.64,-340.11C1137.37,-313.06 1116.21,-234.86 1097.25,-170.25 1094.82,-161.96 1092.03,-152.85 1089.59,-144.98"/>
<polygon fill="#63b8ff" stroke="#63b8ff" points="1092.66,-144.09 1086.34,-135.59 1085.98,-146.18 1092.66,-144.09"/>
</a>
</g>
</g>
<!-- Node24&#45;&gt;Node7 -->
<g id="edge56_Node000024_Node000007" class="edge">
<title>Node24&#45;&gt;Node7</title>
<g id="a_edge56_Node000024_Node000007"><a xlink:title=" ">
<path fill="none" stroke="#63b8ff" d="M1089.8,-347.41C968.1,-341.82 687.9,-326.91 595.25,-304.5 531.2,-289 507.68,-291.35 458.25,-247.75 425.71,-219.04 404.74,-171.4 394.87,-144.66"/>
<polygon fill="#63b8ff" stroke="#63b8ff" points="397.95,-143.86 391.32,-135.59 391.35,-146.19 397.95,-143.86"/>
</a>
</g>
</g>
<!-- Node24&#45;&gt;Node9 -->
<g id="edge58_Node000024_Node000009" class="edge">
<title>Node24&#45;&gt;Node9</title>
<g id="a_edge58_Node000024_Node000009"><a xlink:title=" ">
<path fill="none" stroke="#63b8ff" d="M1138.14,-340.35C1112.03,-313.06 1036.68,-234.32 1002.94,-199.06"/>
<polygon fill="#63b8ff" stroke="#63b8ff" points="1006.12,-197.27 996.67,-192.47 1001.06,-202.11 1006.12,-197.27"/>
</a>
</g>
</g>
<!-- Node24&#45;&gt;Node10 -->
<g id="edge60_Node000024_Node000010" class="edge">
<title>Node24&#45;&gt;Node10</title>
<g id="a_edge60_Node000024_Node000010"><a xlink:title=" ">
<path fill="none" stroke="#63b8ff" d="M1089.9,-343.59C992.44,-332.92 795.86,-311.4 700.94,-301"/>
<polygon fill="#63b8ff" stroke="#63b8ff" points="701.48,-297.43 691.16,-299.82 700.72,-304.39 701.48,-297.43"/>
</a>
</g>
</g>
<!-- Node24&#45;&gt;Node12 -->
<g id="edge59_Node000024_Node000012" class="edge">
<title>Node24&#45;&gt;Node12</title>
<g id="a_edge59_Node000024_Node000012"><a xlink:title=" ">
<path fill="none" stroke="#63b8ff" d="M1167.38,-340.03C1183.04,-331.8 1204.79,-319.09 1221.25,-304.5 1265.43,-265.34 1275,-248.03 1290.25,-191 1305.76,-133.05 1319.2,-114.85 1304.25,-56.75 1301.89,-47.54 1297.21,-38.21 1292.54,-30.41"/>
<polygon fill="#63b8ff" stroke="#63b8ff" points="1294.96,-28.7 1286.59,-22.2 1289.08,-32.5 1294.96,-28.7"/>
</a>
</g>
</g>
<!-- Node24&#45;&gt;Node20 -->
<g id="edge61_Node000024_Node000020" class="edge">
<title>Node24&#45;&gt;Node20</title>
<g id="a_edge61_Node000024_Node000020"><a xlink:title=" ">
<path fill="none" stroke="#63b8ff" d="M1159.11,-340.04C1199.38,-305.48 1324.89,-187.79 1260.25,-113.5 1225.04,-73.03 1065.73,-67.55 983.98,-67.48"/>
<polygon fill="#63b8ff" stroke="#63b8ff" points="984.21,-63.98 974.22,-67.5 984.22,-70.98 984.21,-63.98"/>
</a>
</g>
</g>
<!-- Node25&#45;&gt;Node2 -->
<g id="edge65_Node000025_Node000002" class="edge">
<title>Node25&#45;&gt;Node2</title>
<g id="a_edge65_Node000025_Node000002"><a xlink:title=" ">
<path fill="none" stroke="#63b8ff" d="M1186.6,-178.02C1039.8,-170.81 444.38,-141.43 352.73,-133.63"/>
<polygon fill="#63b8ff" stroke="#63b8ff" points="353.19,-130.05 342.88,-132.46 352.45,-137.01 353.19,-130.05"/>
</a>
</g>
</g>
<!-- Node25&#45;&gt;Node4 -->
<g id="edge63_Node000025_Node000004" class="edge">
<title>Node25&#45;&gt;Node4</title>
<g id="a_edge63_Node000025_Node000004"><a xlink:title=" ">
<path fill="none" stroke="#63b8ff" d="M1194.94,-169.84C1172.84,-160.94 1140.08,-147.75 1115.74,-137.95"/>
<polygon fill="#63b8ff" stroke="#63b8ff" points="1117.14,-134.34 1106.56,-133.85 1114.52,-140.83 1117.14,-134.34"/>
</a>
</g>
</g>
<!-- Node26 -->
<g id="Node000026" class="node">
<title>Node26</title>
<g id="a_Node000026"><a xlink:title=" ">
<polygon fill="#e0e0e0" stroke="#999999" points="1251.5,-134.25 1159,-134.25 1159,-113.5 1251.5,-113.5 1251.5,-134.25"/>
<text text-anchor="middle" x="1205.25" y="-120.75" font-family="Helvetica,sans-Serif" font-size="10.00">unordered_map</text>
</a>
</g>
</g>
<!-- Node25&#45;&gt;Node26 -->
<g id="edge64_Node000025_Node000026" class="edge">
<title>Node25&#45;&gt;Node26</title>
<g id="a_edge64_Node000025_Node000026"><a xlink:title=" ">
<path fill="none" stroke="#63b8ff" d="M1216.75,-169.84C1215,-162.99 1212.6,-153.59 1210.44,-145.15"/>
<polygon fill="#63b8ff" stroke="#63b8ff" points="1213.6,-144.4 1207.74,-135.58 1206.82,-146.13 1213.6,-144.4"/>
</a>
</g>
</g>
</g>
</svg>
