<?xml version="1.0" encoding="UTF-8" standalone="no"?>
<!DOCTYPE svg PUBLIC "-//W3C//DTD SVG 1.1//EN"
 "http://www.w3.org/Graphics/SVG/1.1/DTD/svg11.dtd">
<!-- Generated by graphviz version 8.0.5 (20230430.1635)
 -->
<!-- Title: Particle Pages: 1 -->
<svg width="212pt" height="168pt"
 viewBox="0.00 0.00 211.50 167.75" xmlns="http://www.w3.org/2000/svg" xmlns:xlink="http://www.w3.org/1999/xlink">
<g id="graph0" class="graph" transform="scale(1 1) rotate(0) translate(4 163.75)">
<title>Particle</title>
<!-- Node1 -->
<g id="Node000001" class="node">
<title>Node1</title>
<g id="a_Node000001"><a xlink:title=" ">
<polygon fill="#999999" stroke="#666666" points="58.5,-20.75 6.5,-20.75 6.5,0 58.5,0 58.5,-20.75"/>
<text text-anchor="middle" x="32.5" y="-7.25" font-family="Helvetica,sans-Serif" font-size="10.00">Particle</text>
</a>
</g>
</g>
<!-- Node2 -->
<g id="Node000002" class="node">
<title>Node2</title>
<g id="a_Node000002"><a xlink:href="classARCVector.html" target="_top" xlink:title=" ">
<polygon fill="white" stroke="#666666" points="67,-159.75 0,-159.75 0,-139 67,-139 67,-159.75"/>
<text text-anchor="middle" x="33.5" y="-146.25" font-family="Helvetica,sans-Serif" font-size="10.00">ARCVector</text>
</a>
</g>
</g>
<!-- Node2&#45;&gt;Node1 -->
<g id="edge1_Node000001_Node000002" class="edge">
<title>Node2&#45;&gt;Node1</title>
<g id="a_edge1_Node000001_Node000002"><a xlink:title=" ">
<path fill="none" stroke="#9a32cd" stroke-dasharray="5,2" d="M29.97,-127.83C28.25,-116.74 26.36,-102.79 25.5,-90.25 23.79,-65.29 28.05,-35.95 30.65,-21.08"/>
<polygon fill="#9a32cd" stroke="#9a32cd" points="26.66,-128.24 31.73,-137.54 33.57,-127.11 26.66,-128.24"/>
</a>
</g>
<text text-anchor="middle" x="54" y="-76.75" font-family="Helvetica,sans-Serif" font-size="10.00" fill="grey"> m_Position</text>
</g>
<!-- Node3 -->
<g id="Node000003" class="node">
<title>Node3</title>
<g id="a_Node000003"><a xlink:href="classRadiatorCell.html" target="_top" xlink:title=" ">
<polygon fill="white" stroke="#666666" points="167.5,-90.25 91.5,-90.25 91.5,-69.5 167.5,-69.5 167.5,-90.25"/>
<text text-anchor="middle" x="129.5" y="-76.75" font-family="Helvetica,sans-Serif" font-size="10.00">RadiatorCell</text>
</a>
</g>
</g>
<!-- Node2&#45;&gt;Node3 -->
<g id="edge4_Node000003_Node000002" class="edge">
<title>Node2&#45;&gt;Node3</title>
<g id="a_edge4_Node000003_Node000002"><a xlink:title=" ">
<path fill="none" stroke="#9a32cd" stroke-dasharray="5,2" d="M41.12,-128.62C44.72,-121.41 49.64,-113.69 56,-108.25 66.03,-99.66 79.01,-93.65 91.27,-89.5"/>
<polygon fill="#9a32cd" stroke="#9a32cd" points="37.6,-126.94 36.79,-137.5 44.01,-129.75 37.6,-126.94"/>
</a>
</g>
<text text-anchor="middle" x="96.25" y="-111.5" font-family="Helvetica,sans-Serif" font-size="10.00" fill="grey"> m_MirrorCentre</text>
</g>
<!-- Node3&#45;&gt;Node1 -->
<g id="edge2_Node000001_Node000003" class="edge">
<title>Node3&#45;&gt;Node1</title>
<g id="a_edge2_Node000001_Node000003"><a xlink:title=" ">
<path fill="none" stroke="#9a32cd" stroke-dasharray="5,2" d="M106.62,-62.95C88.04,-50.02 62.42,-32.2 46.69,-21.25"/>
<polygon fill="#9a32cd" stroke="#9a32cd" points="104.39,-66.36 114.6,-69.2 108.39,-60.62 104.39,-66.36"/>
</a>
</g>
<text text-anchor="middle" x="129.5" y="-42" font-family="Helvetica,sans-Serif" font-size="10.00" fill="grey"> m_RadiatorCell</text>
</g>
<!-- Node4 -->
<g id="Node000004" class="node">
<title>Node4</title>
<g id="a_Node000004"><a xlink:href="classSiPM.html" target="_top" xlink:title=" ">
<polygon fill="white" stroke="#666666" points="172.5,-159.75 132.5,-159.75 132.5,-139 172.5,-139 172.5,-159.75"/>
<text text-anchor="middle" x="152.5" y="-146.25" font-family="Helvetica,sans-Serif" font-size="10.00">SiPM</text>
</a>
</g>
</g>
<!-- Node4&#45;&gt;Node3 -->
<g id="edge3_Node000003_Node000004" class="edge">
<title>Node4&#45;&gt;Node3</title>
<g id="a_edge3_Node000003_Node000004"><a xlink:title=" ">
<path fill="none" stroke="#9a32cd" stroke-dasharray="5,2" d="M145.67,-128.33C141.42,-115.85 136.13,-100.35 132.79,-90.53"/>
<polygon fill="#9a32cd" stroke="#9a32cd" points="142.67,-129.37 149.2,-137.7 149.29,-127.11 142.67,-129.37"/>
</a>
</g>
<text text-anchor="middle" x="173.5" y="-111.5" font-family="Helvetica,sans-Serif" font-size="10.00" fill="grey"> m_Detector</text>
</g>
</g>
</svg>
