<?xml version="1.0" encoding="UTF-8" standalone="no"?>
<!DOCTYPE svg PUBLIC "-//W3C//DTD SVG 1.1//EN"
 "http://www.w3.org/Graphics/SVG/1.1/DTD/svg11.dtd">
<!-- Generated by graphviz version 8.0.5 (20230430.1635)
 -->
<!-- Title: BarrelRadiatorCell Pages: 1 -->
<svg width="176pt" height="156pt"
 viewBox="0.00 0.00 175.50 156.00" xmlns="http://www.w3.org/2000/svg" xmlns:xlink="http://www.w3.org/1999/xlink">
<g id="graph0" class="graph" transform="scale(1 1) rotate(0) translate(4 152)">
<title>BarrelRadiatorCell</title>
<!-- Node1 -->
<g id="Node000001" class="node">
<title>Node1</title>
<g id="a_Node000001"><a xlink:title=" ">
<polygon fill="#999999" stroke="#666666" points="113.62,-20.75 8.38,-20.75 8.38,0 113.62,0 113.62,-20.75"/>
<text text-anchor="middle" x="61" y="-7.25" font-family="Helvetica,sans-Serif" font-size="10.00">BarrelRadiatorCell</text>
</a>
</g>
</g>
<!-- Node2 -->
<g id="Node000002" class="node">
<title>Node2</title>
<g id="a_Node000002"><a xlink:href="classRadiatorCell.html" target="_top" xlink:title=" ">
<polygon fill="white" stroke="#666666" points="99,-78.5 23,-78.5 23,-57.75 99,-57.75 99,-78.5"/>
<text text-anchor="middle" x="61" y="-65" font-family="Helvetica,sans-Serif" font-size="10.00">RadiatorCell</text>
</a>
</g>
</g>
<!-- Node2&#45;&gt;Node1 -->
<g id="edge1_Node000001_Node000002" class="edge">
<title>Node2&#45;&gt;Node1</title>
<g id="a_edge1_Node000001_Node000002"><a xlink:title=" ">
<path fill="none" stroke="#63b8ff" d="M61,-46.48C61,-37.74 61,-27.98 61,-20.97"/>
<polygon fill="#63b8ff" stroke="#63b8ff" points="57.5,-46.41 61,-56.41 64.5,-46.41 57.5,-46.41"/>
</a>
</g>
</g>
<!-- Node3 -->
<g id="Node000003" class="node">
<title>Node3</title>
<g id="a_Node000003"><a xlink:href="classSiPM.html" target="_top" xlink:title=" ">
<polygon fill="white" stroke="#666666" points="40,-148 0,-148 0,-127.25 40,-127.25 40,-148"/>
<text text-anchor="middle" x="20" y="-134.5" font-family="Helvetica,sans-Serif" font-size="10.00">SiPM</text>
</a>
</g>
</g>
<!-- Node3&#45;&gt;Node2 -->
<g id="edge2_Node000002_Node000003" class="edge">
<title>Node3&#45;&gt;Node2</title>
<g id="a_edge2_Node000002_Node000003"><a xlink:title=" ">
<path fill="none" stroke="#9a32cd" stroke-dasharray="5,2" d="M16.94,-116.14C16.86,-109.53 17.8,-102.39 21,-96.5 25.02,-89.11 32,-83.31 39.02,-79"/>
<polygon fill="#9a32cd" stroke="#9a32cd" points="13.54,-116.43 17.91,-126.08 20.51,-115.81 13.54,-116.43"/>
</a>
</g>
<text text-anchor="middle" x="51" y="-99.75" font-family="Helvetica,sans-Serif" font-size="10.00" fill="grey"> m_Detector</text>
</g>
<!-- Node4 -->
<g id="Node000004" class="node">
<title>Node4</title>
<g id="a_Node000004"><a xlink:href="classARCVector.html" target="_top" xlink:title=" ">
<polygon fill="white" stroke="#666666" points="136.5,-148 69.5,-148 69.5,-127.25 136.5,-127.25 136.5,-148"/>
<text text-anchor="middle" x="103" y="-134.5" font-family="Helvetica,sans-Serif" font-size="10.00">ARCVector</text>
</a>
</g>
</g>
<!-- Node4&#45;&gt;Node2 -->
<g id="edge3_Node000002_Node000004" class="edge">
<title>Node4&#45;&gt;Node2</title>
<g id="a_edge3_Node000002_Node000004"><a xlink:title=" ">
<path fill="none" stroke="#9a32cd" stroke-dasharray="5,2" d="M93.02,-117.24C89.42,-110.56 85.2,-103.1 81,-96.5 77.15,-90.44 72.42,-83.94 68.54,-78.79"/>
<polygon fill="#9a32cd" stroke="#9a32cd" points="90.34,-118.64 98.1,-125.86 96.53,-115.38 90.34,-118.64"/>
</a>
</g>
<text text-anchor="middle" x="127.75" y="-99.75" font-family="Helvetica,sans-Serif" font-size="10.00" fill="grey"> m_MirrorCentre</text>
</g>
</g>
</svg>
