<?xml version="1.0" encoding="UTF-8" standalone="no"?>
<!DOCTYPE svg PUBLIC "-//W3C//DTD SVG 1.1//EN"
 "http://www.w3.org/Graphics/SVG/1.1/DTD/svg11.dtd">
<!-- Generated by graphviz version 8.0.5 (20230430.1635)
 -->
<!-- Title: include/DifferentialEvolution.h Pages: 1 -->
<svg width="334pt" height="142pt"
 viewBox="0.00 0.00 334.00 142.25" xmlns="http://www.w3.org/2000/svg" xmlns:xlink="http://www.w3.org/1999/xlink">
<g id="graph0" class="graph" transform="scale(1 1) rotate(0) translate(4 138.25)">
<title>include/DifferentialEvolution.h</title>
<!-- Node1 -->
<g id="Node000001" class="node">
<title>Node1</title>
<g id="a_Node000001"><a xlink:title=" ">
<polygon fill="#999999" stroke="#666666" points="278.12,-134.25 114.38,-134.25 114.38,-113.5 278.12,-113.5 278.12,-134.25"/>
<text text-anchor="middle" x="196.25" y="-120.75" font-family="Helvetica,sans-Serif" font-size="10.00">include/DifferentialEvolution.h</text>
</a>
</g>
</g>
<!-- Node2 -->
<g id="Node000002" class="node">
<title>Node2</title>
<g id="a_Node000002"><a xlink:href="ResolutionOptimizable_8h.html" target="_top" xlink:title=" ">
<polygon fill="white" stroke="#666666" points="226.38,-77.5 52.12,-77.5 52.12,-56.75 226.38,-56.75 226.38,-77.5"/>
<text text-anchor="middle" x="139.25" y="-64" font-family="Helvetica,sans-Serif" font-size="10.00">include/ResolutionOptimizable.h</text>
</a>
</g>
</g>
<!-- Node1&#45;&gt;Node2 -->
<g id="edge1_Node000001_Node000002" class="edge">
<title>Node1&#45;&gt;Node2</title>
<g id="a_edge1_Node000001_Node000002"><a xlink:title=" ">
<path fill="none" stroke="#63b8ff" d="M178.27,-105.61C168.73,-96.44 157.35,-85.51 149.35,-77.83"/>
<polygon fill="#63b8ff" stroke="#63b8ff" points="175.42,-107.68 185.06,-112.09 180.27,-102.64 175.42,-107.68"/>
</a>
</g>
</g>
<!-- Node4 -->
<g id="Node000004" class="node">
<title>Node4</title>
<g id="a_Node000004"><a xlink:href="ResolutionUtilities_8cpp.html" target="_top" xlink:title=" ">
<polygon fill="white" stroke="#666666" points="326,-20.75 182.5,-20.75 182.5,0 326,0 326,-20.75"/>
<text text-anchor="middle" x="254.25" y="-7.25" font-family="Helvetica,sans-Serif" font-size="10.00">src/ResolutionUtilities.cpp</text>
</a>
</g>
</g>
<!-- Node1&#45;&gt;Node4 -->
<g id="edge4_Node000001_Node000004" class="edge">
<title>Node1&#45;&gt;Node4</title>
<g id="a_edge4_Node000001_Node000004"><a xlink:title=" ">
<path fill="none" stroke="#63b8ff" d="M214.51,-105.28C221.84,-97.37 229.82,-87.57 235.25,-77.5 245.35,-58.79 250.59,-34.13 252.85,-20.84"/>
<polygon fill="#63b8ff" stroke="#63b8ff" points="212.43,-102.42 207.97,-112.03 217.45,-107.31 212.43,-102.42"/>
</a>
</g>
</g>
<!-- Node3 -->
<g id="Node000003" class="node">
<title>Node3</title>
<g id="a_Node000003"><a xlink:href="ResolutionOptimizable_8cpp.html" target="_top" xlink:title=" ">
<polygon fill="white" stroke="#666666" points="164.5,-20.75 0,-20.75 0,0 164.5,0 164.5,-20.75"/>
<text text-anchor="middle" x="82.25" y="-7.25" font-family="Helvetica,sans-Serif" font-size="10.00">src/ResolutionOptimizable.cpp</text>
</a>
</g>
</g>
<!-- Node2&#45;&gt;Node3 -->
<g id="edge2_Node000002_Node000003" class="edge">
<title>Node2&#45;&gt;Node3</title>
<g id="a_edge2_Node000002_Node000003"><a xlink:title=" ">
<path fill="none" stroke="#63b8ff" d="M121.27,-48.86C111.73,-39.69 100.35,-28.76 92.35,-21.08"/>
<polygon fill="#63b8ff" stroke="#63b8ff" points="118.42,-50.93 128.06,-55.34 123.27,-45.89 118.42,-50.93"/>
</a>
</g>
</g>
<!-- Node2&#45;&gt;Node4 -->
<g id="edge3_Node000002_Node000004" class="edge">
<title>Node2&#45;&gt;Node4</title>
<g id="a_edge3_Node000002_Node000004"><a xlink:title=" ">
<path fill="none" stroke="#63b8ff" d="M169.53,-51.71C189.83,-42.05 216.02,-29.58 233.87,-21.08"/>
<polygon fill="#63b8ff" stroke="#63b8ff" points="168.33,-48.88 160.81,-56.34 171.34,-55.2 168.33,-48.88"/>
</a>
</g>
</g>
</g>
</svg>
