<?xml version="1.0" encoding="UTF-8" standalone="no"?>
<!DOCTYPE svg PUBLIC "-//W3C//DTD SVG 1.1//EN"
 "http://www.w3.org/Graphics/SVG/1.1/DTD/svg11.dtd">
<!-- Generated by graphviz version 8.0.5 (20230430.1635)
 -->
<!-- Title: src/HalfRadiatorCell.cpp Pages: 1 -->
<svg width="1181pt" height="483pt"
 viewBox="0.00 0.00 1180.62 482.75" xmlns="http://www.w3.org/2000/svg" xmlns:xlink="http://www.w3.org/1999/xlink">
<g id="graph0" class="graph" transform="scale(1 1) rotate(0) translate(4 478.75)">
<title>src/HalfRadiatorCell.cpp</title>
<!-- Node1 -->
<g id="Node000001" class="node">
<title>Node1</title>
<g id="a_Node000001"><a xlink:title=" ">
<polygon fill="#999999" stroke="#666666" points="178.88,-474.75 45.12,-474.75 45.12,-454 178.88,-454 178.88,-474.75"/>
<text text-anchor="middle" x="112" y="-461.25" font-family="Helvetica,sans-Serif" font-size="10.00">src/HalfRadiatorCell.cpp</text>
</a>
</g>
</g>
<!-- Node2 -->
<g id="Node000002" class="node">
<title>Node2</title>
<g id="a_Node000002"><a xlink:title=" ">
<polygon fill="#e0e0e0" stroke="#999999" points="46,-418 0,-418 0,-397.25 46,-397.25 46,-418"/>
<text text-anchor="middle" x="23" y="-404.5" font-family="Helvetica,sans-Serif" font-size="10.00">TArc.h</text>
</a>
</g>
</g>
<!-- Node1&#45;&gt;Node2 -->
<g id="edge1_Node000001_Node000002" class="edge">
<title>Node1&#45;&gt;Node2</title>
<g id="a_edge1_Node000001_Node000002"><a xlink:title=" ">
<path fill="none" stroke="#63b8ff" d="M96.09,-453.59C82.67,-445.33 63.25,-433.38 47.79,-423.88"/>
<polygon fill="#63b8ff" stroke="#63b8ff" points="50.12,-420.59 39.77,-418.33 46.46,-426.55 50.12,-420.59"/>
</a>
</g>
</g>
<!-- Node3 -->
<g id="Node000003" class="node">
<title>Node3</title>
<g id="a_Node000003"><a xlink:title=" ">
<polygon fill="#e0e0e0" stroke="#999999" points="354.38,-247.75 253.62,-247.75 253.62,-227 354.38,-227 354.38,-247.75"/>
<text text-anchor="middle" x="304" y="-234.25" font-family="Helvetica,sans-Serif" font-size="10.00">Math/RotationZ.h</text>
</a>
</g>
</g>
<!-- Node1&#45;&gt;Node3 -->
<g id="edge2_Node000001_Node000003" class="edge">
<title>Node1&#45;&gt;Node3</title>
<g id="a_edge2_Node000001_Node000003"><a xlink:title=" ">
<path fill="none" stroke="#63b8ff" d="M106.33,-453.92C99.15,-440.64 88.78,-415.99 98,-397.25 134,-324.03 221.77,-275.03 270.32,-252.53"/>
<polygon fill="#63b8ff" stroke="#63b8ff" points="271.38,-255.44 279.05,-248.14 268.5,-249.06 271.38,-255.44"/>
</a>
</g>
</g>
<!-- Node4 -->
<g id="Node000004" class="node">
<title>Node4</title>
<g id="a_Node000004"><a xlink:title=" ">
<polygon fill="#e0e0e0" stroke="#999999" points="1172.62,-134.25 1121.38,-134.25 1121.38,-113.5 1172.62,-113.5 1172.62,-134.25"/>
<text text-anchor="middle" x="1147" y="-120.75" font-family="Helvetica,sans-Serif" font-size="10.00">TLine.h</text>
</a>
</g>
</g>
<!-- Node1&#45;&gt;Node4 -->
<g id="edge3_Node000001_Node000004" class="edge">
<title>Node1&#45;&gt;Node4</title>
<g id="a_edge3_Node000001_Node000004"><a xlink:title=" ">
<path fill="none" stroke="#63b8ff" d="M178.99,-463.16C407.02,-461.53 1139,-448.78 1139,-351.88 1139,-351.88 1139,-351.88 1139,-236.38 1139,-204.61 1142.27,-167.88 1144.63,-145.52"/>
<polygon fill="#63b8ff" stroke="#63b8ff" points="1148.21,-146.02 1145.82,-135.7 1141.25,-145.26 1148.21,-146.02"/>
</a>
</g>
</g>
<!-- Node5 -->
<g id="Node000005" class="node">
<title>Node5</title>
<g id="a_Node000005"><a xlink:href="HalfRadiatorCell_8h.html" target="_top" xlink:title=" ">
<polygon fill="white" stroke="#666666" points="326.62,-418 221.38,-418 221.38,-397.25 326.62,-397.25 326.62,-418"/>
<text text-anchor="middle" x="274" y="-404.5" font-family="Helvetica,sans-Serif" font-size="10.00">HalfRadiatorCell.h</text>
</a>
</g>
</g>
<!-- Node1&#45;&gt;Node5 -->
<g id="edge4_Node000001_Node000005" class="edge">
<title>Node1&#45;&gt;Node5</title>
<g id="a_edge4_Node000001_Node000005"><a xlink:title=" ">
<path fill="none" stroke="#63b8ff" d="M140.96,-453.59C167.14,-444.74 205.9,-431.64 234.84,-421.86"/>
<polygon fill="#63b8ff" stroke="#63b8ff" points="235.66,-424.94 244.02,-418.42 233.42,-418.31 235.66,-424.94"/>
</a>
</g>
</g>
<!-- Node23 -->
<g id="Node000023" class="node">
<title>Node23</title>
<g id="a_Node000023"><a xlink:href="Settings_8h.html" target="_top" xlink:title=" ">
<polygon fill="white" stroke="#666666" points="356.38,-191 291.62,-191 291.62,-170.25 356.38,-170.25 356.38,-191"/>
<text text-anchor="middle" x="324" y="-177.5" font-family="Helvetica,sans-Serif" font-size="10.00">Settings.h</text>
</a>
</g>
</g>
<!-- Node1&#45;&gt;Node23 -->
<g id="edge48_Node000001_Node000023" class="edge">
<title>Node1&#45;&gt;Node23</title>
<g id="a_edge48_Node000001_Node000023"><a xlink:title=" ">
<path fill="none" stroke="#63b8ff" d="M114.38,-453.95C123.55,-419.3 159.74,-297.38 231,-227 245.21,-212.96 264.62,-202.56 282.03,-195.28"/>
<polygon fill="#63b8ff" stroke="#63b8ff" points="282.98,-198.28 291,-191.36 280.41,-191.77 282.98,-198.28"/>
</a>
</g>
</g>
<!-- Node6 -->
<g id="Node000006" class="node">
<title>Node6</title>
<g id="a_Node000006"><a xlink:href="BarrelRadiatorCell_8h.html" target="_top" xlink:title=" ">
<polygon fill="white" stroke="#666666" points="519.12,-361.25 404.88,-361.25 404.88,-340.5 519.12,-340.5 519.12,-361.25"/>
<text text-anchor="middle" x="462" y="-347.75" font-family="Helvetica,sans-Serif" font-size="10.00">BarrelRadiatorCell.h</text>
</a>
</g>
</g>
<!-- Node5&#45;&gt;Node6 -->
<g id="edge5_Node000005_Node000006" class="edge">
<title>Node5&#45;&gt;Node6</title>
<g id="a_edge5_Node000005_Node000006"><a xlink:title=" ">
<path fill="none" stroke="#63b8ff" d="M307.61,-396.84C338.39,-387.87 384.16,-374.54 417.87,-364.73"/>
<polygon fill="#63b8ff" stroke="#63b8ff" points="418.74,-367.83 427.36,-361.67 416.78,-361.11 418.74,-367.83"/>
</a>
</g>
</g>
<!-- Node7 -->
<g id="Node000007" class="node">
<title>Node7</title>
<g id="a_Node000007"><a xlink:title=" ">
<polygon fill="#e0e0e0" stroke="#999999" points="773.38,-134.25 726.62,-134.25 726.62,-113.5 773.38,-113.5 773.38,-134.25"/>
<text text-anchor="middle" x="750" y="-120.75" font-family="Helvetica,sans-Serif" font-size="10.00">vector</text>
</a>
</g>
</g>
<!-- Node6&#45;&gt;Node7 -->
<g id="edge6_Node000006_Node000007" class="edge">
<title>Node6&#45;&gt;Node7</title>
<g id="a_edge6_Node000006_Node000007"><a xlink:title=" ">
<path fill="none" stroke="#63b8ff" d="M519.56,-340.31C639.24,-319.12 908.12,-264.21 960,-191 965.33,-183.48 965.79,-177.43 960,-170.25 938.29,-143.35 837.97,-131.62 784.22,-127.19"/>
<polygon fill="#63b8ff" stroke="#63b8ff" points="784.75,-123.64 774.51,-126.35 784.2,-130.62 784.75,-123.64"/>
</a>
</g>
</g>
<!-- Node8 -->
<g id="Node000008" class="node">
<title>Node8</title>
<g id="a_Node000008"><a xlink:title=" ">
<polygon fill="#e0e0e0" stroke="#999999" points="948.62,-134.25 891.38,-134.25 891.38,-113.5 948.62,-113.5 948.62,-134.25"/>
<text text-anchor="middle" x="920" y="-120.75" font-family="Helvetica,sans-Serif" font-size="10.00">memory</text>
</a>
</g>
</g>
<!-- Node6&#45;&gt;Node8 -->
<g id="edge7_Node000006_Node000008" class="edge">
<title>Node6&#45;&gt;Node8</title>
<g id="a_edge7_Node000006_Node000008"><a xlink:title=" ">
<path fill="none" stroke="#63b8ff" d="M519.39,-347.21C608.29,-340.87 782.23,-319.52 909,-247.75 942.96,-228.52 959.59,-226.41 976,-191 985.15,-171.27 966.1,-152.73 947.79,-140.34"/>
<polygon fill="#63b8ff" stroke="#63b8ff" points="950.04,-136.98 939.71,-134.6 946.3,-142.9 950.04,-136.98"/>
</a>
</g>
</g>
<!-- Node9 -->
<g id="Node000009" class="node">
<title>Node9</title>
<g id="a_Node000009"><a xlink:title=" ">
<polygon fill="#e0e0e0" stroke="#999999" points="438.88,-134.25 395.12,-134.25 395.12,-113.5 438.88,-113.5 438.88,-134.25"/>
<text text-anchor="middle" x="417" y="-120.75" font-family="Helvetica,sans-Serif" font-size="10.00">string</text>
</a>
</g>
</g>
<!-- Node6&#45;&gt;Node9 -->
<g id="edge8_Node000006_Node000009" class="edge">
<title>Node6&#45;&gt;Node9</title>
<g id="a_edge8_Node000006_Node000009"><a xlink:title=" ">
<path fill="none" stroke="#63b8ff" d="M404.47,-340.41C352.77,-328.52 279.8,-302.59 245,-247.75 203.35,-182.11 282.35,-247.29 365,-191 382.85,-178.84 397.43,-158.67 406.56,-143.79"/>
<polygon fill="#63b8ff" stroke="#63b8ff" points="409.96,-145.91 411.98,-135.51 403.92,-142.38 409.96,-145.91"/>
</a>
</g>
</g>
<!-- Node10 -->
<g id="Node000010" class="node">
<title>Node10</title>
<g id="a_Node000010"><a xlink:title=" ">
<polygon fill="#e0e0e0" stroke="#999999" points="951.25,-191 888.75,-191 888.75,-170.25 951.25,-170.25 951.25,-191"/>
<text text-anchor="middle" x="920" y="-177.5" font-family="Helvetica,sans-Serif" font-size="10.00">TObject.h</text>
</a>
</g>
</g>
<!-- Node6&#45;&gt;Node10 -->
<g id="edge9_Node000006_Node000010" class="edge">
<title>Node6&#45;&gt;Node10</title>
<g id="a_edge9_Node000006_Node000010"><a xlink:title=" ">
<path fill="none" stroke="#63b8ff" d="M490.87,-340.04C517.63,-330.91 558.54,-316.88 594,-304.5 665.23,-279.62 683.38,-274.33 754,-247.75 799.98,-230.45 852.59,-209.25 886.04,-195.59"/>
<polygon fill="#63b8ff" stroke="#63b8ff" points="887.27,-198.47 895.2,-191.44 884.61,-191.99 887.27,-198.47"/>
</a>
</g>
</g>
<!-- Node11 -->
<g id="Node000011" class="node">
<title>Node11</title>
<g id="a_Node000011"><a xlink:title=" ">
<polygon fill="#e0e0e0" stroke="#999999" points="234.75,-20.75 127.25,-20.75 127.25,0 234.75,0 234.75,-20.75"/>
<text text-anchor="middle" x="181" y="-7.25" font-family="Helvetica,sans-Serif" font-size="10.00">Math/Rotation3D.h</text>
</a>
</g>
</g>
<!-- Node6&#45;&gt;Node11 -->
<g id="edge10_Node000006_Node000011" class="edge">
<title>Node6&#45;&gt;Node11</title>
<g id="a_edge10_Node000006_Node000011"><a xlink:title=" ">
<path fill="none" stroke="#63b8ff" d="M404.6,-347.66C305.3,-340.44 112,-309.89 112,-181.62 112,-181.62 112,-181.62 112,-122.88 112,-84.86 141.36,-49 161.78,-28.65"/>
<polygon fill="#63b8ff" stroke="#63b8ff" points="163.8,-31.6 168.61,-22.16 158.96,-26.55 163.8,-31.6"/>
</a>
</g>
</g>
<!-- Node12 -->
<g id="Node000012" class="node">
<title>Node12</title>
<g id="a_Node000012"><a xlink:href="RadiatorCell_8h.html" target="_top" xlink:title=" ">
<polygon fill="white" stroke="#666666" points="584.5,-304.5 499.5,-304.5 499.5,-283.75 584.5,-283.75 584.5,-304.5"/>
<text text-anchor="middle" x="542" y="-291" font-family="Helvetica,sans-Serif" font-size="10.00">RadiatorCell.h</text>
</a>
</g>
</g>
<!-- Node6&#45;&gt;Node12 -->
<g id="edge11_Node000006_Node000012" class="edge">
<title>Node6&#45;&gt;Node12</title>
<g id="a_edge11_Node000006_Node000012"><a xlink:title=" ">
<path fill="none" stroke="#63b8ff" d="M476.3,-340.09C488.13,-331.99 505.17,-320.33 518.92,-310.92"/>
<polygon fill="#63b8ff" stroke="#63b8ff" points="520.55,-313.36 526.82,-304.83 516.59,-307.59 520.55,-313.36"/>
</a>
</g>
</g>
<!-- Node21 -->
<g id="Node000021" class="node">
<title>Node21</title>
<g id="a_Node000021"><a xlink:href="ARCVector_8h.html" target="_top" xlink:title=" ">
<polygon fill="white" stroke="#666666" points="570.62,-77.5 495.38,-77.5 495.38,-56.75 570.62,-56.75 570.62,-77.5"/>
<text text-anchor="middle" x="533" y="-64" font-family="Helvetica,sans-Serif" font-size="10.00">ARCVector.h</text>
</a>
</g>
</g>
<!-- Node6&#45;&gt;Node21 -->
<g id="edge47_Node000006_Node000021" class="edge">
<title>Node6&#45;&gt;Node21</title>
<g id="a_edge47_Node000006_Node000021"><a xlink:title=" ">
<path fill="none" stroke="#63b8ff" d="M404.65,-344.47C331.46,-334.32 215.96,-305.75 231,-227 241.18,-173.7 233.94,-147.79 276,-113.5 307.16,-88.09 418.64,-76.1 484.1,-71.14"/>
<polygon fill="#63b8ff" stroke="#63b8ff" points="484.25,-74.57 493.97,-70.35 483.74,-67.59 484.25,-74.57"/>
</a>
</g>
</g>
<!-- Node12&#45;&gt;Node3 -->
<g id="edge19_Node000012_Node000003" class="edge">
<title>Node12&#45;&gt;Node3</title>
<g id="a_edge19_Node000012_Node000003"><a xlink:title=" ">
<path fill="none" stroke="#63b8ff" d="M499.18,-283.27C459.45,-274.13 400.18,-260.5 357.39,-250.66"/>
<polygon fill="#63b8ff" stroke="#63b8ff" points="358.41,-247.07 347.88,-248.24 356.84,-253.89 358.41,-247.07"/>
</a>
</g>
</g>
<!-- Node12&#45;&gt;Node7 -->
<g id="edge13_Node000012_Node000007" class="edge">
<title>Node12&#45;&gt;Node7</title>
<g id="a_edge13_Node000012_Node000007"><a xlink:title=" ">
<path fill="none" stroke="#63b8ff" d="M584.74,-288.43C634.86,-282.02 713.72,-268.87 734,-247.75 760.35,-220.31 757.93,-172.15 753.92,-144.99"/>
<polygon fill="#63b8ff" stroke="#63b8ff" points="757.25,-144.71 752.12,-135.44 750.35,-145.89 757.25,-144.71"/>
</a>
</g>
</g>
<!-- Node12&#45;&gt;Node8 -->
<g id="edge15_Node000012_Node000008" class="edge">
<title>Node12&#45;&gt;Node8</title>
<g id="a_edge15_Node000012_Node000008"><a xlink:title=" ">
<path fill="none" stroke="#63b8ff" d="M584.93,-289.31C682.19,-279.69 914.45,-250.8 960,-191 972.07,-175.15 956.68,-155.44 941.62,-141.68"/>
<polygon fill="#63b8ff" stroke="#63b8ff" points="944.35,-138.55 934.47,-134.71 939.8,-143.87 944.35,-138.55"/>
</a>
</g>
</g>
<!-- Node12&#45;&gt;Node9 -->
<g id="edge12_Node000012_Node000009" class="edge">
<title>Node12&#45;&gt;Node9</title>
<g id="a_edge12_Node000012_Node000009"><a xlink:title=" ">
<path fill="none" stroke="#63b8ff" d="M522.96,-283.32C508.84,-275.28 489.88,-262.81 477,-247.75 450.1,-216.31 432.01,-170.72 423.21,-144.82"/>
<polygon fill="#63b8ff" stroke="#63b8ff" points="426.25,-143.85 419.82,-135.43 419.6,-146.02 426.25,-143.85"/>
</a>
</g>
</g>
<!-- Node12&#45;&gt;Node11 -->
<g id="edge18_Node000012_Node000011" class="edge">
<title>Node12&#45;&gt;Node11</title>
<g id="a_edge18_Node000012_Node000011"><a xlink:title=" ">
<path fill="none" stroke="#63b8ff" d="M500.35,-283.27C470.55,-275.49 429.88,-263.34 396,-247.75 380.26,-240.51 378.54,-234.67 363,-227 321.76,-206.65 299.89,-222.08 266,-191 217.36,-146.4 193.95,-68.15 185.22,-31.45"/>
<polygon fill="#63b8ff" stroke="#63b8ff" points="188.5,-31.08 182.89,-22.09 181.67,-32.61 188.5,-31.08"/>
</a>
</g>
</g>
<!-- Node13 -->
<g id="Node000013" class="node">
<title>Node13</title>
<g id="a_Node000013"><a xlink:title=" ">
<polygon fill="#e0e0e0" stroke="#999999" points="454.25,-20.75 409.75,-20.75 409.75,0 454.25,0 454.25,-20.75"/>
<text text-anchor="middle" x="432" y="-7.25" font-family="Helvetica,sans-Serif" font-size="10.00">utility</text>
</a>
</g>
</g>
<!-- Node12&#45;&gt;Node13 -->
<g id="edge14_Node000012_Node000013" class="edge">
<title>Node12&#45;&gt;Node13</title>
<g id="a_edge14_Node000012_Node000013"><a xlink:title=" ">
<path fill="none" stroke="#63b8ff" d="M522.47,-283.4C494.76,-269.79 442.23,-244.76 396,-227 346.8,-208.09 316.66,-231.57 283,-191 260.92,-164.38 259.55,-143.92 276,-113.5 302.1,-65.22 362.06,-36.09 399.58,-21.93"/>
<polygon fill="#63b8ff" stroke="#63b8ff" points="400.31,-25.02 408.52,-18.33 397.93,-18.44 400.31,-25.02"/>
</a>
</g>
</g>
<!-- Node14 -->
<g id="Node000014" class="node">
<title>Node14</title>
<g id="a_Node000014"><a xlink:title=" ">
<polygon fill="#e0e0e0" stroke="#999999" points="541.88,-247.75 486.12,-247.75 486.12,-227 541.88,-227 541.88,-247.75"/>
<text text-anchor="middle" x="514" y="-234.25" font-family="Helvetica,sans-Serif" font-size="10.00">TMath.h</text>
</a>
</g>
</g>
<!-- Node12&#45;&gt;Node14 -->
<g id="edge16_Node000012_Node000014" class="edge">
<title>Node12&#45;&gt;Node14</title>
<g id="a_edge16_Node000012_Node000014"><a xlink:title=" ">
<path fill="none" stroke="#63b8ff" d="M536.99,-283.34C533.37,-276.25 528.35,-266.44 523.93,-257.79"/>
<polygon fill="#63b8ff" stroke="#63b8ff" points="526.63,-256.39 518.96,-249.08 520.4,-259.58 526.63,-256.39"/>
</a>
</g>
</g>
<!-- Node15 -->
<g id="Node000015" class="node">
<title>Node15</title>
<g id="a_Node000015"><a xlink:title=" ">
<polygon fill="#e0e0e0" stroke="#999999" points="842.12,-20.75 727.88,-20.75 727.88,0 842.12,0 842.12,-20.75"/>
<text text-anchor="middle" x="785" y="-7.25" font-family="Helvetica,sans-Serif" font-size="10.00">Math/Vector3Dfwd.h</text>
</a>
</g>
</g>
<!-- Node12&#45;&gt;Node15 -->
<g id="edge17_Node000012_Node000015" class="edge">
<title>Node12&#45;&gt;Node15</title>
<g id="a_edge17_Node000012_Node000015"><a xlink:title=" ">
<path fill="none" stroke="#63b8ff" d="M584.95,-293.3C651.45,-292.29 782.47,-285.17 886,-247.75 930.47,-231.67 953.16,-232.41 976,-191 1018.16,-114.58 890.02,-51.87 823.03,-25.2"/>
<polygon fill="#63b8ff" stroke="#63b8ff" points="824.43,-21.6 813.84,-21.23 821.89,-28.12 824.43,-21.6"/>
</a>
</g>
</g>
<!-- Node16 -->
<g id="Node000016" class="node">
<title>Node16</title>
<g id="a_Node000016"><a xlink:href="SiPM_8h.html" target="_top" xlink:title=" ">
<polygon fill="white" stroke="#666666" points="724.5,-247.75 675.5,-247.75 675.5,-227 724.5,-227 724.5,-247.75"/>
<text text-anchor="middle" x="700" y="-234.25" font-family="Helvetica,sans-Serif" font-size="10.00">SiPM.h</text>
</a>
</g>
</g>
<!-- Node12&#45;&gt;Node16 -->
<g id="edge20_Node000012_Node000016" class="edge">
<title>Node12&#45;&gt;Node16</title>
<g id="a_edge20_Node000012_Node000016"><a xlink:title=" ">
<path fill="none" stroke="#63b8ff" d="M570.25,-283.34C596.69,-274.17 636.3,-260.45 664.79,-250.58"/>
<polygon fill="#63b8ff" stroke="#63b8ff" points="665.81,-253.58 674.12,-247 663.52,-246.96 665.81,-253.58"/>
</a>
</g>
</g>
<!-- Node18 -->
<g id="Node000018" class="node">
<title>Node18</title>
<g id="a_Node000018"><a xlink:href="Photon_8h.html" target="_top" xlink:title=" ">
<polygon fill="white" stroke="#666666" points="591.38,-191 532.62,-191 532.62,-170.25 591.38,-170.25 591.38,-191"/>
<text text-anchor="middle" x="562" y="-177.5" font-family="Helvetica,sans-Serif" font-size="10.00">Photon.h</text>
</a>
</g>
</g>
<!-- Node12&#45;&gt;Node18 -->
<g id="edge45_Node000012_Node000018" class="edge">
<title>Node12&#45;&gt;Node18</title>
<g id="a_edge45_Node000012_Node000018"><a xlink:title=" ">
<path fill="none" stroke="#63b8ff" d="M555.43,-283.27C565.43,-275.05 578.28,-262.34 584,-247.75 590.19,-231.95 582.99,-213.62 575.22,-200.27"/>
<polygon fill="#63b8ff" stroke="#63b8ff" points="577.72,-198.68 569.38,-192.15 571.83,-202.46 577.72,-198.68"/>
</a>
</g>
</g>
<!-- Node12&#45;&gt;Node21 -->
<g id="edge46_Node000012_Node000021" class="edge">
<title>Node12&#45;&gt;Node21</title>
<g id="a_edge46_Node000012_Node000021"><a xlink:title=" ">
<path fill="none" stroke="#63b8ff" d="M544.49,-283.47C546.7,-274.34 549.78,-260.22 551,-247.75 551.9,-238.57 553.92,-235.75 551,-227 544.68,-208.03 530.32,-209.97 524,-191 512.38,-156.14 520.41,-112.73 526.95,-87.95"/>
<polygon fill="#63b8ff" stroke="#63b8ff" points="530.5,-89.26 529.86,-78.68 523.76,-87.35 530.5,-89.26"/>
</a>
</g>
</g>
<!-- Node16&#45;&gt;Node7 -->
<g id="edge21_Node000016_Node000007" class="edge">
<title>Node16&#45;&gt;Node7</title>
<g id="a_edge21_Node000016_Node000007"><a xlink:title=" ">
<path fill="none" stroke="#63b8ff" d="M706.92,-226.66C713.06,-217.71 721.97,-203.92 728,-191 734.97,-176.08 740.75,-158.33 744.63,-144.98"/>
<polygon fill="#63b8ff" stroke="#63b8ff" points="748.22,-146.13 747.54,-135.56 741.48,-144.25 748.22,-146.13"/>
</a>
</g>
</g>
<!-- Node16&#45;&gt;Node8 -->
<g id="edge23_Node000016_Node000008" class="edge">
<title>Node16&#45;&gt;Node8</title>
<g id="a_edge23_Node000016_Node000008"><a xlink:title=" ">
<path fill="none" stroke="#63b8ff" d="M722.63,-226.55C742.83,-217.64 773.14,-203.97 799,-191 832.1,-174.4 869.38,-153.71 893.7,-139.95"/>
<polygon fill="#63b8ff" stroke="#63b8ff" points="895,-142.66 901.97,-134.68 891.55,-136.58 895,-142.66"/>
</a>
</g>
</g>
<!-- Node16&#45;&gt;Node9 -->
<g id="edge22_Node000016_Node000009" class="edge">
<title>Node16&#45;&gt;Node9</title>
<g id="a_edge22_Node000016_Node000009"><a xlink:title=" ">
<path fill="none" stroke="#63b8ff" d="M675.04,-232.39C640.21,-226.28 575.52,-212.96 524,-191 492.47,-177.56 459.38,-155.74 438.49,-140.87"/>
<polygon fill="#63b8ff" stroke="#63b8ff" points="440.96,-137.61 430.81,-134.59 436.86,-143.28 440.96,-137.61"/>
</a>
</g>
</g>
<!-- Node16&#45;&gt;Node10 -->
<g id="edge24_Node000016_Node000010" class="edge">
<title>Node16&#45;&gt;Node10</title>
<g id="a_edge24_Node000016_Node000010"><a xlink:title=" ">
<path fill="none" stroke="#63b8ff" d="M724.81,-230.2C761.97,-220.95 832.57,-203.38 877.9,-192.1"/>
<polygon fill="#63b8ff" stroke="#63b8ff" points="878.71,-195.26 887.57,-189.45 877.02,-188.47 878.71,-195.26"/>
</a>
</g>
</g>
<!-- Node16&#45;&gt;Node15 -->
<g id="edge26_Node000016_Node000015" class="edge">
<title>Node16&#45;&gt;Node15</title>
<g id="a_edge26_Node000016_Node000015"><a xlink:title=" ">
<path fill="none" stroke="#63b8ff" d="M712.23,-226.7C731.85,-210.25 769.46,-174.64 782,-134.25 792.77,-99.57 790.55,-56.71 787.85,-31.86"/>
<polygon fill="#63b8ff" stroke="#63b8ff" points="791.23,-31.72 786.54,-22.23 784.29,-32.58 791.23,-31.72"/>
</a>
</g>
</g>
<!-- Node17 -->
<g id="Node000017" class="node">
<title>Node17</title>
<g id="a_Node000017"><a xlink:title=" ">
<polygon fill="#e0e0e0" stroke="#999999" points="718.5,-191 609.5,-191 609.5,-170.25 718.5,-170.25 718.5,-191"/>
<text text-anchor="middle" x="664" y="-177.5" font-family="Helvetica,sans-Serif" font-size="10.00">Math/Interpolator.h</text>
</a>
</g>
</g>
<!-- Node16&#45;&gt;Node17 -->
<g id="edge25_Node000016_Node000017" class="edge">
<title>Node16&#45;&gt;Node17</title>
<g id="a_edge25_Node000016_Node000017"><a xlink:title=" ">
<path fill="none" stroke="#63b8ff" d="M693.56,-226.59C688.8,-219.35 682.17,-209.26 676.39,-200.47"/>
<polygon fill="#63b8ff" stroke="#63b8ff" points="678.8,-198.76 670.38,-192.33 672.95,-202.61 678.8,-198.76"/>
</a>
</g>
</g>
<!-- Node16&#45;&gt;Node18 -->
<g id="edge27_Node000016_Node000018" class="edge">
<title>Node16&#45;&gt;Node18</title>
<g id="a_edge27_Node000016_Node000018"><a xlink:title=" ">
<path fill="none" stroke="#63b8ff" d="M675.33,-226.59C653.35,-217.87 620.96,-205.02 596.44,-195.29"/>
<polygon fill="#63b8ff" stroke="#63b8ff" points="598.04,-191.76 587.46,-191.33 595.46,-198.27 598.04,-191.76"/>
</a>
</g>
</g>
<!-- Node18&#45;&gt;Node4 -->
<g id="edge32_Node000018_Node000004" class="edge">
<title>Node18&#45;&gt;Node4</title>
<g id="a_edge32_Node000018_Node000004"><a xlink:title=" ">
<path fill="none" stroke="#63b8ff" d="M591.72,-171.99C594.84,-171.33 597.97,-170.74 601,-170.25 699.65,-154.39 1004.12,-134 1110.14,-127.2"/>
<polygon fill="#63b8ff" stroke="#63b8ff" points="1110.17,-130.64 1119.92,-126.51 1109.72,-123.65 1110.17,-130.64"/>
</a>
</g>
</g>
<!-- Node18&#45;&gt;Node7 -->
<g id="edge29_Node000018_Node000007" class="edge">
<title>Node18&#45;&gt;Node7</title>
<g id="a_edge29_Node000018_Node000007"><a xlink:title=" ">
<path fill="none" stroke="#63b8ff" d="M591.79,-170.95C625.57,-161.11 680.54,-145.1 715.98,-134.78"/>
<polygon fill="#63b8ff" stroke="#63b8ff" points="716.68,-137.93 725.3,-131.78 714.72,-131.21 716.68,-137.93"/>
</a>
</g>
</g>
<!-- Node18&#45;&gt;Node8 -->
<g id="edge28_Node000018_Node000008" class="edge">
<title>Node18&#45;&gt;Node8</title>
<g id="a_edge28_Node000018_Node000008"><a xlink:title=" ">
<path fill="none" stroke="#63b8ff" d="M591.75,-172.17C594.86,-171.48 597.99,-170.82 601,-170.25 701.09,-151.15 820.26,-136.25 880.68,-129.25"/>
<polygon fill="#63b8ff" stroke="#63b8ff" points="880.72,-132.66 890.25,-128.04 879.92,-125.7 880.72,-132.66"/>
</a>
</g>
</g>
<!-- Node18&#45;&gt;Node9 -->
<g id="edge31_Node000018_Node000009" class="edge">
<title>Node18&#45;&gt;Node9</title>
<g id="a_edge31_Node000018_Node000009"><a xlink:title=" ">
<path fill="none" stroke="#63b8ff" d="M536.08,-169.84C511.88,-160.7 475.67,-147.03 449.54,-137.16"/>
<polygon fill="#63b8ff" stroke="#63b8ff" points="450.96,-133.58 440.37,-133.32 448.49,-140.13 450.96,-133.58"/>
</a>
</g>
</g>
<!-- Node18&#45;&gt;Node13 -->
<g id="edge30_Node000018_Node000013" class="edge">
<title>Node18&#45;&gt;Node13</title>
<g id="a_edge30_Node000018_Node000013"><a xlink:title=" ">
<path fill="none" stroke="#63b8ff" d="M554.64,-170.1C533.73,-143.04 473.74,-65.4 446.17,-29.71"/>
<polygon fill="#63b8ff" stroke="#63b8ff" points="448.49,-27.99 439.6,-22.22 442.95,-32.27 448.49,-27.99"/>
</a>
</g>
</g>
<!-- Node18&#45;&gt;Node15 -->
<g id="edge33_Node000018_Node000015" class="edge">
<title>Node18&#45;&gt;Node15</title>
<g id="a_edge33_Node000018_Node000015"><a xlink:title=" ">
<path fill="none" stroke="#63b8ff" d="M588.81,-169.92C609.04,-161.93 636.98,-149.48 659,-134.25 704.18,-102.99 748.05,-55.03 770.16,-29.25"/>
<polygon fill="#63b8ff" stroke="#63b8ff" points="773.26,-32.01 777.05,-22.11 767.91,-27.49 773.26,-32.01"/>
</a>
</g>
</g>
<!-- Node19 -->
<g id="Node000019" class="node">
<title>Node19</title>
<g id="a_Node000019"><a xlink:title=" ">
<polygon fill="#e0e0e0" stroke="#999999" points="710.25,-20.75 545.75,-20.75 545.75,0 710.25,0 710.25,-20.75"/>
<text text-anchor="middle" x="628" y="-7.25" font-family="Helvetica,sans-Serif" font-size="10.00">Math/DisplacementVector3D.h</text>
</a>
</g>
</g>
<!-- Node18&#45;&gt;Node19 -->
<g id="edge34_Node000018_Node000019" class="edge">
<title>Node18&#45;&gt;Node19</title>
<g id="a_edge34_Node000018_Node000019"><a xlink:title=" ">
<path fill="none" stroke="#63b8ff" d="M591.85,-171.13C609.82,-164.3 631.23,-152.74 642,-134.25 660.83,-101.93 647.54,-56.69 637.14,-31.09"/>
<polygon fill="#63b8ff" stroke="#63b8ff" points="640,-29.9 632.82,-22.12 633.58,-32.68 640,-29.9"/>
</a>
</g>
</g>
<!-- Node20 -->
<g id="Node000020" class="node">
<title>Node20</title>
<g id="a_Node000020"><a xlink:href="Particle_8h.html" target="_top" xlink:title=" ">
<polygon fill="white" stroke="#666666" points="632.5,-134.25 571.5,-134.25 571.5,-113.5 632.5,-113.5 632.5,-134.25"/>
<text text-anchor="middle" x="602" y="-120.75" font-family="Helvetica,sans-Serif" font-size="10.00">Particle.h</text>
</a>
</g>
</g>
<!-- Node18&#45;&gt;Node20 -->
<g id="edge35_Node000018_Node000020" class="edge">
<title>Node18&#45;&gt;Node20</title>
<g id="a_edge35_Node000018_Node000020"><a xlink:title=" ">
<path fill="none" stroke="#63b8ff" d="M569.15,-169.84C574.5,-162.52 581.97,-152.29 588.44,-143.44"/>
<polygon fill="#63b8ff" stroke="#63b8ff" points="591.84,-145.72 594.91,-135.58 586.19,-141.59 591.84,-145.72"/>
</a>
</g>
</g>
<!-- Node18&#45;&gt;Node21 -->
<g id="edge44_Node000018_Node000021" class="edge">
<title>Node18&#45;&gt;Node21</title>
<g id="a_edge44_Node000018_Node000021"><a xlink:title=" ">
<path fill="none" stroke="#63b8ff" d="M559.53,-170.12C554.84,-152.11 544.58,-112.64 538.28,-88.43"/>
<polygon fill="#63b8ff" stroke="#63b8ff" points="541.45,-87.72 535.55,-78.93 534.68,-89.48 541.45,-87.72"/>
</a>
</g>
</g>
<!-- Node20&#45;&gt;Node15 -->
<g id="edge36_Node000020_Node000015" class="edge">
<title>Node20&#45;&gt;Node15</title>
<g id="a_edge36_Node000020_Node000015"><a xlink:title=" ">
<path fill="none" stroke="#63b8ff" d="M617.92,-113.18C649.83,-93.74 721.8,-49.88 760.04,-26.58"/>
<polygon fill="#63b8ff" stroke="#63b8ff" points="761.27,-29.32 767.99,-21.13 757.63,-23.35 761.27,-29.32"/>
</a>
</g>
</g>
<!-- Node20&#45;&gt;Node19 -->
<g id="edge37_Node000020_Node000019" class="edge">
<title>Node20&#45;&gt;Node19</title>
<g id="a_edge37_Node000020_Node000019"><a xlink:title=" ">
<path fill="none" stroke="#63b8ff" d="M604.22,-113.37C608.42,-95.36 617.62,-55.89 623.27,-31.68"/>
<polygon fill="#63b8ff" stroke="#63b8ff" points="626.85,-32.71 625.71,-22.18 620.04,-31.12 626.85,-32.71"/>
</a>
</g>
</g>
<!-- Node20&#45;&gt;Node21 -->
<g id="edge38_Node000020_Node000021" class="edge">
<title>Node20&#45;&gt;Node21</title>
<g id="a_edge38_Node000020_Node000021"><a xlink:title=" ">
<path fill="none" stroke="#63b8ff" d="M589.66,-113.09C579.66,-105.15 565.33,-93.78 553.59,-84.46"/>
<polygon fill="#63b8ff" stroke="#63b8ff" points="556.24,-81.3 546.23,-77.83 551.89,-86.79 556.24,-81.3"/>
</a>
</g>
</g>
<!-- Node21&#45;&gt;Node11 -->
<g id="edge43_Node000021_Node000011" class="edge">
<title>Node21&#45;&gt;Node11</title>
<g id="a_edge43_Node000021_Node000011"><a xlink:title=" ">
<path fill="none" stroke="#63b8ff" d="M495,-60.21C435.27,-50.92 318.72,-32.8 245.64,-21.43"/>
<polygon fill="#63b8ff" stroke="#63b8ff" points="246.61,-17.88 236.19,-19.8 245.53,-24.8 246.61,-17.88"/>
</a>
</g>
</g>
<!-- Node21&#45;&gt;Node13 -->
<g id="edge39_Node000021_Node000013" class="edge">
<title>Node21&#45;&gt;Node13</title>
<g id="a_edge39_Node000021_Node000013"><a xlink:title=" ">
<path fill="none" stroke="#63b8ff" d="M514.94,-56.34C499.43,-47.93 476.84,-35.68 459.15,-26.09"/>
<polygon fill="#63b8ff" stroke="#63b8ff" points="461.36,-22.77 450.9,-21.08 458.02,-28.92 461.36,-22.77"/>
</a>
</g>
</g>
<!-- Node21&#45;&gt;Node15 -->
<g id="edge41_Node000021_Node000015" class="edge">
<title>Node21&#45;&gt;Node15</title>
<g id="a_edge41_Node000021_Node000015"><a xlink:title=" ">
<path fill="none" stroke="#63b8ff" d="M571,-57.87C613.06,-48.73 681.24,-33.92 729.32,-23.47"/>
<polygon fill="#63b8ff" stroke="#63b8ff" points="729.84,-26.72 738.86,-21.18 728.35,-19.88 729.84,-26.72"/>
</a>
</g>
</g>
<!-- Node21&#45;&gt;Node19 -->
<g id="edge42_Node000021_Node000019" class="edge">
<title>Node21&#45;&gt;Node19</title>
<g id="a_edge42_Node000021_Node000019"><a xlink:title=" ">
<path fill="none" stroke="#63b8ff" d="M549.98,-56.34C564.44,-48.01 585.43,-35.91 602,-26.36"/>
<polygon fill="#63b8ff" stroke="#63b8ff" points="603.25,-29.1 610.16,-21.08 599.75,-23.04 603.25,-29.1"/>
</a>
</g>
</g>
<!-- Node22 -->
<g id="Node000022" class="node">
<title>Node22</title>
<g id="a_Node000022"><a xlink:title=" ">
<polygon fill="#e0e0e0" stroke="#999999" points="527.88,-20.75 472.12,-20.75 472.12,0 527.88,0 527.88,-20.75"/>
<text text-anchor="middle" x="500" y="-7.25" font-family="Helvetica,sans-Serif" font-size="10.00">optional</text>
</a>
</g>
</g>
<!-- Node21&#45;&gt;Node22 -->
<g id="edge40_Node000021_Node000022" class="edge">
<title>Node21&#45;&gt;Node22</title>
<g id="a_edge40_Node000021_Node000022"><a xlink:title=" ">
<path fill="none" stroke="#63b8ff" d="M527.1,-56.34C522.74,-49.1 516.66,-39.01 511.36,-30.22"/>
<polygon fill="#63b8ff" stroke="#63b8ff" points="514.01,-28.84 505.85,-22.08 508.01,-32.45 514.01,-28.84"/>
</a>
</g>
</g>
<!-- Node23&#45;&gt;Node7 -->
<g id="edge51_Node000023_Node000007" class="edge">
<title>Node23&#45;&gt;Node7</title>
<g id="a_edge51_Node000023_Node000007"><a xlink:title=" ">
<path fill="none" stroke="#63b8ff" d="M356.72,-175.42C435.52,-165.29 635.26,-139.62 715.68,-129.29"/>
<polygon fill="#63b8ff" stroke="#63b8ff" points="715.73,-132.68 725.21,-127.93 714.84,-125.74 715.73,-132.68"/>
</a>
</g>
</g>
<!-- Node23&#45;&gt;Node9 -->
<g id="edge49_Node000023_Node000009" class="edge">
<title>Node23&#45;&gt;Node9</title>
<g id="a_edge49_Node000023_Node000009"><a xlink:title=" ">
<path fill="none" stroke="#63b8ff" d="M340.63,-169.84C354.64,-161.58 374.94,-149.63 391.09,-140.13"/>
<polygon fill="#63b8ff" stroke="#63b8ff" points="392.68,-142.67 399.52,-134.58 389.12,-136.64 392.68,-142.67"/>
</a>
</g>
</g>
<!-- Node24 -->
<g id="Node000024" class="node">
<title>Node24</title>
<g id="a_Node000024"><a xlink:title=" ">
<polygon fill="#e0e0e0" stroke="#999999" points="377.25,-134.25 284.75,-134.25 284.75,-113.5 377.25,-113.5 377.25,-134.25"/>
<text text-anchor="middle" x="331" y="-120.75" font-family="Helvetica,sans-Serif" font-size="10.00">unordered_map</text>
</a>
</g>
</g>
<!-- Node23&#45;&gt;Node24 -->
<g id="edge50_Node000023_Node000024" class="edge">
<title>Node23&#45;&gt;Node24</title>
<g id="a_edge50_Node000023_Node000024"><a xlink:title=" ">
<path fill="none" stroke="#63b8ff" d="M325.25,-169.84C326.12,-163.06 327.3,-153.8 328.37,-145.44"/>
<polygon fill="#63b8ff" stroke="#63b8ff" points="331.96,-145.94 329.76,-135.58 325.02,-145.05 331.96,-145.94"/>
</a>
</g>
</g>
</g>
</svg>
