<?xml version="1.0" encoding="UTF-8" standalone="no"?>
<!DOCTYPE svg PUBLIC "-//W3C//DTD SVG 1.1//EN"
 "http://www.w3.org/Graphics/SVG/1.1/DTD/svg11.dtd">
<!-- Generated by graphviz version 8.0.5 (20230430.1635)
 -->
<!-- Title: src/ParticleMass.cpp Pages: 1 -->
<svg width="360pt" height="86pt"
 viewBox="0.00 0.00 360.12 85.50" xmlns="http://www.w3.org/2000/svg" xmlns:xlink="http://www.w3.org/1999/xlink">
<g id="graph0" class="graph" transform="scale(1 1) rotate(0) translate(4 81.5)">
<title>src/ParticleMass.cpp</title>
<!-- Node1 -->
<g id="Node000001" class="node">
<title>Node1</title>
<g id="a_Node000001"><a xlink:title=" ">
<polygon fill="#999999" stroke="#666666" points="211.38,-77.5 96.38,-77.5 96.38,-56.75 211.38,-56.75 211.38,-77.5"/>
<text text-anchor="middle" x="153.88" y="-64" font-family="Helvetica,sans-Serif" font-size="10.00">src/ParticleMass.cpp</text>
</a>
</g>
</g>
<!-- Node2 -->
<g id="Node000002" class="node">
<title>Node2</title>
<g id="a_Node000002"><a xlink:title=" ">
<polygon fill="#e0e0e0" stroke="#999999" points="37.75,-20.75 0,-20.75 0,0 37.75,0 37.75,-20.75"/>
<text text-anchor="middle" x="18.88" y="-7.25" font-family="Helvetica,sans-Serif" font-size="10.00">map</text>
</a>
</g>
</g>
<!-- Node1&#45;&gt;Node2 -->
<g id="edge1_Node000001_Node000002" class="edge">
<title>Node1&#45;&gt;Node2</title>
<g id="a_edge1_Node000001_Node000002"><a xlink:title=" ">
<path fill="none" stroke="#63b8ff" d="M129.74,-56.34C106.88,-47.07 72.52,-33.13 48.11,-23.23"/>
<polygon fill="#63b8ff" stroke="#63b8ff" points="49.59,-19.65 39,-19.13 46.96,-26.13 49.59,-19.65"/>
</a>
</g>
</g>
<!-- Node3 -->
<g id="Node000003" class="node">
<title>Node3</title>
<g id="a_Node000003"><a xlink:title=" ">
<polygon fill="#e0e0e0" stroke="#999999" points="104,-20.75 55.75,-20.75 55.75,0 104,0 104,-20.75"/>
<text text-anchor="middle" x="79.88" y="-7.25" font-family="Helvetica,sans-Serif" font-size="10.00">cstdlib</text>
</a>
</g>
</g>
<!-- Node1&#45;&gt;Node3 -->
<g id="edge2_Node000001_Node000003" class="edge">
<title>Node1&#45;&gt;Node3</title>
<g id="a_edge2_Node000001_Node000003"><a xlink:title=" ">
<path fill="none" stroke="#63b8ff" d="M140.65,-56.34C129.81,-48.32 114.25,-36.81 101.59,-27.44"/>
<polygon fill="#63b8ff" stroke="#63b8ff" points="104.11,-24.21 93.99,-21.08 99.95,-29.84 104.11,-24.21"/>
</a>
</g>
</g>
<!-- Node4 -->
<g id="Node000004" class="node">
<title>Node4</title>
<g id="a_Node000004"><a xlink:title=" ">
<polygon fill="#e0e0e0" stroke="#999999" points="185.88,-20.75 121.88,-20.75 121.88,0 185.88,0 185.88,-20.75"/>
<text text-anchor="middle" x="153.88" y="-7.25" font-family="Helvetica,sans-Serif" font-size="10.00">stdexcept</text>
</a>
</g>
</g>
<!-- Node1&#45;&gt;Node4 -->
<g id="edge3_Node000001_Node000004" class="edge">
<title>Node1&#45;&gt;Node4</title>
<g id="a_edge3_Node000001_Node000004"><a xlink:title=" ">
<path fill="none" stroke="#63b8ff" d="M153.88,-56.34C153.88,-49.56 153.88,-40.3 153.88,-31.94"/>
<polygon fill="#63b8ff" stroke="#63b8ff" points="157.38,-32.08 153.88,-22.08 150.38,-32.08 157.38,-32.08"/>
</a>
</g>
</g>
<!-- Node5 -->
<g id="Node000005" class="node">
<title>Node5</title>
<g id="a_Node000005"><a xlink:title=" ">
<polygon fill="#e0e0e0" stroke="#999999" points="247.75,-20.75 204,-20.75 204,0 247.75,0 247.75,-20.75"/>
<text text-anchor="middle" x="225.88" y="-7.25" font-family="Helvetica,sans-Serif" font-size="10.00">string</text>
</a>
</g>
</g>
<!-- Node1&#45;&gt;Node5 -->
<g id="edge4_Node000001_Node000005" class="edge">
<title>Node1&#45;&gt;Node5</title>
<g id="a_edge4_Node000001_Node000005"><a xlink:title=" ">
<path fill="none" stroke="#63b8ff" d="M166.75,-56.34C177.19,-48.4 192.14,-37.03 204.39,-27.71"/>
<polygon fill="#63b8ff" stroke="#63b8ff" points="206.27,-29.92 212.11,-21.08 202.04,-24.35 206.27,-29.92"/>
</a>
</g>
</g>
<!-- Node6 -->
<g id="Node000006" class="node">
<title>Node6</title>
<g id="a_Node000006"><a xlink:href="ParticleMass_8h.html" target="_top" xlink:title=" ">
<polygon fill="white" stroke="#666666" points="352.12,-20.75 265.62,-20.75 265.62,0 352.12,0 352.12,-20.75"/>
<text text-anchor="middle" x="308.88" y="-7.25" font-family="Helvetica,sans-Serif" font-size="10.00">ParticleMass.h</text>
</a>
</g>
</g>
<!-- Node1&#45;&gt;Node6 -->
<g id="edge5_Node000001_Node000006" class="edge">
<title>Node1&#45;&gt;Node6</title>
<g id="a_edge5_Node000001_Node000006"><a xlink:title=" ">
<path fill="none" stroke="#63b8ff" d="M181.59,-56.34C206.53,-47.53 243.39,-34.5 271.04,-24.74"/>
<polygon fill="#63b8ff" stroke="#63b8ff" points="271.88,-27.8 280.14,-21.17 269.55,-21.2 271.88,-27.8"/>
</a>
</g>
</g>
</g>
</svg>
