<?xml version="1.0" encoding="UTF-8" standalone="no"?>
<!DOCTYPE svg PUBLIC "-//W3C//DTD SVG 1.1//EN"
 "http://www.w3.org/Graphics/SVG/1.1/DTD/svg11.dtd">
<!-- Generated by graphviz version 8.0.5 (20230430.1635)
 -->
<!-- Title: src/PhotonReconstructor.cpp Pages: 1 -->
<svg width="1227pt" height="426pt"
 viewBox="0.00 0.00 1226.75 426.00" xmlns="http://www.w3.org/2000/svg" xmlns:xlink="http://www.w3.org/1999/xlink">
<g id="graph0" class="graph" transform="scale(1 1) rotate(0) translate(4 422)">
<title>src/PhotonReconstructor.cpp</title>
<!-- Node1 -->
<g id="Node000001" class="node">
<title>Node1</title>
<g id="a_Node000001"><a xlink:title=" ">
<polygon fill="#999999" stroke="#666666" points="505.62,-418 351.62,-418 351.62,-397.25 505.62,-397.25 505.62,-418"/>
<text text-anchor="middle" x="428.62" y="-404.5" font-family="Helvetica,sans-Serif" font-size="10.00">src/PhotonReconstructor.cpp</text>
</a>
</g>
</g>
<!-- Node2 -->
<g id="Node000002" class="node">
<title>Node2</title>
<g id="a_Node000002"><a xlink:title=" ">
<polygon fill="#e0e0e0" stroke="#999999" points="63.25,-361.25 0,-361.25 0,-340.5 63.25,-340.5 63.25,-361.25"/>
<text text-anchor="middle" x="31.62" y="-347.75" font-family="Helvetica,sans-Serif" font-size="10.00">algorithm</text>
</a>
</g>
</g>
<!-- Node1&#45;&gt;Node2 -->
<g id="edge1_Node000001_Node000002" class="edge">
<title>Node1&#45;&gt;Node2</title>
<g id="a_edge1_Node000001_Node000002"><a xlink:title=" ">
<path fill="none" stroke="#63b8ff" d="M351.36,-398.27C280.08,-390.17 171.42,-376.85 77.62,-361.25 76.5,-361.06 75.36,-360.87 74.21,-360.67"/>
<polygon fill="#63b8ff" stroke="#63b8ff" points="75.21,-357.11 64.74,-358.73 73.94,-363.99 75.21,-357.11"/>
</a>
</g>
</g>
<!-- Node3 -->
<g id="Node000003" class="node">
<title>Node3</title>
<g id="a_Node000003"><a xlink:href="PhotonReconstructor_8h.html" target="_top" xlink:title=" ">
<polygon fill="white" stroke="#666666" points="400.38,-361.25 274.88,-361.25 274.88,-340.5 400.38,-340.5 400.38,-361.25"/>
<text text-anchor="middle" x="337.62" y="-347.75" font-family="Helvetica,sans-Serif" font-size="10.00">PhotonReconstructor.h</text>
</a>
</g>
</g>
<!-- Node1&#45;&gt;Node3 -->
<g id="edge2_Node000001_Node000003" class="edge">
<title>Node1&#45;&gt;Node3</title>
<g id="a_edge2_Node000001_Node000003"><a xlink:title=" ">
<path fill="none" stroke="#63b8ff" d="M412.36,-396.84C398.64,-388.58 378.78,-376.63 362.98,-367.13"/>
<polygon fill="#63b8ff" stroke="#63b8ff" points="365.13,-363.73 354.75,-361.58 361.52,-369.73 365.13,-363.73"/>
</a>
</g>
</g>
<!-- Node5 -->
<g id="Node000005" class="node">
<title>Node5</title>
<g id="a_Node000005"><a xlink:title=" ">
<polygon fill="#e0e0e0" stroke="#999999" points="249.88,-20.75 85.38,-20.75 85.38,0 249.88,0 249.88,-20.75"/>
<text text-anchor="middle" x="167.62" y="-7.25" font-family="Helvetica,sans-Serif" font-size="10.00">Math/DisplacementVector3D.h</text>
</a>
</g>
</g>
<!-- Node1&#45;&gt;Node5 -->
<g id="edge48_Node000001_Node000005" class="edge">
<title>Node1&#45;&gt;Node5</title>
<g id="a_edge48_Node000001_Node000005"><a xlink:title=" ">
<path fill="none" stroke="#63b8ff" d="M351.31,-396.78C251.82,-381.9 91.62,-349.51 91.62,-295.12 91.62,-295.12 91.62,-295.12 91.62,-122.88 91.62,-83.79 123.91,-48.29 146.39,-28.3"/>
<polygon fill="#63b8ff" stroke="#63b8ff" points="148.39,-30.34 153.73,-21.19 143.85,-25.02 148.39,-30.34"/>
</a>
</g>
</g>
<!-- Node6 -->
<g id="Node000006" class="node">
<title>Node6</title>
<g id="a_Node000006"><a xlink:href="RadiatorCell_8h.html" target="_top" xlink:title=" ">
<polygon fill="white" stroke="#666666" points="627.12,-304.5 542.12,-304.5 542.12,-283.75 627.12,-283.75 627.12,-304.5"/>
<text text-anchor="middle" x="584.62" y="-291" font-family="Helvetica,sans-Serif" font-size="10.00">RadiatorCell.h</text>
</a>
</g>
</g>
<!-- Node1&#45;&gt;Node6 -->
<g id="edge44_Node000001_Node000006" class="edge">
<title>Node1&#45;&gt;Node6</title>
<g id="a_edge44_Node000001_Node000006"><a xlink:title=" ">
<path fill="none" stroke="#63b8ff" d="M442.2,-396.93C469.05,-377.73 529.2,-334.74 562.09,-311.23"/>
<polygon fill="#63b8ff" stroke="#63b8ff" points="563.87,-313.54 569.97,-304.88 559.8,-307.85 563.87,-313.54"/>
</a>
</g>
</g>
<!-- Node11 -->
<g id="Node000011" class="node">
<title>Node11</title>
<g id="a_Node000011"><a xlink:title=" ">
<polygon fill="#e0e0e0" stroke="#999999" points="1102.5,-247.75 1046.75,-247.75 1046.75,-227 1102.5,-227 1102.5,-247.75"/>
<text text-anchor="middle" x="1074.62" y="-234.25" font-family="Helvetica,sans-Serif" font-size="10.00">TMath.h</text>
</a>
</g>
</g>
<!-- Node1&#45;&gt;Node11 -->
<g id="edge46_Node000001_Node000011" class="edge">
<title>Node1&#45;&gt;Node11</title>
<g id="a_edge46_Node000001_Node000011"><a xlink:title=" ">
<path fill="none" stroke="#63b8ff" d="M466.15,-396.85C580.02,-367.2 920.84,-278.43 1036.07,-248.42"/>
<polygon fill="#63b8ff" stroke="#63b8ff" points="1036.71,-251.61 1045.5,-245.7 1034.94,-244.83 1036.71,-251.61"/>
</a>
</g>
</g>
<!-- Node12 -->
<g id="Node000012" class="node">
<title>Node12</title>
<g id="a_Node000012"><a xlink:title=" ">
<polygon fill="#e0e0e0" stroke="#999999" points="696.75,-20.75 582.5,-20.75 582.5,0 696.75,0 696.75,-20.75"/>
<text text-anchor="middle" x="639.62" y="-7.25" font-family="Helvetica,sans-Serif" font-size="10.00">Math/Vector3Dfwd.h</text>
</a>
</g>
</g>
<!-- Node1&#45;&gt;Node12 -->
<g id="edge47_Node000001_Node000012" class="edge">
<title>Node1&#45;&gt;Node12</title>
<g id="a_edge47_Node000001_Node000012"><a xlink:title=" ">
<path fill="none" stroke="#63b8ff" d="M506.1,-402.34C688.66,-391.21 1130.62,-357.79 1130.62,-295.12 1130.62,-295.12 1130.62,-295.12 1130.62,-122.88 1130.62,-37.13 842.26,-17.32 707.51,-12.75"/>
<polygon fill="#63b8ff" stroke="#63b8ff" points="708.02,-9.23 697.91,-12.41 707.79,-16.23 708.02,-9.23"/>
</a>
</g>
</g>
<!-- Node18 -->
<g id="Node000018" class="node">
<title>Node18</title>
<g id="a_Node000018"><a xlink:href="Photon_8h.html" target="_top" xlink:title=" ">
<polygon fill="white" stroke="#666666" points="441,-191 382.25,-191 382.25,-170.25 441,-170.25 441,-191"/>
<text text-anchor="middle" x="411.62" y="-177.5" font-family="Helvetica,sans-Serif" font-size="10.00">Photon.h</text>
</a>
</g>
</g>
<!-- Node1&#45;&gt;Node18 -->
<g id="edge43_Node000001_Node000018" class="edge">
<title>Node1&#45;&gt;Node18</title>
<g id="a_edge43_Node000001_Node000018"><a xlink:title=" ">
<path fill="none" stroke="#63b8ff" d="M351.45,-402.79C320.55,-397.24 287.23,-385.47 265.62,-361.25 248.63,-342.19 258.63,-329.96 256.62,-304.5 255.9,-295.31 252.25,-291.87 256.62,-283.75 280.86,-238.76 334.55,-210.32 371.91,-195.19"/>
<polygon fill="#63b8ff" stroke="#63b8ff" points="372.92,-198.16 380.97,-191.27 370.38,-191.64 372.92,-198.16"/>
</a>
</g>
</g>
<!-- Node23 -->
<g id="Node000023" class="node">
<title>Node23</title>
<g id="a_Node000023"><a xlink:href="ReconstructedPhoton_8h.html" target="_top" xlink:title=" ">
<polygon fill="white" stroke="#666666" points="453.88,-304.5 325.38,-304.5 325.38,-283.75 453.88,-283.75 453.88,-304.5"/>
<text text-anchor="middle" x="389.62" y="-291" font-family="Helvetica,sans-Serif" font-size="10.00">ReconstructedPhoton.h</text>
</a>
</g>
</g>
<!-- Node1&#45;&gt;Node23 -->
<g id="edge45_Node000001_Node000023" class="edge">
<title>Node1&#45;&gt;Node23</title>
<g id="a_edge45_Node000001_Node000023"><a xlink:title=" ">
<path fill="none" stroke="#63b8ff" d="M426.32,-397.08C423.08,-384.11 416.78,-360.27 409.62,-340.5 406.48,-331.82 402.46,-322.45 398.85,-314.49"/>
<polygon fill="#63b8ff" stroke="#63b8ff" points="401.69,-313.3 394.3,-305.71 395.35,-316.25 401.69,-313.3"/>
</a>
</g>
</g>
<!-- Node24 -->
<g id="Node000024" class="node">
<title>Node24</title>
<g id="a_Node000024"><a xlink:title=" ">
<polygon fill="#e0e0e0" stroke="#999999" points="1218.75,-361.25 1158.5,-361.25 1158.5,-340.5 1218.75,-340.5 1218.75,-361.25"/>
<text text-anchor="middle" x="1188.62" y="-347.75" font-family="Helvetica,sans-Serif" font-size="10.00">Quartic.h</text>
</a>
</g>
</g>
<!-- Node1&#45;&gt;Node24 -->
<g id="edge49_Node000001_Node000024" class="edge">
<title>Node1&#45;&gt;Node24</title>
<g id="a_edge49_Node000001_Node000024"><a xlink:title=" ">
<path fill="none" stroke="#63b8ff" d="M506.08,-405.43C637.82,-402.57 913.72,-392.99 1144.62,-361.25 1145.61,-361.12 1146.6,-360.97 1147.6,-360.82"/>
<polygon fill="#63b8ff" stroke="#63b8ff" points="1148.19,-364.09 1157.43,-358.92 1146.98,-357.2 1148.19,-364.09"/>
</a>
</g>
</g>
<!-- Node4 -->
<g id="Node000004" class="node">
<title>Node4</title>
<g id="a_Node000004"><a xlink:title=" ">
<polygon fill="#e0e0e0" stroke="#999999" points="307.38,-304.5 265.88,-304.5 265.88,-283.75 307.38,-283.75 307.38,-304.5"/>
<text text-anchor="middle" x="286.62" y="-291" font-family="Helvetica,sans-Serif" font-size="10.00">array</text>
</a>
</g>
</g>
<!-- Node3&#45;&gt;Node4 -->
<g id="edge3_Node000003_Node000004" class="edge">
<title>Node3&#45;&gt;Node4</title>
<g id="a_edge3_Node000003_Node000004"><a xlink:title=" ">
<path fill="none" stroke="#63b8ff" d="M328.51,-340.09C321.47,-332.53 311.55,-321.89 303.13,-312.85"/>
<polygon fill="#63b8ff" stroke="#63b8ff" points="306.04,-310.76 296.66,-305.83 300.92,-315.53 306.04,-310.76"/>
</a>
</g>
</g>
<!-- Node3&#45;&gt;Node5 -->
<g id="edge4_Node000003_Node000005" class="edge">
<title>Node3&#45;&gt;Node5</title>
<g id="a_edge4_Node000003_Node000005"><a xlink:title=" ">
<path fill="none" stroke="#63b8ff" d="M308.8,-340.08C291.4,-332.8 270.06,-321.2 256.62,-304.5 188.56,-219.9 172.45,-83.8 168.72,-32.15"/>
<polygon fill="#63b8ff" stroke="#63b8ff" points="172.15,-31.94 168.03,-22.18 165.17,-32.38 172.15,-31.94"/>
</a>
</g>
</g>
<!-- Node3&#45;&gt;Node6 -->
<g id="edge5_Node000003_Node000006" class="edge">
<title>Node3&#45;&gt;Node6</title>
<g id="a_edge5_Node000003_Node000006"><a xlink:title=" ">
<path fill="none" stroke="#63b8ff" d="M382.07,-340.02C423.9,-330.75 486.6,-316.85 531.15,-306.98"/>
<polygon fill="#63b8ff" stroke="#63b8ff" points="531.77,-310.2 540.78,-304.62 530.26,-303.37 531.77,-310.2"/>
</a>
</g>
</g>
<!-- Node3&#45;&gt;Node23 -->
<g id="edge41_Node000003_Node000023" class="edge">
<title>Node3&#45;&gt;Node23</title>
<g id="a_edge41_Node000003_Node000023"><a xlink:title=" ">
<path fill="none" stroke="#63b8ff" d="M346.92,-340.09C354.17,-332.46 364.42,-321.67 373.06,-312.57"/>
<polygon fill="#63b8ff" stroke="#63b8ff" points="375.06,-315.49 379.41,-305.83 369.98,-310.67 375.06,-315.49"/>
</a>
</g>
</g>
<!-- Node7 -->
<g id="Node000007" class="node">
<title>Node7</title>
<g id="a_Node000007"><a xlink:title=" ">
<polygon fill="#e0e0e0" stroke="#999999" points="616.5,-134.25 572.75,-134.25 572.75,-113.5 616.5,-113.5 616.5,-134.25"/>
<text text-anchor="middle" x="594.62" y="-120.75" font-family="Helvetica,sans-Serif" font-size="10.00">string</text>
</a>
</g>
</g>
<!-- Node6&#45;&gt;Node7 -->
<g id="edge6_Node000006_Node000007" class="edge">
<title>Node6&#45;&gt;Node7</title>
<g id="a_edge6_Node000006_Node000007"><a xlink:title=" ">
<path fill="none" stroke="#63b8ff" d="M605.65,-283.29C619.22,-275.68 635.75,-263.75 643.62,-247.75 647.7,-239.48 647.87,-235.19 643.62,-227 630.86,-202.37 605.39,-215.63 592.62,-191 585.35,-176.96 586.48,-158.9 589.08,-145.2"/>
<polygon fill="#63b8ff" stroke="#63b8ff" points="592.71,-146.03 591.56,-135.49 585.89,-144.44 592.71,-146.03"/>
</a>
</g>
</g>
<!-- Node8 -->
<g id="Node000008" class="node">
<title>Node8</title>
<g id="a_Node000008"><a xlink:title=" ">
<polygon fill="#e0e0e0" stroke="#999999" points="874,-134.25 827.25,-134.25 827.25,-113.5 874,-113.5 874,-134.25"/>
<text text-anchor="middle" x="850.62" y="-120.75" font-family="Helvetica,sans-Serif" font-size="10.00">vector</text>
</a>
</g>
</g>
<!-- Node6&#45;&gt;Node8 -->
<g id="edge7_Node000006_Node000008" class="edge">
<title>Node6&#45;&gt;Node8</title>
<g id="a_edge7_Node000006_Node000008"><a xlink:title=" ">
<path fill="none" stroke="#63b8ff" d="M627.48,-292.58C692.7,-289.1 814.56,-271.53 864.62,-191 873.41,-176.86 868.16,-158.09 861.74,-144.16"/>
<polygon fill="#63b8ff" stroke="#63b8ff" points="864.5,-142.89 856.8,-135.61 858.28,-146.1 864.5,-142.89"/>
</a>
</g>
</g>
<!-- Node9 -->
<g id="Node000009" class="node">
<title>Node9</title>
<g id="a_Node000009"><a xlink:title=" ">
<polygon fill="#e0e0e0" stroke="#999999" points="312.88,-20.75 268.38,-20.75 268.38,0 312.88,0 312.88,-20.75"/>
<text text-anchor="middle" x="290.62" y="-7.25" font-family="Helvetica,sans-Serif" font-size="10.00">utility</text>
</a>
</g>
</g>
<!-- Node6&#45;&gt;Node9 -->
<g id="edge8_Node000006_Node000009" class="edge">
<title>Node6&#45;&gt;Node9</title>
<g id="a_edge8_Node000006_Node000009"><a xlink:title=" ">
<path fill="none" stroke="#63b8ff" d="M541.85,-288.27C465.88,-277 309.84,-241.28 250.62,-134.25 244.67,-123.49 241.81,-87.35 253.62,-56.75 257.66,-46.3 265.07,-36.45 272.21,-28.61"/>
<polygon fill="#63b8ff" stroke="#63b8ff" points="274.19,-31.56 278.67,-21.96 269.18,-26.67 274.19,-31.56"/>
</a>
</g>
</g>
<!-- Node10 -->
<g id="Node000010" class="node">
<title>Node10</title>
<g id="a_Node000010"><a xlink:title=" ">
<polygon fill="#e0e0e0" stroke="#999999" points="949.25,-134.25 892,-134.25 892,-113.5 949.25,-113.5 949.25,-134.25"/>
<text text-anchor="middle" x="920.62" y="-120.75" font-family="Helvetica,sans-Serif" font-size="10.00">memory</text>
</a>
</g>
</g>
<!-- Node6&#45;&gt;Node10 -->
<g id="edge9_Node000006_Node000010" class="edge">
<title>Node6&#45;&gt;Node10</title>
<g id="a_edge9_Node000006_Node000010"><a xlink:title=" ">
<path fill="none" stroke="#63b8ff" d="M627.29,-293.68C678.97,-292.55 767.12,-284.69 831.62,-247.75 872.79,-224.17 900.08,-172.96 912.65,-144.66"/>
<polygon fill="#63b8ff" stroke="#63b8ff" points="916.18,-146.29 916.87,-135.72 909.74,-143.55 916.18,-146.29"/>
</a>
</g>
</g>
<!-- Node6&#45;&gt;Node11 -->
<g id="edge10_Node000006_Node000011" class="edge">
<title>Node6&#45;&gt;Node11</title>
<g id="a_edge10_Node000006_Node000011"><a xlink:title=" ">
<path fill="none" stroke="#63b8ff" d="M627.47,-290.49C707.46,-285.18 884.84,-271.64 1032.62,-247.75 1033.77,-247.57 1034.93,-247.37 1036.1,-247.16"/>
<polygon fill="#63b8ff" stroke="#63b8ff" points="1036.56,-250.44 1045.7,-245.09 1035.22,-243.57 1036.56,-250.44"/>
</a>
</g>
</g>
<!-- Node6&#45;&gt;Node12 -->
<g id="edge11_Node000006_Node000012" class="edge">
<title>Node6&#45;&gt;Node12</title>
<g id="a_edge11_Node000006_Node000012"><a xlink:title=" ">
<path fill="none" stroke="#63b8ff" d="M627.43,-291.22C736.92,-285.18 1018.62,-261.85 1018.62,-181.62 1018.62,-181.62 1018.62,-181.62 1018.62,-122.88 1018.62,-58.89 817.28,-28.94 708.1,-17.41"/>
<polygon fill="#63b8ff" stroke="#63b8ff" points="708.49,-13.83 698.19,-16.28 707.78,-20.79 708.49,-13.83"/>
</a>
</g>
</g>
<!-- Node13 -->
<g id="Node000013" class="node">
<title>Node13</title>
<g id="a_Node000013"><a xlink:title=" ">
<polygon fill="#e0e0e0" stroke="#999999" points="560.38,-20.75 452.88,-20.75 452.88,0 560.38,0 560.38,-20.75"/>
<text text-anchor="middle" x="506.62" y="-7.25" font-family="Helvetica,sans-Serif" font-size="10.00">Math/Rotation3D.h</text>
</a>
</g>
</g>
<!-- Node6&#45;&gt;Node13 -->
<g id="edge12_Node000006_Node000013" class="edge">
<title>Node6&#45;&gt;Node13</title>
<g id="a_edge12_Node000006_Node000013"><a xlink:title=" ">
<path fill="none" stroke="#63b8ff" d="M566.36,-283.34C553.21,-275.39 536.02,-263.03 525.62,-247.75 508.42,-222.47 506.62,-212.2 506.62,-181.62 506.62,-181.62 506.62,-181.62 506.62,-122.88 506.62,-91.19 506.62,-54.44 506.62,-32.05"/>
<polygon fill="#63b8ff" stroke="#63b8ff" points="510.13,-32.22 506.62,-22.22 503.13,-32.22 510.13,-32.22"/>
</a>
</g>
</g>
<!-- Node14 -->
<g id="Node000014" class="node">
<title>Node14</title>
<g id="a_Node000014"><a xlink:title=" ">
<polygon fill="#e0e0e0" stroke="#999999" points="635,-247.75 534.25,-247.75 534.25,-227 635,-227 635,-247.75"/>
<text text-anchor="middle" x="584.62" y="-234.25" font-family="Helvetica,sans-Serif" font-size="10.00">Math/RotationZ.h</text>
</a>
</g>
</g>
<!-- Node6&#45;&gt;Node14 -->
<g id="edge13_Node000006_Node000014" class="edge">
<title>Node6&#45;&gt;Node14</title>
<g id="a_edge13_Node000006_Node000014"><a xlink:title=" ">
<path fill="none" stroke="#63b8ff" d="M584.62,-283.34C584.62,-276.56 584.62,-267.3 584.62,-258.94"/>
<polygon fill="#63b8ff" stroke="#63b8ff" points="588.13,-259.08 584.62,-249.08 581.13,-259.08 588.13,-259.08"/>
</a>
</g>
</g>
<!-- Node15 -->
<g id="Node000015" class="node">
<title>Node15</title>
<g id="a_Node000015"><a xlink:href="SiPM_8h.html" target="_top" xlink:title=" ">
<polygon fill="white" stroke="#666666" points="740.12,-247.75 691.12,-247.75 691.12,-227 740.12,-227 740.12,-247.75"/>
<text text-anchor="middle" x="715.62" y="-234.25" font-family="Helvetica,sans-Serif" font-size="10.00">SiPM.h</text>
</a>
</g>
</g>
<!-- Node6&#45;&gt;Node15 -->
<g id="edge14_Node000006_Node000015" class="edge">
<title>Node6&#45;&gt;Node15</title>
<g id="a_edge14_Node000006_Node000015"><a xlink:title=" ">
<path fill="none" stroke="#63b8ff" d="M608.05,-283.34C628.72,-274.69 659.1,-262 682.31,-252.3"/>
<polygon fill="#63b8ff" stroke="#63b8ff" points="683.53,-255.16 691.41,-248.08 680.83,-248.71 683.53,-255.16"/>
</a>
</g>
</g>
<!-- Node6&#45;&gt;Node18 -->
<g id="edge39_Node000006_Node000018" class="edge">
<title>Node6&#45;&gt;Node18</title>
<g id="a_edge39_Node000006_Node000018"><a xlink:title=" ">
<path fill="none" stroke="#63b8ff" d="M541.67,-285.57C514.53,-279.11 479.93,-267.59 454.62,-247.75 438.84,-235.37 427.05,-215.52 419.84,-200.79"/>
<polygon fill="#63b8ff" stroke="#63b8ff" points="422.77,-199.78 415.41,-192.15 416.41,-202.7 422.77,-199.78"/>
</a>
</g>
</g>
<!-- Node21 -->
<g id="Node000021" class="node">
<title>Node21</title>
<g id="a_Node000021"><a xlink:href="ARCVector_8h.html" target="_top" xlink:title=" ">
<polygon fill="white" stroke="#666666" points="456.25,-77.5 381,-77.5 381,-56.75 456.25,-56.75 456.25,-77.5"/>
<text text-anchor="middle" x="418.62" y="-64" font-family="Helvetica,sans-Serif" font-size="10.00">ARCVector.h</text>
</a>
</g>
</g>
<!-- Node6&#45;&gt;Node21 -->
<g id="edge40_Node000006_Node000021" class="edge">
<title>Node6&#45;&gt;Node21</title>
<g id="a_edge40_Node000006_Node000021"><a xlink:title=" ">
<path fill="none" stroke="#63b8ff" d="M551.19,-283.26C531.91,-276.1 508.43,-264.66 492.62,-247.75 469.89,-223.43 438.21,-129.78 424.9,-88.21"/>
<polygon fill="#63b8ff" stroke="#63b8ff" points="428.01,-87.44 421.66,-78.96 421.34,-89.55 428.01,-87.44"/>
</a>
</g>
</g>
<!-- Node15&#45;&gt;Node7 -->
<g id="edge16_Node000015_Node000007" class="edge">
<title>Node15&#45;&gt;Node7</title>
<g id="a_edge16_Node000015_Node000007"><a xlink:title=" ">
<path fill="none" stroke="#63b8ff" d="M690.69,-229.05C662.03,-220.13 617.55,-204.57 606.62,-191 596.33,-178.22 593.73,-159.53 593.47,-145.27"/>
<polygon fill="#63b8ff" stroke="#63b8ff" points="596.98,-145.64 593.69,-135.57 589.98,-145.5 596.98,-145.64"/>
</a>
</g>
</g>
<!-- Node15&#45;&gt;Node8 -->
<g id="edge15_Node000015_Node000008" class="edge">
<title>Node15&#45;&gt;Node8</title>
<g id="a_edge15_Node000015_Node000008"><a xlink:title=" ">
<path fill="none" stroke="#63b8ff" d="M740.6,-235.72C771.35,-233.43 822.58,-224.47 847.62,-191 857.31,-178.06 857.26,-159.39 855.25,-145.18"/>
<polygon fill="#63b8ff" stroke="#63b8ff" points="858.53,-144.71 853.27,-135.52 851.65,-145.99 858.53,-144.71"/>
</a>
</g>
</g>
<!-- Node15&#45;&gt;Node10 -->
<g id="edge17_Node000015_Node000010" class="edge">
<title>Node15&#45;&gt;Node10</title>
<g id="a_edge17_Node000015_Node000010"><a xlink:title=" ">
<path fill="none" stroke="#63b8ff" d="M740.4,-233.22C771.55,-228.33 825.66,-216.64 864.62,-191 883.39,-178.66 899.31,-158.22 909.33,-143.33"/>
<polygon fill="#63b8ff" stroke="#63b8ff" points="912.55,-145.79 915.03,-135.48 906.67,-142 912.55,-145.79"/>
</a>
</g>
</g>
<!-- Node15&#45;&gt;Node12 -->
<g id="edge20_Node000015_Node000012" class="edge">
<title>Node15&#45;&gt;Node12</title>
<g id="a_edge20_Node000015_Node000012"><a xlink:title=" ">
<path fill="none" stroke="#63b8ff" d="M690.99,-228.97C673.23,-222.2 650.55,-210.24 639.62,-191 624.53,-164.4 632.57,-73.09 637.15,-31.86"/>
<polygon fill="#63b8ff" stroke="#63b8ff" points="640.73,-32.35 638.41,-22.02 633.78,-31.55 640.73,-32.35"/>
</a>
</g>
</g>
<!-- Node16 -->
<g id="Node000016" class="node">
<title>Node16</title>
<g id="a_Node000016"><a xlink:title=" ">
<polygon fill="#e0e0e0" stroke="#999999" points="710.88,-191 648.38,-191 648.38,-170.25 710.88,-170.25 710.88,-191"/>
<text text-anchor="middle" x="679.62" y="-177.5" font-family="Helvetica,sans-Serif" font-size="10.00">TObject.h</text>
</a>
</g>
</g>
<!-- Node15&#45;&gt;Node16 -->
<g id="edge18_Node000015_Node000016" class="edge">
<title>Node15&#45;&gt;Node16</title>
<g id="a_edge18_Node000015_Node000016"><a xlink:title=" ">
<path fill="none" stroke="#63b8ff" d="M709.19,-226.59C704.43,-219.35 697.8,-209.26 692.02,-200.47"/>
<polygon fill="#63b8ff" stroke="#63b8ff" points="694.42,-198.76 686.01,-192.33 688.58,-202.61 694.42,-198.76"/>
</a>
</g>
</g>
<!-- Node17 -->
<g id="Node000017" class="node">
<title>Node17</title>
<g id="a_Node000017"><a xlink:title=" ">
<polygon fill="#e0e0e0" stroke="#999999" points="838.12,-191 729.12,-191 729.12,-170.25 838.12,-170.25 838.12,-191"/>
<text text-anchor="middle" x="783.62" y="-177.5" font-family="Helvetica,sans-Serif" font-size="10.00">Math/Interpolator.h</text>
</a>
</g>
</g>
<!-- Node15&#45;&gt;Node17 -->
<g id="edge19_Node000015_Node000017" class="edge">
<title>Node15&#45;&gt;Node17</title>
<g id="a_edge19_Node000015_Node000017"><a xlink:title=" ">
<path fill="none" stroke="#63b8ff" d="M727.78,-226.59C737.65,-218.65 751.76,-207.28 763.33,-197.96"/>
<polygon fill="#63b8ff" stroke="#63b8ff" points="764.98,-200.33 770.57,-191.33 760.59,-194.87 764.98,-200.33"/>
</a>
</g>
</g>
<!-- Node15&#45;&gt;Node18 -->
<g id="edge21_Node000015_Node000018" class="edge">
<title>Node15&#45;&gt;Node18</title>
<g id="a_edge21_Node000015_Node000018"><a xlink:title=" ">
<path fill="none" stroke="#63b8ff" d="M690.75,-231.89C638.2,-222.43 515.51,-200.33 451.73,-188.85"/>
<polygon fill="#63b8ff" stroke="#63b8ff" points="452.74,-185.29 442.28,-186.96 451.5,-192.18 452.74,-185.29"/>
</a>
</g>
</g>
<!-- Node18&#45;&gt;Node5 -->
<g id="edge28_Node000018_Node000005" class="edge">
<title>Node18&#45;&gt;Node5</title>
<g id="a_edge28_Node000018_Node000005"><a xlink:title=" ">
<path fill="none" stroke="#63b8ff" d="M381.96,-177.39C347.49,-173.5 290.29,-162.91 250.62,-134.25 213.4,-107.35 187.74,-58.26 175.62,-30.98"/>
<polygon fill="#63b8ff" stroke="#63b8ff" points="178.53,-29.88 171.38,-22.06 172.09,-32.63 178.53,-29.88"/>
</a>
</g>
</g>
<!-- Node18&#45;&gt;Node7 -->
<g id="edge25_Node000018_Node000007" class="edge">
<title>Node18&#45;&gt;Node7</title>
<g id="a_edge25_Node000018_Node000007"><a xlink:title=" ">
<path fill="none" stroke="#63b8ff" d="M441.43,-170.71C474.52,-160.81 527.74,-144.89 561.94,-134.65"/>
<polygon fill="#63b8ff" stroke="#63b8ff" points="562.75,-137.77 571.32,-131.55 560.74,-131.06 562.75,-137.77"/>
</a>
</g>
</g>
<!-- Node18&#45;&gt;Node8 -->
<g id="edge23_Node000018_Node000008" class="edge">
<title>Node18&#45;&gt;Node8</title>
<g id="a_edge23_Node000018_Node000008"><a xlink:title=" ">
<path fill="none" stroke="#63b8ff" d="M441.45,-175.9C520.05,-166.1 732.52,-139.6 816.14,-129.18"/>
<polygon fill="#63b8ff" stroke="#63b8ff" points="816.34,-132.55 825.83,-127.84 815.47,-125.61 816.34,-132.55"/>
</a>
</g>
</g>
<!-- Node18&#45;&gt;Node9 -->
<g id="edge24_Node000018_Node000009" class="edge">
<title>Node18&#45;&gt;Node9</title>
<g id="a_edge24_Node000018_Node000009"><a xlink:title=" ">
<path fill="none" stroke="#63b8ff" d="M382.05,-180.22C347.05,-179.12 290.07,-171.3 262.62,-134.25 239.51,-103.05 261.89,-56.07 277.81,-30.17"/>
<polygon fill="#63b8ff" stroke="#63b8ff" points="281.2,-32.36 283.68,-22.06 275.32,-28.57 281.2,-32.36"/>
</a>
</g>
</g>
<!-- Node18&#45;&gt;Node10 -->
<g id="edge22_Node000018_Node000010" class="edge">
<title>Node18&#45;&gt;Node10</title>
<g id="a_edge22_Node000018_Node000010"><a xlink:title=" ">
<path fill="none" stroke="#63b8ff" d="M441.31,-178.27C514.4,-174.62 709.02,-162.96 880.91,-134.3"/>
<polygon fill="#63b8ff" stroke="#63b8ff" points="881.39,-137.6 890.67,-132.48 880.23,-130.7 881.39,-137.6"/>
</a>
</g>
</g>
<!-- Node18&#45;&gt;Node12 -->
<g id="edge27_Node000018_Node000012" class="edge">
<title>Node18&#45;&gt;Node12</title>
<g id="a_edge27_Node000018_Node000012"><a xlink:title=" ">
<path fill="none" stroke="#63b8ff" d="M424.87,-169.85C462.57,-142.03 570.76,-62.2 617.58,-27.64"/>
<polygon fill="#63b8ff" stroke="#63b8ff" points="619.38,-29.93 625.34,-21.18 615.22,-24.3 619.38,-29.93"/>
</a>
</g>
</g>
<!-- Node19 -->
<g id="Node000019" class="node">
<title>Node19</title>
<g id="a_Node000019"><a xlink:title=" ">
<polygon fill="#e0e0e0" stroke="#999999" points="323.25,-134.25 272,-134.25 272,-113.5 323.25,-113.5 323.25,-134.25"/>
<text text-anchor="middle" x="297.62" y="-120.75" font-family="Helvetica,sans-Serif" font-size="10.00">TLine.h</text>
</a>
</g>
</g>
<!-- Node18&#45;&gt;Node19 -->
<g id="edge26_Node000018_Node000019" class="edge">
<title>Node18&#45;&gt;Node19</title>
<g id="a_edge26_Node000018_Node000019"><a xlink:title=" ">
<path fill="none" stroke="#63b8ff" d="M391.24,-169.84C373.57,-161.35 347.76,-148.95 327.71,-139.33"/>
<polygon fill="#63b8ff" stroke="#63b8ff" points="329.36,-135.75 318.83,-134.58 326.33,-142.06 329.36,-135.75"/>
</a>
</g>
</g>
<!-- Node20 -->
<g id="Node000020" class="node">
<title>Node20</title>
<g id="a_Node000020"><a xlink:href="Particle_8h.html" target="_top" xlink:title=" ">
<polygon fill="white" stroke="#666666" points="402.12,-134.25 341.12,-134.25 341.12,-113.5 402.12,-113.5 402.12,-134.25"/>
<text text-anchor="middle" x="371.62" y="-120.75" font-family="Helvetica,sans-Serif" font-size="10.00">Particle.h</text>
</a>
</g>
</g>
<!-- Node18&#45;&gt;Node20 -->
<g id="edge29_Node000018_Node000020" class="edge">
<title>Node18&#45;&gt;Node20</title>
<g id="a_edge29_Node000018_Node000020"><a xlink:title=" ">
<path fill="none" stroke="#63b8ff" d="M404.47,-169.84C399.13,-162.52 391.66,-152.29 385.19,-143.44"/>
<polygon fill="#63b8ff" stroke="#63b8ff" points="387.44,-141.59 378.71,-135.58 381.79,-145.72 387.44,-141.59"/>
</a>
</g>
</g>
<!-- Node18&#45;&gt;Node21 -->
<g id="edge38_Node000018_Node000021" class="edge">
<title>Node18&#45;&gt;Node21</title>
<g id="a_edge38_Node000018_Node000021"><a xlink:title=" ">
<path fill="none" stroke="#63b8ff" d="M412.22,-170.12C413.35,-152.19 415.81,-113 417.33,-88.76"/>
<polygon fill="#63b8ff" stroke="#63b8ff" points="420.88,-89.12 418.01,-78.93 413.89,-88.69 420.88,-89.12"/>
</a>
</g>
</g>
<!-- Node20&#45;&gt;Node5 -->
<g id="edge31_Node000020_Node000005" class="edge">
<title>Node20&#45;&gt;Node5</title>
<g id="a_edge31_Node000020_Node000005"><a xlink:title=" ">
<path fill="none" stroke="#63b8ff" d="M353.88,-113.18C318.16,-93.65 237.39,-49.51 194.91,-26.29"/>
<polygon fill="#63b8ff" stroke="#63b8ff" points="196.93,-22.86 186.48,-21.13 193.57,-29 196.93,-22.86"/>
</a>
</g>
</g>
<!-- Node20&#45;&gt;Node12 -->
<g id="edge30_Node000020_Node000012" class="edge">
<title>Node20&#45;&gt;Node12</title>
<g id="a_edge30_Node000020_Node000012"><a xlink:title=" ">
<path fill="none" stroke="#63b8ff" d="M394.94,-113.18C442.56,-93.36 551.12,-48.2 606.22,-25.27"/>
<polygon fill="#63b8ff" stroke="#63b8ff" points="607.29,-28.2 615.17,-21.13 604.6,-21.74 607.29,-28.2"/>
</a>
</g>
</g>
<!-- Node20&#45;&gt;Node21 -->
<g id="edge32_Node000020_Node000021" class="edge">
<title>Node20&#45;&gt;Node21</title>
<g id="a_edge32_Node000020_Node000021"><a xlink:title=" ">
<path fill="none" stroke="#63b8ff" d="M380.03,-113.09C386.44,-105.61 395.46,-95.11 403.17,-86.13"/>
<polygon fill="#63b8ff" stroke="#63b8ff" points="406.44,-88.7 410.3,-78.83 401.13,-84.14 406.44,-88.7"/>
</a>
</g>
</g>
<!-- Node21&#45;&gt;Node5 -->
<g id="edge36_Node000021_Node000005" class="edge">
<title>Node21&#45;&gt;Node5</title>
<g id="a_edge36_Node000021_Node000005"><a xlink:title=" ">
<path fill="none" stroke="#63b8ff" d="M380.5,-57.81C338.56,-48.66 270.75,-33.87 222.96,-23.44"/>
<polygon fill="#63b8ff" stroke="#63b8ff" points="223.99,-19.87 213.48,-21.16 222.5,-26.71 223.99,-19.87"/>
</a>
</g>
</g>
<!-- Node21&#45;&gt;Node9 -->
<g id="edge33_Node000021_Node000009" class="edge">
<title>Node21&#45;&gt;Node9</title>
<g id="a_edge33_Node000021_Node000009"><a xlink:title=" ">
<path fill="none" stroke="#63b8ff" d="M395.74,-56.34C375.54,-47.69 345.85,-35 323.18,-25.3"/>
<polygon fill="#63b8ff" stroke="#63b8ff" points="324.88,-21.79 314.31,-21.08 322.13,-28.23 324.88,-21.79"/>
</a>
</g>
</g>
<!-- Node21&#45;&gt;Node12 -->
<g id="edge35_Node000021_Node000012" class="edge">
<title>Node21&#45;&gt;Node12</title>
<g id="a_edge35_Node000021_Node000012"><a xlink:title=" ">
<path fill="none" stroke="#63b8ff" d="M456.62,-56.71C493.24,-47.64 548.9,-33.85 589.22,-23.86"/>
<polygon fill="#63b8ff" stroke="#63b8ff" points="590.03,-27.02 598.9,-21.22 588.35,-20.22 590.03,-27.02"/>
</a>
</g>
</g>
<!-- Node21&#45;&gt;Node13 -->
<g id="edge37_Node000021_Node000013" class="edge">
<title>Node21&#45;&gt;Node13</title>
<g id="a_edge37_Node000021_Node000013"><a xlink:title=" ">
<path fill="none" stroke="#63b8ff" d="M434.36,-56.34C447.62,-48.08 466.83,-36.13 482.11,-26.63"/>
<polygon fill="#63b8ff" stroke="#63b8ff" points="483.39,-29.33 490.03,-21.08 479.69,-23.39 483.39,-29.33"/>
</a>
</g>
</g>
<!-- Node22 -->
<g id="Node000022" class="node">
<title>Node22</title>
<g id="a_Node000022"><a xlink:title=" ">
<polygon fill="#e0e0e0" stroke="#999999" points="434.5,-20.75 378.75,-20.75 378.75,0 434.5,0 434.5,-20.75"/>
<text text-anchor="middle" x="406.62" y="-7.25" font-family="Helvetica,sans-Serif" font-size="10.00">optional</text>
</a>
</g>
</g>
<!-- Node21&#45;&gt;Node22 -->
<g id="edge34_Node000021_Node000022" class="edge">
<title>Node21&#45;&gt;Node22</title>
<g id="a_edge34_Node000021_Node000022"><a xlink:title=" ">
<path fill="none" stroke="#63b8ff" d="M416.48,-56.34C414.98,-49.49 412.92,-40.09 411.07,-31.65"/>
<polygon fill="#63b8ff" stroke="#63b8ff" points="414.31,-31.1 408.75,-22.08 407.47,-32.6 414.31,-31.1"/>
</a>
</g>
</g>
<!-- Node23&#45;&gt;Node18 -->
<g id="edge42_Node000023_Node000018" class="edge">
<title>Node23&#45;&gt;Node18</title>
<g id="a_edge42_Node000023_Node000018"><a xlink:title=" ">
<path fill="none" stroke="#63b8ff" d="M391.5,-283.62C395.05,-265.61 402.84,-226.14 407.62,-201.93"/>
<polygon fill="#63b8ff" stroke="#63b8ff" points="411.19,-202.91 409.69,-192.43 404.32,-201.56 411.19,-202.91"/>
</a>
</g>
</g>
</g>
</svg>
