<?xml version="1.0" encoding="UTF-8" standalone="no"?>
<!DOCTYPE svg PUBLIC "-//W3C//DTD SVG 1.1//EN"
 "http://www.w3.org/Graphics/SVG/1.1/DTD/svg11.dtd">
<!-- Generated by graphviz version 8.0.5 (20230430.1635)
 -->
<!-- Title: include/RadiatorCell.h Pages: 1 -->
<svg width="817pt" height="313pt"
 viewBox="0.00 0.00 817.00 312.50" xmlns="http://www.w3.org/2000/svg" xmlns:xlink="http://www.w3.org/1999/xlink">
<g id="graph0" class="graph" transform="scale(1 1) rotate(0) translate(4 308.5)">
<title>include/RadiatorCell.h</title>
<!-- Node1 -->
<g id="Node000001" class="node">
<title>Node1</title>
<g id="a_Node000001"><a xlink:title=" ">
<polygon fill="#999999" stroke="#666666" points="535.62,-304.5 412.38,-304.5 412.38,-283.75 535.62,-283.75 535.62,-304.5"/>
<text text-anchor="middle" x="474" y="-291" font-family="Helvetica,sans-Serif" font-size="10.00">include/RadiatorCell.h</text>
</a>
</g>
</g>
<!-- Node2 -->
<g id="Node000002" class="node">
<title>Node2</title>
<g id="a_Node000002"><a xlink:title=" ">
<polygon fill="#e0e0e0" stroke="#999999" points="301.88,-134.25 258.12,-134.25 258.12,-113.5 301.88,-113.5 301.88,-134.25"/>
<text text-anchor="middle" x="280" y="-120.75" font-family="Helvetica,sans-Serif" font-size="10.00">string</text>
</a>
</g>
</g>
<!-- Node1&#45;&gt;Node2 -->
<g id="edge1_Node000001_Node000002" class="edge">
<title>Node1&#45;&gt;Node2</title>
<g id="a_edge1_Node000001_Node000002"><a xlink:title=" ">
<path fill="none" stroke="#63b8ff" d="M411.91,-285.55C314.57,-272.26 133.19,-241.26 95,-191 54.61,-137.84 184.15,-127.31 247.37,-125.31"/>
<polygon fill="#63b8ff" stroke="#63b8ff" points="247.08,-128.79 256.99,-125.03 246.9,-121.79 247.08,-128.79"/>
</a>
</g>
</g>
<!-- Node3 -->
<g id="Node000003" class="node">
<title>Node3</title>
<g id="a_Node000003"><a xlink:title=" ">
<polygon fill="#e0e0e0" stroke="#999999" points="442.38,-134.25 395.62,-134.25 395.62,-113.5 442.38,-113.5 442.38,-134.25"/>
<text text-anchor="middle" x="419" y="-120.75" font-family="Helvetica,sans-Serif" font-size="10.00">vector</text>
</a>
</g>
</g>
<!-- Node1&#45;&gt;Node3 -->
<g id="edge2_Node000001_Node000003" class="edge">
<title>Node1&#45;&gt;Node3</title>
<g id="a_edge2_Node000001_Node000003"><a xlink:title=" ">
<path fill="none" stroke="#63b8ff" d="M478.64,-283.48C488.37,-261.78 508.38,-208.05 488,-170.25 480.33,-156.03 466.05,-145.54 452.46,-138.25"/>
<polygon fill="#63b8ff" stroke="#63b8ff" points="454.31,-134.77 443.79,-133.5 451.23,-141.05 454.31,-134.77"/>
</a>
</g>
</g>
<!-- Node4 -->
<g id="Node000004" class="node">
<title>Node4</title>
<g id="a_Node000004"><a xlink:title=" ">
<polygon fill="#e0e0e0" stroke="#999999" points="802.25,-20.75 757.75,-20.75 757.75,0 802.25,0 802.25,-20.75"/>
<text text-anchor="middle" x="780" y="-7.25" font-family="Helvetica,sans-Serif" font-size="10.00">utility</text>
</a>
</g>
</g>
<!-- Node1&#45;&gt;Node4 -->
<g id="edge3_Node000001_Node000004" class="edge">
<title>Node1&#45;&gt;Node4</title>
<g id="a_edge3_Node000001_Node000004"><a xlink:title=" ">
<path fill="none" stroke="#63b8ff" d="M535.83,-285.41C632.63,-271.57 809,-238.55 809,-181.62 809,-181.62 809,-181.62 809,-122.88 809,-89.83 796.92,-53 788.36,-31.03"/>
<polygon fill="#63b8ff" stroke="#63b8ff" points="791.29,-29.95 784.28,-22 784.8,-32.58 791.29,-29.95"/>
</a>
</g>
</g>
<!-- Node5 -->
<g id="Node000005" class="node">
<title>Node5</title>
<g id="a_Node000005"><a xlink:title=" ">
<polygon fill="#e0e0e0" stroke="#999999" points="377.62,-134.25 320.38,-134.25 320.38,-113.5 377.62,-113.5 377.62,-134.25"/>
<text text-anchor="middle" x="349" y="-120.75" font-family="Helvetica,sans-Serif" font-size="10.00">memory</text>
</a>
</g>
</g>
<!-- Node1&#45;&gt;Node5 -->
<g id="edge4_Node000001_Node000005" class="edge">
<title>Node1&#45;&gt;Node5</title>
<g id="a_edge4_Node000001_Node000005"><a xlink:title=" ">
<path fill="none" stroke="#63b8ff" d="M475.43,-283.29C478.14,-260.73 481.6,-204.53 455,-170.25 446.28,-159.01 414.57,-146.26 388.08,-137.15"/>
<polygon fill="#63b8ff" stroke="#63b8ff" points="389.47,-133.59 378.88,-133.72 387.24,-140.22 389.47,-133.59"/>
</a>
</g>
</g>
<!-- Node6 -->
<g id="Node000006" class="node">
<title>Node6</title>
<g id="a_Node000006"><a xlink:title=" ">
<polygon fill="#e0e0e0" stroke="#999999" points="445.88,-247.75 390.12,-247.75 390.12,-227 445.88,-227 445.88,-247.75"/>
<text text-anchor="middle" x="418" y="-234.25" font-family="Helvetica,sans-Serif" font-size="10.00">TMath.h</text>
</a>
</g>
</g>
<!-- Node1&#45;&gt;Node6 -->
<g id="edge5_Node000001_Node000006" class="edge">
<title>Node1&#45;&gt;Node6</title>
<g id="a_edge5_Node000001_Node000006"><a xlink:title=" ">
<path fill="none" stroke="#63b8ff" d="M463.99,-283.34C456.1,-275.63 444.92,-264.7 435.56,-255.54"/>
<polygon fill="#63b8ff" stroke="#63b8ff" points="438.52,-253.57 428.93,-249.08 433.63,-258.57 438.52,-253.57"/>
</a>
</g>
</g>
<!-- Node7 -->
<g id="Node000007" class="node">
<title>Node7</title>
<g id="a_Node000007"><a xlink:title=" ">
<polygon fill="#e0e0e0" stroke="#999999" points="483.12,-20.75 368.88,-20.75 368.88,0 483.12,0 483.12,-20.75"/>
<text text-anchor="middle" x="426" y="-7.25" font-family="Helvetica,sans-Serif" font-size="10.00">Math/Vector3Dfwd.h</text>
</a>
</g>
</g>
<!-- Node1&#45;&gt;Node7 -->
<g id="edge6_Node000001_Node000007" class="edge">
<title>Node1&#45;&gt;Node7</title>
<g id="a_edge6_Node000001_Node000007"><a xlink:title=" ">
<path fill="none" stroke="#63b8ff" d="M411.99,-290.15C291.62,-282.69 38,-257.9 38,-181.62 38,-181.62 38,-181.62 38,-122.88 38,-57.08 246.69,-27.82 357.97,-16.9"/>
<polygon fill="#63b8ff" stroke="#63b8ff" points="358.13,-20.3 367.75,-15.86 357.46,-13.33 358.13,-20.3"/>
</a>
</g>
</g>
<!-- Node8 -->
<g id="Node000008" class="node">
<title>Node8</title>
<g id="a_Node000008"><a xlink:title=" ">
<polygon fill="#e0e0e0" stroke="#999999" points="187.75,-20.75 80.25,-20.75 80.25,0 187.75,0 187.75,-20.75"/>
<text text-anchor="middle" x="134" y="-7.25" font-family="Helvetica,sans-Serif" font-size="10.00">Math/Rotation3D.h</text>
</a>
</g>
</g>
<!-- Node1&#45;&gt;Node8 -->
<g id="edge7_Node000001_Node000008" class="edge">
<title>Node1&#45;&gt;Node8</title>
<g id="a_edge7_Node000001_Node000008"><a xlink:title=" ">
<path fill="none" stroke="#63b8ff" d="M412.03,-290.81C314.73,-286.39 131.12,-274.69 72,-247.75 32.46,-229.73 0,-225.07 0,-181.62 0,-181.62 0,-181.62 0,-122.88 0,-73.56 54.28,-41.85 93.75,-25.32"/>
<polygon fill="#63b8ff" stroke="#63b8ff" points="94.94,-28.21 102.93,-21.24 92.34,-21.71 94.94,-28.21"/>
</a>
</g>
</g>
<!-- Node9 -->
<g id="Node000009" class="node">
<title>Node9</title>
<g id="a_Node000009"><a xlink:title=" ">
<polygon fill="#e0e0e0" stroke="#999999" points="640.38,-247.75 539.62,-247.75 539.62,-227 640.38,-227 640.38,-247.75"/>
<text text-anchor="middle" x="590" y="-234.25" font-family="Helvetica,sans-Serif" font-size="10.00">Math/RotationZ.h</text>
</a>
</g>
</g>
<!-- Node1&#45;&gt;Node9 -->
<g id="edge8_Node000001_Node000009" class="edge">
<title>Node1&#45;&gt;Node9</title>
<g id="a_edge8_Node000001_Node000009"><a xlink:title=" ">
<path fill="none" stroke="#63b8ff" d="M494.74,-283.34C512.8,-274.81 539.22,-262.34 559.66,-252.69"/>
<polygon fill="#63b8ff" stroke="#63b8ff" points="560.89,-255.51 568.44,-248.08 557.9,-249.18 560.89,-255.51"/>
</a>
</g>
</g>
<!-- Node10 -->
<g id="Node000010" class="node">
<title>Node10</title>
<g id="a_Node000010"><a xlink:href="SiPM_8h.html" target="_top" xlink:title=" ">
<polygon fill="white" stroke="#666666" points="357.5,-247.75 308.5,-247.75 308.5,-227 357.5,-227 357.5,-247.75"/>
<text text-anchor="middle" x="333" y="-234.25" font-family="Helvetica,sans-Serif" font-size="10.00">SiPM.h</text>
</a>
</g>
</g>
<!-- Node1&#45;&gt;Node10 -->
<g id="edge9_Node000001_Node000010" class="edge">
<title>Node1&#45;&gt;Node10</title>
<g id="a_edge9_Node000001_Node000010"><a xlink:title=" ">
<path fill="none" stroke="#63b8ff" d="M448.79,-283.34C426.34,-274.62 393.25,-261.77 368.18,-252.04"/>
<polygon fill="#63b8ff" stroke="#63b8ff" points="369.58,-248.44 358.99,-248.08 367.04,-254.96 369.58,-248.44"/>
</a>
</g>
</g>
<!-- Node13 -->
<g id="Node000013" class="node">
<title>Node13</title>
<g id="a_Node000013"><a xlink:href="Photon_8h.html" target="_top" xlink:title=" ">
<polygon fill="white" stroke="#666666" points="598.38,-191 539.62,-191 539.62,-170.25 598.38,-170.25 598.38,-191"/>
<text text-anchor="middle" x="569" y="-177.5" font-family="Helvetica,sans-Serif" font-size="10.00">Photon.h</text>
</a>
</g>
</g>
<!-- Node1&#45;&gt;Node13 -->
<g id="edge34_Node000001_Node000013" class="edge">
<title>Node1&#45;&gt;Node13</title>
<g id="a_edge34_Node000001_Node000013"><a xlink:title=" ">
<path fill="none" stroke="#63b8ff" d="M535.86,-285.16C580.41,-278 635.03,-265.81 649,-247.75 665.4,-226.55 635.74,-207.67 608,-195.56"/>
<polygon fill="#63b8ff" stroke="#63b8ff" points="609.54,-192 598.96,-191.42 606.87,-198.47 609.54,-192"/>
</a>
</g>
</g>
<!-- Node17 -->
<g id="Node000017" class="node">
<title>Node17</title>
<g id="a_Node000017"><a xlink:href="ARCVector_8h.html" target="_top" xlink:title=" ">
<polygon fill="white" stroke="#666666" points="664.62,-77.5 589.38,-77.5 589.38,-56.75 664.62,-56.75 664.62,-77.5"/>
<text text-anchor="middle" x="627" y="-64" font-family="Helvetica,sans-Serif" font-size="10.00">ARCVector.h</text>
</a>
</g>
</g>
<!-- Node1&#45;&gt;Node17 -->
<g id="edge35_Node000001_Node000017" class="edge">
<title>Node1&#45;&gt;Node17</title>
<g id="a_edge35_Node000001_Node000017"><a xlink:title=" ">
<path fill="none" stroke="#63b8ff" d="M535.98,-286.68C585.46,-280.1 649.05,-267.94 665,-247.75 703.12,-199.52 662.23,-122.01 639.75,-86.71"/>
<polygon fill="#63b8ff" stroke="#63b8ff" points="642.39,-85.36 633.98,-78.93 636.55,-89.21 642.39,-85.36"/>
</a>
</g>
</g>
<!-- Node10&#45;&gt;Node2 -->
<g id="edge11_Node000010_Node000002" class="edge">
<title>Node10&#45;&gt;Node2</title>
<g id="a_edge11_Node000010_Node000002"><a xlink:title=" ">
<path fill="none" stroke="#63b8ff" d="M328.48,-226.87C319.84,-208.69 300.82,-168.67 289.34,-144.52"/>
<polygon fill="#63b8ff" stroke="#63b8ff" points="292.11,-143.2 284.66,-135.68 285.79,-146.21 292.11,-143.2"/>
</a>
</g>
</g>
<!-- Node10&#45;&gt;Node3 -->
<g id="edge10_Node000010_Node000003" class="edge">
<title>Node10&#45;&gt;Node3</title>
<g id="a_edge10_Node000010_Node000003"><a xlink:title=" ">
<path fill="none" stroke="#63b8ff" d="M338.4,-226.54C345.88,-213.25 360.17,-189.04 375,-170.25 382.85,-160.3 392.57,-150.09 400.88,-141.88"/>
<polygon fill="#63b8ff" stroke="#63b8ff" points="402.84,-144.89 407.6,-135.43 397.97,-139.86 402.84,-144.89"/>
</a>
</g>
</g>
<!-- Node10&#45;&gt;Node5 -->
<g id="edge12_Node000010_Node000005" class="edge">
<title>Node10&#45;&gt;Node5</title>
<g id="a_edge12_Node000010_Node000005"><a xlink:title=" ">
<path fill="none" stroke="#63b8ff" d="M334.29,-226.51C335.99,-213.58 339.1,-190.2 342,-170.25 343.19,-162.08 344.56,-153.09 345.77,-145.28"/>
<polygon fill="#63b8ff" stroke="#63b8ff" points="349.36,-146.03 347.45,-135.6 342.44,-144.94 349.36,-146.03"/>
</a>
</g>
</g>
<!-- Node10&#45;&gt;Node7 -->
<g id="edge15_Node000010_Node000007" class="edge">
<title>Node10&#45;&gt;Node7</title>
<g id="a_edge15_Node000010_Node000007"><a xlink:title=" ">
<path fill="none" stroke="#63b8ff" d="M317.15,-226.52C286.37,-206.09 223.67,-157.36 249,-113.5 276.32,-66.2 334.79,-38.86 377.07,-24.57"/>
<polygon fill="#63b8ff" stroke="#63b8ff" points="378,-27.63 386.44,-21.22 375.85,-20.97 378,-27.63"/>
</a>
</g>
</g>
<!-- Node11 -->
<g id="Node000011" class="node">
<title>Node11</title>
<g id="a_Node000011"><a xlink:title=" ">
<polygon fill="#e0e0e0" stroke="#999999" points="446.25,-191 383.75,-191 383.75,-170.25 446.25,-170.25 446.25,-191"/>
<text text-anchor="middle" x="415" y="-177.5" font-family="Helvetica,sans-Serif" font-size="10.00">TObject.h</text>
</a>
</g>
</g>
<!-- Node10&#45;&gt;Node11 -->
<g id="edge13_Node000010_Node000011" class="edge">
<title>Node10&#45;&gt;Node11</title>
<g id="a_edge13_Node000010_Node000011"><a xlink:title=" ">
<path fill="none" stroke="#63b8ff" d="M347.66,-226.59C359.79,-218.49 377.25,-206.83 391.35,-197.42"/>
<polygon fill="#63b8ff" stroke="#63b8ff" points="393.09,-199.79 399.47,-191.33 389.21,-193.97 393.09,-199.79"/>
</a>
</g>
</g>
<!-- Node12 -->
<g id="Node000012" class="node">
<title>Node12</title>
<g id="a_Node000012"><a xlink:title=" ">
<polygon fill="#e0e0e0" stroke="#999999" points="213.5,-191 104.5,-191 104.5,-170.25 213.5,-170.25 213.5,-191"/>
<text text-anchor="middle" x="159" y="-177.5" font-family="Helvetica,sans-Serif" font-size="10.00">Math/Interpolator.h</text>
</a>
</g>
</g>
<!-- Node10&#45;&gt;Node12 -->
<g id="edge14_Node000010_Node000012" class="edge">
<title>Node10&#45;&gt;Node12</title>
<g id="a_edge14_Node000010_Node000012"><a xlink:title=" ">
<path fill="none" stroke="#63b8ff" d="M308.07,-228.53C280.09,-219.73 234.23,-205.3 200.76,-194.76"/>
<polygon fill="#63b8ff" stroke="#63b8ff" points="201.95,-191.16 191.36,-191.49 199.85,-197.83 201.95,-191.16"/>
</a>
</g>
</g>
<!-- Node10&#45;&gt;Node13 -->
<g id="edge16_Node000010_Node000013" class="edge">
<title>Node10&#45;&gt;Node13</title>
<g id="a_edge16_Node000010_Node000013"><a xlink:title=" ">
<path fill="none" stroke="#63b8ff" d="M357.81,-230.62C398.52,-221.18 479.85,-202.31 528.85,-190.94"/>
<polygon fill="#63b8ff" stroke="#63b8ff" points="529.43,-194.17 538.38,-188.5 527.85,-187.35 529.43,-194.17"/>
</a>
</g>
</g>
<!-- Node13&#45;&gt;Node2 -->
<g id="edge20_Node000013_Node000002" class="edge">
<title>Node13&#45;&gt;Node2</title>
<g id="a_edge20_Node000013_Node000002"><a xlink:title=" ">
<path fill="none" stroke="#63b8ff" d="M539.36,-175.59C493.02,-169.03 400.45,-154.91 312.91,-134.48"/>
<polygon fill="#63b8ff" stroke="#63b8ff" points="313.8,-130.86 303.26,-131.96 312.19,-137.67 313.8,-130.86"/>
</a>
</g>
</g>
<!-- Node13&#45;&gt;Node3 -->
<g id="edge18_Node000013_Node000003" class="edge">
<title>Node13&#45;&gt;Node3</title>
<g id="a_edge18_Node000013_Node000003"><a xlink:title=" ">
<path fill="none" stroke="#63b8ff" d="M542.18,-169.84C517.19,-160.71 479.81,-147.07 452.78,-137.21"/>
<polygon fill="#63b8ff" stroke="#63b8ff" points="454.22,-133.64 443.62,-133.5 451.82,-140.21 454.22,-133.64"/>
</a>
</g>
</g>
<!-- Node13&#45;&gt;Node4 -->
<g id="edge19_Node000013_Node000004" class="edge">
<title>Node13&#45;&gt;Node4</title>
<g id="a_edge19_Node000013_Node000004"><a xlink:title=" ">
<path fill="none" stroke="#63b8ff" d="M598.78,-170.98C621.14,-163.55 651.78,-151.33 675,-134.25 715.49,-104.47 750.72,-56.21 768.23,-29.91"/>
<polygon fill="#63b8ff" stroke="#63b8ff" points="771.52,-32.28 774.05,-21.99 765.66,-28.45 771.52,-32.28"/>
</a>
</g>
</g>
<!-- Node13&#45;&gt;Node5 -->
<g id="edge17_Node000013_Node000005" class="edge">
<title>Node13&#45;&gt;Node5</title>
<g id="a_edge17_Node000013_Node000005"><a xlink:title=" ">
<path fill="none" stroke="#63b8ff" d="M539.33,-172.24C500.3,-162.53 431.59,-145.43 388.28,-134.65"/>
<polygon fill="#63b8ff" stroke="#63b8ff" points="389.4,-131.07 378.85,-132.06 387.71,-137.87 389.4,-131.07"/>
</a>
</g>
</g>
<!-- Node13&#45;&gt;Node7 -->
<g id="edge22_Node000013_Node000007" class="edge">
<title>Node13&#45;&gt;Node7</title>
<g id="a_edge22_Node000013_Node000007"><a xlink:title=" ">
<path fill="none" stroke="#63b8ff" d="M544.12,-169.79C527.2,-162.13 505.22,-150.11 490,-134.25 460.84,-103.86 441.63,-57.56 432.4,-31.33"/>
<polygon fill="#63b8ff" stroke="#63b8ff" points="435.47,-30.48 428.96,-22.12 428.84,-32.72 435.47,-30.48"/>
</a>
</g>
</g>
<!-- Node14 -->
<g id="Node000014" class="node">
<title>Node14</title>
<g id="a_Node000014"><a xlink:title=" ">
<polygon fill="#e0e0e0" stroke="#999999" points="628.62,-134.25 577.38,-134.25 577.38,-113.5 628.62,-113.5 628.62,-134.25"/>
<text text-anchor="middle" x="603" y="-120.75" font-family="Helvetica,sans-Serif" font-size="10.00">TLine.h</text>
</a>
</g>
</g>
<!-- Node13&#45;&gt;Node14 -->
<g id="edge21_Node000013_Node000014" class="edge">
<title>Node13&#45;&gt;Node14</title>
<g id="a_edge21_Node000013_Node000014"><a xlink:title=" ">
<path fill="none" stroke="#63b8ff" d="M575.08,-169.84C579.57,-162.6 585.84,-152.51 591.3,-143.72"/>
<polygon fill="#63b8ff" stroke="#63b8ff" points="594.67,-145.92 596.97,-135.58 588.73,-142.23 594.67,-145.92"/>
</a>
</g>
</g>
<!-- Node15 -->
<g id="Node000015" class="node">
<title>Node15</title>
<g id="a_Node000015"><a xlink:title=" ">
<polygon fill="#e0e0e0" stroke="#999999" points="739.25,-20.75 574.75,-20.75 574.75,0 739.25,0 739.25,-20.75"/>
<text text-anchor="middle" x="657" y="-7.25" font-family="Helvetica,sans-Serif" font-size="10.00">Math/DisplacementVector3D.h</text>
</a>
</g>
</g>
<!-- Node13&#45;&gt;Node15 -->
<g id="edge23_Node000013_Node000015" class="edge">
<title>Node13&#45;&gt;Node15</title>
<g id="a_edge23_Node000013_Node000015"><a xlink:title=" ">
<path fill="none" stroke="#63b8ff" d="M598.56,-170.12C616.79,-162.89 639.39,-151.25 654,-134.25 677.18,-107.26 680.34,-91.75 674,-56.75 672.43,-48.09 669.3,-38.92 666.15,-31.11"/>
<polygon fill="#63b8ff" stroke="#63b8ff" points="669.03,-29.96 661.85,-22.17 662.61,-32.74 669.03,-29.96"/>
</a>
</g>
</g>
<!-- Node16 -->
<g id="Node000016" class="node">
<title>Node16</title>
<g id="a_Node000016"><a xlink:href="Particle_8h.html" target="_top" xlink:title=" ">
<polygon fill="white" stroke="#666666" points="559.5,-134.25 498.5,-134.25 498.5,-113.5 559.5,-113.5 559.5,-134.25"/>
<text text-anchor="middle" x="529" y="-120.75" font-family="Helvetica,sans-Serif" font-size="10.00">Particle.h</text>
</a>
</g>
</g>
<!-- Node13&#45;&gt;Node16 -->
<g id="edge24_Node000013_Node000016" class="edge">
<title>Node13&#45;&gt;Node16</title>
<g id="a_edge24_Node000013_Node000016"><a xlink:title=" ">
<path fill="none" stroke="#63b8ff" d="M561.85,-169.84C556.5,-162.52 549.03,-152.29 542.56,-143.44"/>
<polygon fill="#63b8ff" stroke="#63b8ff" points="544.81,-141.59 536.09,-135.58 539.16,-145.72 544.81,-141.59"/>
</a>
</g>
</g>
<!-- Node13&#45;&gt;Node17 -->
<g id="edge33_Node000013_Node000017" class="edge">
<title>Node13&#45;&gt;Node17</title>
<g id="a_edge33_Node000013_Node000017"><a xlink:title=" ">
<path fill="none" stroke="#63b8ff" d="M595.21,-169.89C610.68,-162.63 628.95,-151.03 638,-134.25 645.76,-119.86 641.69,-101.36 636.44,-87.58"/>
<polygon fill="#63b8ff" stroke="#63b8ff" points="639.36,-86.51 632.18,-78.72 632.93,-89.29 639.36,-86.51"/>
</a>
</g>
</g>
<!-- Node16&#45;&gt;Node7 -->
<g id="edge25_Node000016_Node000007" class="edge">
<title>Node16&#45;&gt;Node7</title>
<g id="a_edge25_Node000016_Node000007"><a xlink:title=" ">
<path fill="none" stroke="#63b8ff" d="M523.72,-113.23C516.05,-99.72 500.89,-74.8 484,-56.75 473.76,-45.81 460.74,-35.38 449.64,-27.28"/>
<polygon fill="#63b8ff" stroke="#63b8ff" points="452.04,-23.99 441.86,-21.07 448,-29.7 452.04,-23.99"/>
</a>
</g>
</g>
<!-- Node16&#45;&gt;Node15 -->
<g id="edge26_Node000016_Node000015" class="edge">
<title>Node16&#45;&gt;Node15</title>
<g id="a_edge26_Node000016_Node000015"><a xlink:title=" ">
<path fill="none" stroke="#63b8ff" d="M534.64,-113.42C543.17,-99.69 560.44,-74.02 580,-56.75 593.71,-44.65 611.1,-34.08 625.89,-26.19"/>
<polygon fill="#63b8ff" stroke="#63b8ff" points="627.35,-28.86 634.64,-21.17 624.15,-22.64 627.35,-28.86"/>
</a>
</g>
</g>
<!-- Node16&#45;&gt;Node17 -->
<g id="edge27_Node000016_Node000017" class="edge">
<title>Node16&#45;&gt;Node17</title>
<g id="a_edge27_Node000016_Node000017"><a xlink:title=" ">
<path fill="none" stroke="#63b8ff" d="M546.52,-113.09C561.43,-104.76 583.09,-92.66 600.18,-83.11"/>
<polygon fill="#63b8ff" stroke="#63b8ff" points="601.61,-85.76 608.63,-77.83 598.19,-79.65 601.61,-85.76"/>
</a>
</g>
</g>
<!-- Node17&#45;&gt;Node4 -->
<g id="edge28_Node000017_Node000004" class="edge">
<title>Node17&#45;&gt;Node4</title>
<g id="a_edge28_Node000017_Node000004"><a xlink:title=" ">
<path fill="none" stroke="#63b8ff" d="M654.35,-56.34C680.42,-47.01 719.69,-32.96 747.37,-23.05"/>
<polygon fill="#63b8ff" stroke="#63b8ff" points="748.13,-26.14 756.37,-19.47 745.77,-19.55 748.13,-26.14"/>
</a>
</g>
</g>
<!-- Node17&#45;&gt;Node7 -->
<g id="edge30_Node000017_Node000007" class="edge">
<title>Node17&#45;&gt;Node7</title>
<g id="a_edge30_Node000017_Node000007"><a xlink:title=" ">
<path fill="none" stroke="#63b8ff" d="M591.07,-56.34C557.87,-47.29 508.37,-33.81 472.24,-23.97"/>
<polygon fill="#63b8ff" stroke="#63b8ff" points="473.53,-20.42 462.96,-21.17 471.69,-27.18 473.53,-20.42"/>
</a>
</g>
</g>
<!-- Node17&#45;&gt;Node8 -->
<g id="edge32_Node000017_Node000008" class="edge">
<title>Node17&#45;&gt;Node8</title>
<g id="a_edge32_Node000017_Node000008"><a xlink:title=" ">
<path fill="none" stroke="#63b8ff" d="M589.13,-61.92C505.29,-52.61 303.18,-30.16 198.8,-18.57"/>
<polygon fill="#63b8ff" stroke="#63b8ff" points="199.42,-15.01 189.09,-17.38 198.65,-21.96 199.42,-15.01"/>
</a>
</g>
</g>
<!-- Node17&#45;&gt;Node15 -->
<g id="edge31_Node000017_Node000015" class="edge">
<title>Node17&#45;&gt;Node15</title>
<g id="a_edge31_Node000017_Node000015"><a xlink:title=" ">
<path fill="none" stroke="#63b8ff" d="M632.36,-56.34C636.29,-49.17 641.74,-39.23 646.52,-30.51"/>
<polygon fill="#63b8ff" stroke="#63b8ff" points="649.95,-32.53 651.68,-22.08 643.81,-29.17 649.95,-32.53"/>
</a>
</g>
</g>
<!-- Node18 -->
<g id="Node000018" class="node">
<title>Node18</title>
<g id="a_Node000018"><a xlink:title=" ">
<polygon fill="#e0e0e0" stroke="#999999" points="556.88,-20.75 501.12,-20.75 501.12,0 556.88,0 556.88,-20.75"/>
<text text-anchor="middle" x="529" y="-7.25" font-family="Helvetica,sans-Serif" font-size="10.00">optional</text>
</a>
</g>
</g>
<!-- Node17&#45;&gt;Node18 -->
<g id="edge29_Node000017_Node000018" class="edge">
<title>Node17&#45;&gt;Node18</title>
<g id="a_edge29_Node000017_Node000018"><a xlink:title=" ">
<path fill="none" stroke="#63b8ff" d="M609.48,-56.34C594.57,-48.01 572.91,-35.91 555.82,-26.36"/>
<polygon fill="#63b8ff" stroke="#63b8ff" points="557.81,-22.9 547.37,-21.08 554.39,-29.01 557.81,-22.9"/>
</a>
</g>
</g>
</g>
</svg>
