<?xml version="1.0" encoding="UTF-8" standalone="no"?>
<!DOCTYPE svg PUBLIC "-//W3C//DTD SVG 1.1//EN"
 "http://www.w3.org/Graphics/SVG/1.1/DTD/svg11.dtd">
<!-- Generated by graphviz version 8.0.5 (20230430.1635)
 -->
<!-- Title: include/ResolutionUtilities.h Pages: 1 -->
<svg width="479pt" height="86pt"
 viewBox="0.00 0.00 479.25 85.50" xmlns="http://www.w3.org/2000/svg" xmlns:xlink="http://www.w3.org/1999/xlink">
<g id="graph0" class="graph" transform="scale(1 1) rotate(0) translate(4 81.5)">
<title>include/ResolutionUtilities.h</title>
<!-- Node1 -->
<g id="Node000001" class="node">
<title>Node1</title>
<g id="a_Node000001"><a xlink:title=" ">
<polygon fill="#999999" stroke="#666666" points="304.12,-77.5 150.88,-77.5 150.88,-56.75 304.12,-56.75 304.12,-77.5"/>
<text text-anchor="middle" x="227.5" y="-64" font-family="Helvetica,sans-Serif" font-size="10.00">include/ResolutionUtilities.h</text>
</a>
</g>
</g>
<!-- Node2 -->
<g id="Node000002" class="node">
<title>Node2</title>
<g id="a_Node000002"><a xlink:href="OptimiseARC_8cpp.html" target="_top" xlink:title=" ">
<polygon fill="white" stroke="#666666" points="127,-20.75 0,-20.75 0,0 127,0 127,-20.75"/>
<text text-anchor="middle" x="63.5" y="-7.25" font-family="Helvetica,sans-Serif" font-size="10.00">apps/OptimiseARC.cpp</text>
</a>
</g>
</g>
<!-- Node1&#45;&gt;Node2 -->
<g id="edge1_Node000001_Node000002" class="edge">
<title>Node1&#45;&gt;Node2</title>
<g id="a_edge1_Node000001_Node000002"><a xlink:title=" ">
<path fill="none" stroke="#63b8ff" d="M187.88,-52.9C158.59,-43.12 119.35,-30.02 92.84,-21.17"/>
<polygon fill="#63b8ff" stroke="#63b8ff" points="186.59,-56.49 197.18,-56.34 188.8,-49.85 186.59,-56.49"/>
</a>
</g>
</g>
<!-- Node3 -->
<g id="Node000003" class="node">
<title>Node3</title>
<g id="a_Node000003"><a xlink:href="ResolutionOptimizable_8cpp.html" target="_top" xlink:title=" ">
<polygon fill="white" stroke="#666666" points="309.75,-20.75 145.25,-20.75 145.25,0 309.75,0 309.75,-20.75"/>
<text text-anchor="middle" x="227.5" y="-7.25" font-family="Helvetica,sans-Serif" font-size="10.00">src/ResolutionOptimizable.cpp</text>
</a>
</g>
</g>
<!-- Node1&#45;&gt;Node3 -->
<g id="edge2_Node000001_Node000003" class="edge">
<title>Node1&#45;&gt;Node3</title>
<g id="a_edge2_Node000001_Node000003"><a xlink:title=" ">
<path fill="none" stroke="#63b8ff" d="M227.5,-45.46C227.5,-37.09 227.5,-27.83 227.5,-21.08"/>
<polygon fill="#63b8ff" stroke="#63b8ff" points="224,-45.34 227.5,-55.34 231,-45.34 224,-45.34"/>
</a>
</g>
</g>
<!-- Node4 -->
<g id="Node000004" class="node">
<title>Node4</title>
<g id="a_Node000004"><a xlink:href="ResolutionUtilities_8cpp.html" target="_top" xlink:title=" ">
<polygon fill="white" stroke="#666666" points="471.25,-20.75 327.75,-20.75 327.75,0 471.25,0 471.25,-20.75"/>
<text text-anchor="middle" x="399.5" y="-7.25" font-family="Helvetica,sans-Serif" font-size="10.00">src/ResolutionUtilities.cpp</text>
</a>
</g>
</g>
<!-- Node1&#45;&gt;Node4 -->
<g id="edge3_Node000001_Node000004" class="edge">
<title>Node1&#45;&gt;Node4</title>
<g id="a_edge3_Node000001_Node000004"><a xlink:title=" ">
<path fill="none" stroke="#63b8ff" d="M268.65,-53.03C299.41,-43.24 340.8,-30.06 368.73,-21.17"/>
<polygon fill="#63b8ff" stroke="#63b8ff" points="267.72,-49.97 259.25,-56.34 269.84,-56.64 267.72,-49.97"/>
</a>
</g>
</g>
</g>
</svg>
