<?xml version="1.0" encoding="UTF-8" standalone="no"?>
<!DOCTYPE svg PUBLIC "-//W3C//DTD SVG 1.1//EN"
 "http://www.w3.org/Graphics/SVG/1.1/DTD/svg11.dtd">
<!-- Generated by graphviz version 8.0.5 (20230430.1635)
 -->
<!-- Title: include/SiPM.h Pages: 1 -->
<svg width="677pt" height="256pt"
 viewBox="0.00 0.00 677.24 255.75" xmlns="http://www.w3.org/2000/svg" xmlns:xlink="http://www.w3.org/1999/xlink">
<g id="graph0" class="graph" transform="scale(1 1) rotate(0) translate(4 251.75)">
<title>include/SiPM.h</title>
<!-- Node1 -->
<g id="Node000001" class="node">
<title>Node1</title>
<g id="a_Node000001"><a xlink:title=" ">
<polygon fill="#999999" stroke="#666666" points="213.62,-247.75 126.37,-247.75 126.37,-227 213.62,-227 213.62,-247.75"/>
<text text-anchor="middle" x="169.99" y="-234.25" font-family="Helvetica,sans-Serif" font-size="10.00">include/SiPM.h</text>
</a>
</g>
</g>
<!-- Node2 -->
<g id="Node000002" class="node">
<title>Node2</title>
<g id="a_Node000002"><a xlink:title=" ">
<polygon fill="#e0e0e0" stroke="#999999" points="61.37,-134.25 14.62,-134.25 14.62,-113.5 61.37,-113.5 61.37,-134.25"/>
<text text-anchor="middle" x="37.99" y="-120.75" font-family="Helvetica,sans-Serif" font-size="10.00">vector</text>
</a>
</g>
</g>
<!-- Node1&#45;&gt;Node2 -->
<g id="edge1_Node000001_Node000002" class="edge">
<title>Node1&#45;&gt;Node2</title>
<g id="a_edge1_Node000001_Node000002"><a xlink:title=" ">
<path fill="none" stroke="#63b8ff" d="M158.74,-226.87C136.35,-207.96 85.96,-165.39 57.87,-141.66"/>
<polygon fill="#63b8ff" stroke="#63b8ff" points="60.49,-138.45 50.59,-134.68 55.97,-143.8 60.49,-138.45"/>
</a>
</g>
</g>
<!-- Node3 -->
<g id="Node000003" class="node">
<title>Node3</title>
<g id="a_Node000003"><a xlink:title=" ">
<polygon fill="#e0e0e0" stroke="#999999" points="122.87,-134.25 79.12,-134.25 79.12,-113.5 122.87,-113.5 122.87,-134.25"/>
<text text-anchor="middle" x="100.99" y="-120.75" font-family="Helvetica,sans-Serif" font-size="10.00">string</text>
</a>
</g>
</g>
<!-- Node1&#45;&gt;Node3 -->
<g id="edge2_Node000001_Node000003" class="edge">
<title>Node1&#45;&gt;Node3</title>
<g id="a_edge2_Node000001_Node000003"><a xlink:title=" ">
<path fill="none" stroke="#63b8ff" d="M164.11,-226.87C152.76,-208.53 127.65,-167.95 112.75,-143.87"/>
<polygon fill="#63b8ff" stroke="#63b8ff" points="115.3,-142.34 107.06,-135.68 109.34,-146.02 115.3,-142.34"/>
</a>
</g>
</g>
<!-- Node4 -->
<g id="Node000004" class="node">
<title>Node4</title>
<g id="a_Node000004"><a xlink:title=" ">
<polygon fill="#e0e0e0" stroke="#999999" points="198.62,-134.25 141.37,-134.25 141.37,-113.5 198.62,-113.5 198.62,-134.25"/>
<text text-anchor="middle" x="169.99" y="-120.75" font-family="Helvetica,sans-Serif" font-size="10.00">memory</text>
</a>
</g>
</g>
<!-- Node1&#45;&gt;Node4 -->
<g id="edge3_Node000001_Node000004" class="edge">
<title>Node1&#45;&gt;Node4</title>
<g id="a_edge3_Node000001_Node000004"><a xlink:title=" ">
<path fill="none" stroke="#63b8ff" d="M169.99,-226.87C169.99,-208.94 169.99,-169.75 169.99,-145.51"/>
<polygon fill="#63b8ff" stroke="#63b8ff" points="173.49,-145.68 169.99,-135.68 166.49,-145.68 173.49,-145.68"/>
</a>
</g>
</g>
<!-- Node5 -->
<g id="Node000005" class="node">
<title>Node5</title>
<g id="a_Node000005"><a xlink:title=" ">
<polygon fill="#e0e0e0" stroke="#999999" points="337.24,-191 274.74,-191 274.74,-170.25 337.24,-170.25 337.24,-191"/>
<text text-anchor="middle" x="305.99" y="-177.5" font-family="Helvetica,sans-Serif" font-size="10.00">TObject.h</text>
</a>
</g>
</g>
<!-- Node1&#45;&gt;Node5 -->
<g id="edge4_Node000001_Node000005" class="edge">
<title>Node1&#45;&gt;Node5</title>
<g id="a_edge4_Node000001_Node000005"><a xlink:title=" ">
<path fill="none" stroke="#63b8ff" d="M194.31,-226.59C215.87,-217.91 247.6,-205.13 271.73,-195.42"/>
<polygon fill="#63b8ff" stroke="#63b8ff" points="272.92,-198.31 280.89,-191.33 270.3,-191.82 272.92,-198.31"/>
</a>
</g>
</g>
<!-- Node6 -->
<g id="Node000006" class="node">
<title>Node6</title>
<g id="a_Node000006"><a xlink:title=" ">
<polygon fill="#e0e0e0" stroke="#999999" points="464.49,-191 355.49,-191 355.49,-170.25 464.49,-170.25 464.49,-191"/>
<text text-anchor="middle" x="409.99" y="-177.5" font-family="Helvetica,sans-Serif" font-size="10.00">Math/Interpolator.h</text>
</a>
</g>
</g>
<!-- Node1&#45;&gt;Node6 -->
<g id="edge5_Node000001_Node000006" class="edge">
<title>Node1&#45;&gt;Node6</title>
<g id="a_edge5_Node000001_Node000006"><a xlink:title=" ">
<path fill="none" stroke="#63b8ff" d="M213.18,-226.52C253.24,-217.38 313,-203.75 356.16,-193.91"/>
<polygon fill="#63b8ff" stroke="#63b8ff" points="356.78,-197.13 365.75,-191.49 355.22,-190.3 356.78,-197.13"/>
</a>
</g>
</g>
<!-- Node7 -->
<g id="Node000007" class="node">
<title>Node7</title>
<g id="a_Node000007"><a xlink:title=" ">
<polygon fill="#e0e0e0" stroke="#999999" points="225.12,-20.75 110.87,-20.75 110.87,0 225.12,0 225.12,-20.75"/>
<text text-anchor="middle" x="167.99" y="-7.25" font-family="Helvetica,sans-Serif" font-size="10.00">Math/Vector3Dfwd.h</text>
</a>
</g>
</g>
<!-- Node1&#45;&gt;Node7 -->
<g id="edge6_Node000001_Node000007" class="edge">
<title>Node1&#45;&gt;Node7</title>
<g id="a_edge6_Node000001_Node000007"><a xlink:title=" ">
<path fill="none" stroke="#63b8ff" d="M135.91,-226.62C96.19,-213.17 32.6,-184.68 5.99,-134.25 -22.7,-79.88 62.63,-42.62 120.11,-24.35"/>
<polygon fill="#63b8ff" stroke="#63b8ff" points="120.96,-27.44 129.49,-21.16 118.9,-20.75 120.96,-27.44"/>
</a>
</g>
</g>
<!-- Node8 -->
<g id="Node000008" class="node">
<title>Node8</title>
<g id="a_Node000008"><a xlink:href="Photon_8h.html" target="_top" xlink:title=" ">
<polygon fill="white" stroke="#666666" points="256.37,-191 197.62,-191 197.62,-170.25 256.37,-170.25 256.37,-191"/>
<text text-anchor="middle" x="226.99" y="-177.5" font-family="Helvetica,sans-Serif" font-size="10.00">Photon.h</text>
</a>
</g>
</g>
<!-- Node1&#45;&gt;Node8 -->
<g id="edge7_Node000001_Node000008" class="edge">
<title>Node1&#45;&gt;Node8</title>
<g id="a_edge7_Node000001_Node000008"><a xlink:title=" ">
<path fill="none" stroke="#63b8ff" d="M180.18,-226.59C188.21,-218.88 199.59,-207.95 209.12,-198.79"/>
<polygon fill="#63b8ff" stroke="#63b8ff" points="211.1,-201.78 215.89,-192.33 206.25,-196.73 211.1,-201.78"/>
</a>
</g>
</g>
<!-- Node8&#45;&gt;Node2 -->
<g id="edge9_Node000008_Node000002" class="edge">
<title>Node8&#45;&gt;Node2</title>
<g id="a_edge9_Node000008_Node000002"><a xlink:title=" ">
<path fill="none" stroke="#63b8ff" d="M197.18,-171.04C167.69,-162.55 120.99,-149.07 72.19,-134.88"/>
<polygon fill="#63b8ff" stroke="#63b8ff" points="73.33,-131.28 62.75,-131.85 71.38,-138 73.33,-131.28"/>
</a>
</g>
</g>
<!-- Node8&#45;&gt;Node3 -->
<g id="edge11_Node000008_Node000003" class="edge">
<title>Node8&#45;&gt;Node3</title>
<g id="a_edge11_Node000008_Node000003"><a xlink:title=" ">
<path fill="none" stroke="#63b8ff" d="M204.47,-169.84C184.67,-161.23 155.62,-148.61 133.34,-138.93"/>
<polygon fill="#63b8ff" stroke="#63b8ff" points="134.89,-135.35 124.32,-134.58 132.1,-141.77 134.89,-135.35"/>
</a>
</g>
</g>
<!-- Node8&#45;&gt;Node4 -->
<g id="edge8_Node000008_Node000004" class="edge">
<title>Node8&#45;&gt;Node4</title>
<g id="a_edge8_Node000008_Node000004"><a xlink:title=" ">
<path fill="none" stroke="#63b8ff" d="M216.8,-169.84C208.78,-162.13 197.39,-151.2 187.86,-142.04"/>
<polygon fill="#63b8ff" stroke="#63b8ff" points="190.73,-139.98 181.09,-135.58 185.88,-145.03 190.73,-139.98"/>
</a>
</g>
</g>
<!-- Node8&#45;&gt;Node7 -->
<g id="edge13_Node000008_Node000007" class="edge">
<title>Node8&#45;&gt;Node7</title>
<g id="a_edge13_Node000008_Node000007"><a xlink:title=" ">
<path fill="none" stroke="#63b8ff" d="M224.56,-170.12C221.19,-157.2 214.74,-133.41 207.99,-113.5 198.15,-84.44 184.85,-51.49 176.34,-31.07"/>
<polygon fill="#63b8ff" stroke="#63b8ff" points="179.26,-29.99 172.16,-22.12 172.81,-32.7 179.26,-29.99"/>
</a>
</g>
</g>
<!-- Node9 -->
<g id="Node000009" class="node">
<title>Node9</title>
<g id="a_Node000009"><a xlink:title=" ">
<polygon fill="#e0e0e0" stroke="#999999" points="287.24,-20.75 242.74,-20.75 242.74,0 287.24,0 287.24,-20.75"/>
<text text-anchor="middle" x="264.99" y="-7.25" font-family="Helvetica,sans-Serif" font-size="10.00">utility</text>
</a>
</g>
</g>
<!-- Node8&#45;&gt;Node9 -->
<g id="edge10_Node000008_Node000009" class="edge">
<title>Node8&#45;&gt;Node9</title>
<g id="a_edge10_Node000008_Node000009"><a xlink:title=" ">
<path fill="none" stroke="#63b8ff" d="M230.3,-169.97C233.35,-160.84 237.86,-146.72 240.99,-134.25 249.96,-98.54 257.57,-56.29 261.69,-31.79"/>
<polygon fill="#63b8ff" stroke="#63b8ff" points="265.29,-32.45 263.47,-22.01 258.39,-31.31 265.29,-32.45"/>
</a>
</g>
</g>
<!-- Node10 -->
<g id="Node000010" class="node">
<title>Node10</title>
<g id="a_Node000010"><a xlink:title=" ">
<polygon fill="#e0e0e0" stroke="#999999" points="552.62,-134.25 501.37,-134.25 501.37,-113.5 552.62,-113.5 552.62,-134.25"/>
<text text-anchor="middle" x="526.99" y="-120.75" font-family="Helvetica,sans-Serif" font-size="10.00">TLine.h</text>
</a>
</g>
</g>
<!-- Node8&#45;&gt;Node10 -->
<g id="edge12_Node000008_Node000010" class="edge">
<title>Node8&#45;&gt;Node10</title>
<g id="a_edge12_Node000008_Node000010"><a xlink:title=" ">
<path fill="none" stroke="#63b8ff" d="M256.75,-172.23C259.87,-171.53 262.99,-170.85 265.99,-170.25 363.55,-150.61 389.38,-153.62 486.99,-134.25 488.15,-134.02 489.32,-133.78 490.5,-133.54"/>
<polygon fill="#63b8ff" stroke="#63b8ff" points="491.21,-136.75 500.23,-131.19 489.71,-129.91 491.21,-136.75"/>
</a>
</g>
</g>
<!-- Node11 -->
<g id="Node000011" class="node">
<title>Node11</title>
<g id="a_Node000011"><a xlink:title=" ">
<polygon fill="#e0e0e0" stroke="#999999" points="669.24,-20.75 504.74,-20.75 504.74,0 669.24,0 669.24,-20.75"/>
<text text-anchor="middle" x="586.99" y="-7.25" font-family="Helvetica,sans-Serif" font-size="10.00">Math/DisplacementVector3D.h</text>
</a>
</g>
</g>
<!-- Node8&#45;&gt;Node11 -->
<g id="edge14_Node000008_Node000011" class="edge">
<title>Node8&#45;&gt;Node11</title>
<g id="a_edge14_Node000008_Node000011"><a xlink:title=" ">
<path fill="none" stroke="#63b8ff" d="M256.49,-172.47C305.75,-160.5 400.07,-137.37 406.99,-134.25 470.74,-105.56 536.23,-54.28 567.74,-27.96"/>
<polygon fill="#63b8ff" stroke="#63b8ff" points="569.67,-30.07 575.05,-20.94 565.15,-24.72 569.67,-30.07"/>
</a>
</g>
</g>
<!-- Node12 -->
<g id="Node000012" class="node">
<title>Node12</title>
<g id="a_Node000012"><a xlink:href="Particle_8h.html" target="_top" xlink:title=" ">
<polygon fill="white" stroke="#666666" points="397.49,-134.25 336.49,-134.25 336.49,-113.5 397.49,-113.5 397.49,-134.25"/>
<text text-anchor="middle" x="366.99" y="-120.75" font-family="Helvetica,sans-Serif" font-size="10.00">Particle.h</text>
</a>
</g>
</g>
<!-- Node8&#45;&gt;Node12 -->
<g id="edge15_Node000008_Node000012" class="edge">
<title>Node8&#45;&gt;Node12</title>
<g id="a_edge15_Node000008_Node000012"><a xlink:title=" ">
<path fill="none" stroke="#63b8ff" d="M252.02,-169.84C274.32,-161.12 307.17,-148.27 332.06,-138.54"/>
<polygon fill="#63b8ff" stroke="#63b8ff" points="333.14,-141.48 341.18,-134.58 330.59,-134.96 333.14,-141.48"/>
</a>
</g>
</g>
<!-- Node13 -->
<g id="Node000013" class="node">
<title>Node13</title>
<g id="a_Node000013"><a xlink:href="ARCVector_8h.html" target="_top" xlink:title=" ">
<polygon fill="white" stroke="#666666" points="406.62,-77.5 331.37,-77.5 331.37,-56.75 406.62,-56.75 406.62,-77.5"/>
<text text-anchor="middle" x="368.99" y="-64" font-family="Helvetica,sans-Serif" font-size="10.00">ARCVector.h</text>
</a>
</g>
</g>
<!-- Node8&#45;&gt;Node13 -->
<g id="edge24_Node000008_Node000013" class="edge">
<title>Node8&#45;&gt;Node13</title>
<g id="a_edge24_Node000008_Node000013"><a xlink:title=" ">
<path fill="none" stroke="#63b8ff" d="M239.1,-170.12C263.29,-151.12 317.86,-108.27 348,-84.61"/>
<polygon fill="#63b8ff" stroke="#63b8ff" points="349.81,-86.85 355.51,-77.93 345.48,-81.35 349.81,-86.85"/>
</a>
</g>
</g>
<!-- Node12&#45;&gt;Node7 -->
<g id="edge16_Node000012_Node000007" class="edge">
<title>Node12&#45;&gt;Node7</title>
<g id="a_edge16_Node000012_Node000007"><a xlink:title=" ">
<path fill="none" stroke="#63b8ff" d="M349.68,-113.18C314.91,-93.69 236.38,-49.69 194.87,-26.44"/>
<polygon fill="#63b8ff" stroke="#63b8ff" points="196.84,-22.97 186.41,-21.13 193.42,-29.07 196.84,-22.97"/>
</a>
</g>
</g>
<!-- Node12&#45;&gt;Node11 -->
<g id="edge17_Node000012_Node000011" class="edge">
<title>Node12&#45;&gt;Node11</title>
<g id="a_edge17_Node000012_Node000011"><a xlink:title=" ">
<path fill="none" stroke="#63b8ff" d="M378.21,-113.19C394.88,-99.18 427.62,-73.16 458.99,-56.75 484.86,-43.22 515.65,-32.16 540.54,-24.35"/>
<polygon fill="#63b8ff" stroke="#63b8ff" points="541.28,-27.48 549.82,-21.21 539.23,-20.79 541.28,-27.48"/>
</a>
</g>
</g>
<!-- Node12&#45;&gt;Node13 -->
<g id="edge18_Node000012_Node000013" class="edge">
<title>Node12&#45;&gt;Node13</title>
<g id="a_edge18_Node000012_Node000013"><a xlink:title=" ">
<path fill="none" stroke="#63b8ff" d="M367.35,-113.09C367.6,-106.31 367.94,-97.05 368.24,-88.69"/>
<polygon fill="#63b8ff" stroke="#63b8ff" points="371.77,-88.95 368.64,-78.83 364.77,-88.69 371.77,-88.95"/>
</a>
</g>
</g>
<!-- Node13&#45;&gt;Node7 -->
<g id="edge21_Node000013_Node000007" class="edge">
<title>Node13&#45;&gt;Node7</title>
<g id="a_edge21_Node000013_Node000007"><a xlink:title=" ">
<path fill="none" stroke="#63b8ff" d="M333.06,-56.34C299.86,-47.29 250.37,-33.81 214.23,-23.97"/>
<polygon fill="#63b8ff" stroke="#63b8ff" points="215.52,-20.42 204.95,-21.17 213.68,-27.18 215.52,-20.42"/>
</a>
</g>
</g>
<!-- Node13&#45;&gt;Node9 -->
<g id="edge19_Node000013_Node000009" class="edge">
<title>Node13&#45;&gt;Node9</title>
<g id="a_edge19_Node000013_Node000009"><a xlink:title=" ">
<path fill="none" stroke="#63b8ff" d="M350.4,-56.34C334.43,-47.93 311.16,-35.68 292.95,-26.09"/>
<polygon fill="#63b8ff" stroke="#63b8ff" points="294.9,-22.64 284.42,-21.08 291.64,-28.83 294.9,-22.64"/>
</a>
</g>
</g>
<!-- Node13&#45;&gt;Node11 -->
<g id="edge22_Node000013_Node000011" class="edge">
<title>Node13&#45;&gt;Node11</title>
<g id="a_edge22_Node000013_Node000011"><a xlink:title=" ">
<path fill="none" stroke="#63b8ff" d="M406.96,-56.59C443.17,-47.5 497.89,-33.75 537.5,-23.8"/>
<polygon fill="#63b8ff" stroke="#63b8ff" points="538.14,-27 546.99,-21.17 536.44,-20.21 538.14,-27"/>
</a>
</g>
</g>
<!-- Node14 -->
<g id="Node000014" class="node">
<title>Node14</title>
<g id="a_Node000014"><a xlink:title=" ">
<polygon fill="#e0e0e0" stroke="#999999" points="486.87,-20.75 431.12,-20.75 431.12,0 486.87,0 486.87,-20.75"/>
<text text-anchor="middle" x="458.99" y="-7.25" font-family="Helvetica,sans-Serif" font-size="10.00">optional</text>
</a>
</g>
</g>
<!-- Node13&#45;&gt;Node14 -->
<g id="edge20_Node000013_Node000014" class="edge">
<title>Node13&#45;&gt;Node14</title>
<g id="a_edge20_Node000013_Node000014"><a xlink:title=" ">
<path fill="none" stroke="#63b8ff" d="M385.08,-56.34C398.65,-48.08 418.29,-36.13 433.92,-26.63"/>
<polygon fill="#63b8ff" stroke="#63b8ff" points="435.32,-29.27 442.04,-21.08 431.68,-23.29 435.32,-29.27"/>
</a>
</g>
</g>
<!-- Node15 -->
<g id="Node000015" class="node">
<title>Node15</title>
<g id="a_Node000015"><a xlink:title=" ">
<polygon fill="#e0e0e0" stroke="#999999" points="412.74,-20.75 305.24,-20.75 305.24,0 412.74,0 412.74,-20.75"/>
<text text-anchor="middle" x="358.99" y="-7.25" font-family="Helvetica,sans-Serif" font-size="10.00">Math/Rotation3D.h</text>
</a>
</g>
</g>
<!-- Node13&#45;&gt;Node15 -->
<g id="edge23_Node000013_Node000015" class="edge">
<title>Node13&#45;&gt;Node15</title>
<g id="a_edge23_Node000013_Node000015"><a xlink:title=" ">
<path fill="none" stroke="#63b8ff" d="M367.2,-56.34C365.95,-49.49 364.24,-40.09 362.7,-31.65"/>
<polygon fill="#63b8ff" stroke="#63b8ff" points="366,-31.29 360.76,-22.08 359.12,-32.54 366,-31.29"/>
</a>
</g>
</g>
</g>
</svg>
