<?xml version="1.0" encoding="UTF-8" standalone="no"?>
<!DOCTYPE svg PUBLIC "-//W3C//DTD SVG 1.1//EN"
 "http://www.w3.org/Graphics/SVG/1.1/DTD/svg11.dtd">
<!-- Generated by graphviz version 8.0.5 (20230430.1635)
 -->
<!-- Title: ReconstructedPhoton Pages: 1 -->
<svg width="239pt" height="295pt"
 viewBox="0.00 0.00 238.75 295.00" xmlns="http://www.w3.org/2000/svg" xmlns:xlink="http://www.w3.org/1999/xlink">
<g id="graph0" class="graph" transform="scale(1 1) rotate(0) translate(4 291)">
<title>ReconstructedPhoton</title>
<!-- Node1 -->
<g id="Node000001" class="node">
<title>Node1</title>
<g id="a_Node000001"><a xlink:title=" ">
<polygon fill="#999999" stroke="#666666" points="119.5,-20.75 0,-20.75 0,0 119.5,0 119.5,-20.75"/>
<text text-anchor="middle" x="59.75" y="-7.25" font-family="Helvetica,sans-Serif" font-size="10.00">ReconstructedPhoton</text>
</a>
</g>
</g>
<!-- Node2 -->
<g id="Node000002" class="node">
<title>Node2</title>
<g id="a_Node000002"><a xlink:href="classPhoton.html" target="_top" xlink:title=" ">
<polygon fill="white" stroke="#666666" points="84.62,-90.25 34.88,-90.25 34.88,-69.5 84.62,-69.5 84.62,-90.25"/>
<text text-anchor="middle" x="59.75" y="-76.75" font-family="Helvetica,sans-Serif" font-size="10.00">Photon</text>
</a>
</g>
</g>
<!-- Node2&#45;&gt;Node1 -->
<g id="edge1_Node000001_Node000002" class="edge">
<title>Node2&#45;&gt;Node1</title>
<g id="a_edge1_Node000001_Node000002"><a xlink:title=" ">
<path fill="none" stroke="#9a32cd" stroke-dasharray="5,2" d="M59.75,-58.45C59.75,-46.03 59.75,-30.75 59.75,-21.03"/>
<polygon fill="#9a32cd" stroke="#9a32cd" points="56.25,-58.2 59.75,-68.2 63.25,-58.2 56.25,-58.2"/>
</a>
</g>
<text text-anchor="middle" x="85.62" y="-42" font-family="Helvetica,sans-Serif" font-size="10.00" fill="grey"> m_Photon</text>
</g>
<!-- Node3 -->
<g id="Node000003" class="node">
<title>Node3</title>
<g id="a_Node000003"><a xlink:href="classParticle.html" target="_top" xlink:title=" ">
<polygon fill="white" stroke="#666666" points="85.75,-148 33.75,-148 33.75,-127.25 85.75,-127.25 85.75,-148"/>
<text text-anchor="middle" x="59.75" y="-134.5" font-family="Helvetica,sans-Serif" font-size="10.00">Particle</text>
</a>
</g>
</g>
<!-- Node3&#45;&gt;Node2 -->
<g id="edge2_Node000002_Node000003" class="edge">
<title>Node3&#45;&gt;Node2</title>
<g id="a_edge2_Node000002_Node000003"><a xlink:title=" ">
<path fill="none" stroke="#63b8ff" d="M59.75,-115.98C59.75,-107.24 59.75,-97.48 59.75,-90.47"/>
<polygon fill="#63b8ff" stroke="#63b8ff" points="56.25,-115.91 59.75,-125.91 63.25,-115.91 56.25,-115.91"/>
</a>
</g>
</g>
<!-- Node4 -->
<g id="Node000004" class="node">
<title>Node4</title>
<g id="a_Node000004"><a xlink:href="classARCVector.html" target="_top" xlink:title=" ">
<polygon fill="white" stroke="#666666" points="94.25,-287 27.25,-287 27.25,-266.25 94.25,-266.25 94.25,-287"/>
<text text-anchor="middle" x="60.75" y="-273.5" font-family="Helvetica,sans-Serif" font-size="10.00">ARCVector</text>
</a>
</g>
</g>
<!-- Node4&#45;&gt;Node3 -->
<g id="edge3_Node000003_Node000004" class="edge">
<title>Node4&#45;&gt;Node3</title>
<g id="a_edge3_Node000003_Node000004"><a xlink:title=" ">
<path fill="none" stroke="#9a32cd" stroke-dasharray="5,2" d="M57.22,-255.08C55.5,-243.99 53.61,-230.04 52.75,-217.5 51.04,-192.54 55.3,-163.2 57.9,-148.33"/>
<polygon fill="#9a32cd" stroke="#9a32cd" points="53.91,-255.49 58.98,-264.79 60.82,-254.36 53.91,-255.49"/>
</a>
</g>
<text text-anchor="middle" x="81.25" y="-204" font-family="Helvetica,sans-Serif" font-size="10.00" fill="grey"> m_Position</text>
</g>
<!-- Node5 -->
<g id="Node000005" class="node">
<title>Node5</title>
<g id="a_Node000005"><a xlink:href="classRadiatorCell.html" target="_top" xlink:title=" ">
<polygon fill="white" stroke="#666666" points="194.75,-217.5 118.75,-217.5 118.75,-196.75 194.75,-196.75 194.75,-217.5"/>
<text text-anchor="middle" x="156.75" y="-204" font-family="Helvetica,sans-Serif" font-size="10.00">RadiatorCell</text>
</a>
</g>
</g>
<!-- Node4&#45;&gt;Node5 -->
<g id="edge6_Node000005_Node000004" class="edge">
<title>Node4&#45;&gt;Node5</title>
<g id="a_edge6_Node000005_Node000004"><a xlink:title=" ">
<path fill="none" stroke="#9a32cd" stroke-dasharray="5,2" d="M68.37,-255.87C71.97,-248.66 76.89,-240.94 83.25,-235.5 93.28,-226.91 106.26,-220.9 118.52,-216.75"/>
<polygon fill="#9a32cd" stroke="#9a32cd" points="64.85,-254.19 64.04,-264.75 71.26,-257 64.85,-254.19"/>
</a>
</g>
<text text-anchor="middle" x="123.5" y="-238.75" font-family="Helvetica,sans-Serif" font-size="10.00" fill="grey"> m_MirrorCentre</text>
</g>
<!-- Node5&#45;&gt;Node3 -->
<g id="edge4_Node000003_Node000005" class="edge">
<title>Node5&#45;&gt;Node3</title>
<g id="a_edge4_Node000003_Node000005"><a xlink:title=" ">
<path fill="none" stroke="#9a32cd" stroke-dasharray="5,2" d="M133.87,-190.2C115.29,-177.27 89.67,-159.45 73.94,-148.5"/>
<polygon fill="#9a32cd" stroke="#9a32cd" points="131.64,-193.61 141.85,-196.45 135.64,-187.87 131.64,-193.61"/>
</a>
</g>
<text text-anchor="middle" x="156.75" y="-169.25" font-family="Helvetica,sans-Serif" font-size="10.00" fill="grey"> m_RadiatorCell</text>
</g>
<!-- Node6 -->
<g id="Node000006" class="node">
<title>Node6</title>
<g id="a_Node000006"><a xlink:href="classSiPM.html" target="_top" xlink:title=" ">
<polygon fill="white" stroke="#666666" points="199.75,-287 159.75,-287 159.75,-266.25 199.75,-266.25 199.75,-287"/>
<text text-anchor="middle" x="179.75" y="-273.5" font-family="Helvetica,sans-Serif" font-size="10.00">SiPM</text>
</a>
</g>
</g>
<!-- Node6&#45;&gt;Node5 -->
<g id="edge5_Node000005_Node000006" class="edge">
<title>Node6&#45;&gt;Node5</title>
<g id="a_edge5_Node000005_Node000006"><a xlink:title=" ">
<path fill="none" stroke="#9a32cd" stroke-dasharray="5,2" d="M172.92,-255.58C168.67,-243.1 163.38,-227.6 160.04,-217.78"/>
<polygon fill="#9a32cd" stroke="#9a32cd" points="169.92,-256.62 176.45,-264.95 176.54,-254.36 169.92,-256.62"/>
</a>
</g>
<text text-anchor="middle" x="200.75" y="-238.75" font-family="Helvetica,sans-Serif" font-size="10.00" fill="grey"> m_Detector</text>
</g>
</g>
</svg>
