<?xml version="1.0" encoding="UTF-8" standalone="no"?>
<!DOCTYPE svg PUBLIC "-//W3C//DTD SVG 1.1//EN"
 "http://www.w3.org/Graphics/SVG/1.1/DTD/svg11.dtd">
<!-- Generated by graphviz version 8.0.5 (20230430.1635)
 -->
<!-- Title: include/TrackingVolume.h Pages: 1 -->
<svg width="335pt" height="86pt"
 viewBox="0.00 0.00 334.88 85.50" xmlns="http://www.w3.org/2000/svg" xmlns:xlink="http://www.w3.org/1999/xlink">
<g id="graph0" class="graph" transform="scale(1 1) rotate(0) translate(4 81.5)">
<title>include/TrackingVolume.h</title>
<!-- Node1 -->
<g id="Node000001" class="node">
<title>Node1</title>
<g id="a_Node000001"><a xlink:title=" ">
<polygon fill="#999999" stroke="#666666" points="229.88,-77.5 89.38,-77.5 89.38,-56.75 229.88,-56.75 229.88,-77.5"/>
<text text-anchor="middle" x="159.62" y="-64" font-family="Helvetica,sans-Serif" font-size="10.00">include/TrackingVolume.h</text>
</a>
</g>
</g>
<!-- Node2 -->
<g id="Node000002" class="node">
<title>Node2</title>
<g id="a_Node000002"><a xlink:title=" ">
<polygon fill="#e0e0e0" stroke="#999999" points="57.25,-20.75 0,-20.75 0,0 57.25,0 57.25,-20.75"/>
<text text-anchor="middle" x="28.62" y="-7.25" font-family="Helvetica,sans-Serif" font-size="10.00">memory</text>
</a>
</g>
</g>
<!-- Node1&#45;&gt;Node2 -->
<g id="edge1_Node000001_Node000002" class="edge">
<title>Node1&#45;&gt;Node2</title>
<g id="a_edge1_Node000001_Node000002"><a xlink:title=" ">
<path fill="none" stroke="#63b8ff" d="M136.2,-56.34C115.53,-47.69 85.15,-35 61.94,-25.3"/>
<polygon fill="#63b8ff" stroke="#63b8ff" points="63.42,-21.71 52.84,-21.08 60.72,-28.16 63.42,-21.71"/>
</a>
</g>
</g>
<!-- Node3 -->
<g id="Node000003" class="node">
<title>Node3</title>
<g id="a_Node000003"><a xlink:title=" ">
<polygon fill="#e0e0e0" stroke="#999999" points="119.88,-20.75 75.38,-20.75 75.38,0 119.88,0 119.88,-20.75"/>
<text text-anchor="middle" x="97.62" y="-7.25" font-family="Helvetica,sans-Serif" font-size="10.00">utility</text>
</a>
</g>
</g>
<!-- Node1&#45;&gt;Node3 -->
<g id="edge2_Node000001_Node000003" class="edge">
<title>Node1&#45;&gt;Node3</title>
<g id="a_edge2_Node000001_Node000003"><a xlink:title=" ">
<path fill="none" stroke="#63b8ff" d="M148.54,-56.34C139.72,-48.55 127.18,-37.47 116.75,-28.26"/>
<polygon fill="#63b8ff" stroke="#63b8ff" points="119.43,-26.07 109.61,-22.08 114.79,-31.32 119.43,-26.07"/>
</a>
</g>
</g>
<!-- Node4 -->
<g id="Node000004" class="node">
<title>Node4</title>
<g id="a_Node000004"><a xlink:title=" ">
<polygon fill="#e0e0e0" stroke="#999999" points="181.5,-20.75 137.75,-20.75 137.75,0 181.5,0 181.5,-20.75"/>
<text text-anchor="middle" x="159.62" y="-7.25" font-family="Helvetica,sans-Serif" font-size="10.00">string</text>
</a>
</g>
</g>
<!-- Node1&#45;&gt;Node4 -->
<g id="edge3_Node000001_Node000004" class="edge">
<title>Node1&#45;&gt;Node4</title>
<g id="a_edge3_Node000001_Node000004"><a xlink:title=" ">
<path fill="none" stroke="#63b8ff" d="M159.62,-56.34C159.62,-49.56 159.62,-40.3 159.62,-31.94"/>
<polygon fill="#63b8ff" stroke="#63b8ff" points="163.13,-32.08 159.62,-22.08 156.13,-32.08 163.13,-32.08"/>
</a>
</g>
</g>
<!-- Node5 -->
<g id="Node000005" class="node">
<title>Node5</title>
<g id="a_Node000005"><a xlink:title=" ">
<polygon fill="#e0e0e0" stroke="#999999" points="246,-20.75 199.25,-20.75 199.25,0 246,0 246,-20.75"/>
<text text-anchor="middle" x="222.62" y="-7.25" font-family="Helvetica,sans-Serif" font-size="10.00">vector</text>
</a>
</g>
</g>
<!-- Node1&#45;&gt;Node5 -->
<g id="edge4_Node000001_Node000005" class="edge">
<title>Node1&#45;&gt;Node5</title>
<g id="a_edge4_Node000001_Node000005"><a xlink:title=" ">
<path fill="none" stroke="#63b8ff" d="M170.89,-56.34C179.85,-48.55 192.59,-37.47 203.19,-28.26"/>
<polygon fill="#63b8ff" stroke="#63b8ff" points="205.21,-30.28 210.46,-21.08 200.62,-25 205.21,-30.28"/>
</a>
</g>
</g>
<!-- Node6 -->
<g id="Node000006" class="node">
<title>Node6</title>
<g id="a_Node000006"><a xlink:title=" ">
<polygon fill="#e0e0e0" stroke="#999999" points="326.88,-20.75 264.38,-20.75 264.38,0 326.88,0 326.88,-20.75"/>
<text text-anchor="middle" x="295.62" y="-7.25" font-family="Helvetica,sans-Serif" font-size="10.00">TObject.h</text>
</a>
</g>
</g>
<!-- Node1&#45;&gt;Node6 -->
<g id="edge5_Node000001_Node000006" class="edge">
<title>Node1&#45;&gt;Node6</title>
<g id="a_edge5_Node000001_Node000006"><a xlink:title=" ">
<path fill="none" stroke="#63b8ff" d="M183.94,-56.34C205.5,-47.66 237.23,-34.88 261.36,-25.17"/>
<polygon fill="#63b8ff" stroke="#63b8ff" points="262.55,-28.06 270.52,-21.08 259.94,-21.57 262.55,-28.06"/>
</a>
</g>
</g>
</g>
</svg>
